<svg width="383" height="263" viewBox="0 0 383 263" fill="none" xmlns="http://www.w3.org/2000/svg">
<g filter="url(#filter0_d_10_25)">
<rect y="35" width="369" height="210" rx="8" fill="#E3E722" fill-opacity="0.69" shape-rendering="crispEdges"/>
</g>
<path d="M44.7851 104.344V124H39.9971V112.212L35.6011 124H31.7371L27.3131 112.184V124H22.5251V104.344H28.1811L33.6971 117.952L39.1571 104.344H44.7851ZM47.2762 116.16C47.2762 114.555 47.5749 113.145 48.1722 111.932C48.7882 110.719 49.6189 109.785 50.6642 109.132C51.7095 108.479 52.8762 108.152 54.1642 108.152C55.2655 108.152 56.2269 108.376 57.0482 108.824C57.8882 109.272 58.5322 109.86 58.9802 110.588V108.376H63.7682V124H58.9802V121.788C58.5135 122.516 57.8602 123.104 57.0202 123.552C56.1989 124 55.2375 124.224 54.1362 124.224C52.8669 124.224 51.7095 123.897 50.6642 123.244C49.6189 122.572 48.7882 121.629 48.1722 120.416C47.5749 119.184 47.2762 117.765 47.2762 116.16ZM58.9802 116.188C58.9802 114.993 58.6442 114.051 57.9722 113.36C57.3189 112.669 56.5162 112.324 55.5642 112.324C54.6122 112.324 53.8002 112.669 53.1282 113.36C52.4749 114.032 52.1482 114.965 52.1482 116.16C52.1482 117.355 52.4749 118.307 53.1282 119.016C53.8002 119.707 54.6122 120.052 55.5642 120.052C56.5162 120.052 57.3189 119.707 57.9722 119.016C58.6442 118.325 58.9802 117.383 58.9802 116.188ZM76.4721 124L73.4761 119.66L70.9561 124H65.7761L70.9281 116.02L65.6361 108.376H71.0121L74.0081 112.688L76.5281 108.376H81.7081L76.4721 116.244L81.8481 124H76.4721ZM86.101 106.752C85.261 106.752 84.5704 106.509 84.029 106.024C83.5064 105.52 83.245 104.904 83.245 104.176C83.245 103.429 83.5064 102.813 84.029 102.328C84.5704 101.824 85.261 101.572 86.101 101.572C86.9224 101.572 87.5944 101.824 88.117 102.328C88.6584 102.813 88.929 103.429 88.929 104.176C88.929 104.904 88.6584 105.52 88.117 106.024C87.5944 106.509 86.9224 106.752 86.101 106.752ZM88.481 108.376V124H83.693V108.376H88.481ZM111.887 108.208C113.828 108.208 115.368 108.796 116.507 109.972C117.664 111.148 118.243 112.781 118.243 114.872V124H113.483V115.516C113.483 114.508 113.212 113.733 112.671 113.192C112.148 112.632 111.42 112.352 110.487 112.352C109.554 112.352 108.816 112.632 108.275 113.192C107.752 113.733 107.491 114.508 107.491 115.516V124H102.731V115.516C102.731 114.508 102.46 113.733 101.919 113.192C101.396 112.632 100.668 112.352 99.7348 112.352C98.8015 112.352 98.0642 112.632 97.5228 113.192C97.0002 113.733 96.7388 114.508 96.7388 115.516V124H91.9508V108.376H96.7388V110.336C97.2242 109.683 97.8588 109.169 98.6428 108.796C99.4268 108.404 100.314 108.208 101.303 108.208C102.479 108.208 103.524 108.46 104.439 108.964C105.372 109.468 106.1 110.187 106.623 111.12C107.164 110.261 107.902 109.561 108.835 109.02C109.768 108.479 110.786 108.208 111.887 108.208ZM123.999 106.752C123.159 106.752 122.469 106.509 121.927 106.024C121.405 105.52 121.143 104.904 121.143 104.176C121.143 103.429 121.405 102.813 121.927 102.328C122.469 101.824 123.159 101.572 123.999 101.572C124.821 101.572 125.493 101.824 126.015 102.328C126.557 102.813 126.827 103.429 126.827 104.176C126.827 104.904 126.557 105.52 126.015 106.024C125.493 106.509 124.821 106.752 123.999 106.752ZM126.379 108.376V124H121.591V108.376H126.379ZM134.329 120.052H141.105V124H128.981V120.192L135.477 112.324H129.037V108.376H140.965V112.184L134.329 120.052ZM158.468 115.936C158.468 116.384 158.44 116.851 158.384 117.336H147.548C147.623 118.307 147.931 119.053 148.472 119.576C149.032 120.08 149.713 120.332 150.516 120.332C151.711 120.332 152.541 119.828 153.008 118.82H158.104C157.843 119.847 157.367 120.771 156.676 121.592C156.004 122.413 155.155 123.057 154.128 123.524C153.101 123.991 151.953 124.224 150.684 124.224C149.153 124.224 147.791 123.897 146.596 123.244C145.401 122.591 144.468 121.657 143.796 120.444C143.124 119.231 142.788 117.812 142.788 116.188C142.788 114.564 143.115 113.145 143.768 111.932C144.44 110.719 145.373 109.785 146.568 109.132C147.763 108.479 149.135 108.152 150.684 108.152C152.196 108.152 153.54 108.469 154.716 109.104C155.892 109.739 156.807 110.644 157.46 111.82C158.132 112.996 158.468 114.368 158.468 115.936ZM153.568 114.676C153.568 113.855 153.288 113.201 152.728 112.716C152.168 112.231 151.468 111.988 150.628 111.988C149.825 111.988 149.144 112.221 148.584 112.688C148.043 113.155 147.707 113.817 147.576 114.676H153.568ZM171.715 110.588C172.182 109.86 172.826 109.272 173.647 108.824C174.469 108.376 175.43 108.152 176.531 108.152C177.819 108.152 178.986 108.479 180.031 109.132C181.077 109.785 181.898 110.719 182.495 111.932C183.111 113.145 183.419 114.555 183.419 116.16C183.419 117.765 183.111 119.184 182.495 120.416C181.898 121.629 181.077 122.572 180.031 123.244C178.986 123.897 177.819 124.224 176.531 124.224C175.449 124.224 174.487 124 173.647 123.552C172.826 123.104 172.182 122.525 171.715 121.816V131.448H166.927V108.376H171.715V110.588ZM178.547 116.16C178.547 114.965 178.211 114.032 177.539 113.36C176.886 112.669 176.074 112.324 175.103 112.324C174.151 112.324 173.339 112.669 172.667 113.36C172.014 114.051 171.687 114.993 171.687 116.188C171.687 117.383 172.014 118.325 172.667 119.016C173.339 119.707 174.151 120.052 175.103 120.052C176.055 120.052 176.867 119.707 177.539 119.016C178.211 118.307 178.547 117.355 178.547 116.16ZM190.719 110.98C191.279 110.121 191.979 109.449 192.819 108.964C193.659 108.46 194.593 108.208 195.619 108.208V113.276H194.303C193.109 113.276 192.213 113.537 191.615 114.06C191.018 114.564 190.719 115.46 190.719 116.748V124H185.931V108.376H190.719V110.98ZM205.02 124.224C203.489 124.224 202.108 123.897 200.876 123.244C199.663 122.591 198.701 121.657 197.992 120.444C197.301 119.231 196.956 117.812 196.956 116.188C196.956 114.583 197.311 113.173 198.02 111.96C198.729 110.728 199.7 109.785 200.932 109.132C202.164 108.479 203.545 108.152 205.076 108.152C206.607 108.152 207.988 108.479 209.22 109.132C210.452 109.785 211.423 110.728 212.132 111.96C212.841 113.173 213.196 114.583 213.196 116.188C213.196 117.793 212.832 119.212 212.104 120.444C211.395 121.657 210.415 122.591 209.164 123.244C207.932 123.897 206.551 124.224 205.02 124.224ZM205.02 120.08C205.935 120.08 206.709 119.744 207.344 119.072C207.997 118.4 208.324 117.439 208.324 116.188C208.324 114.937 208.007 113.976 207.372 113.304C206.756 112.632 205.991 112.296 205.076 112.296C204.143 112.296 203.368 112.632 202.752 113.304C202.136 113.957 201.828 114.919 201.828 116.188C201.828 117.439 202.127 118.4 202.724 119.072C203.34 119.744 204.105 120.08 205.02 120.08ZM214.784 116.16C214.784 114.555 215.083 113.145 215.68 111.932C216.296 110.719 217.127 109.785 218.172 109.132C219.217 108.479 220.384 108.152 221.672 108.152C222.699 108.152 223.632 108.367 224.472 108.796C225.331 109.225 226.003 109.804 226.488 110.532V103.28H231.276V124H226.488V121.76C226.04 122.507 225.396 123.104 224.556 123.552C223.735 124 222.773 124.224 221.672 124.224C220.384 124.224 219.217 123.897 218.172 123.244C217.127 122.572 216.296 121.629 215.68 120.416C215.083 119.184 214.784 117.765 214.784 116.16ZM226.488 116.188C226.488 114.993 226.152 114.051 225.48 113.36C224.827 112.669 224.024 112.324 223.072 112.324C222.12 112.324 221.308 112.669 220.636 113.36C219.983 114.032 219.656 114.965 219.656 116.16C219.656 117.355 219.983 118.307 220.636 119.016C221.308 119.707 222.12 120.052 223.072 120.052C224.024 120.052 224.827 119.707 225.48 119.016C226.152 118.325 226.488 117.383 226.488 116.188ZM250.168 108.376V124H245.38V121.872C244.895 122.563 244.232 123.123 243.392 123.552C242.571 123.963 241.656 124.168 240.648 124.168C239.453 124.168 238.399 123.907 237.484 123.384C236.569 122.843 235.86 122.068 235.356 121.06C234.852 120.052 234.6 118.867 234.6 117.504V108.376H239.36V116.86C239.36 117.905 239.631 118.717 240.172 119.296C240.713 119.875 241.441 120.164 242.356 120.164C243.289 120.164 244.027 119.875 244.568 119.296C245.109 118.717 245.38 117.905 245.38 116.86V108.376H250.168ZM252.655 116.188C252.655 114.564 252.982 113.145 253.635 111.932C254.307 110.719 255.231 109.785 256.407 109.132C257.602 108.479 258.964 108.152 260.495 108.152C262.455 108.152 264.088 108.665 265.395 109.692C266.72 110.719 267.588 112.165 267.999 114.032H262.903C262.474 112.837 261.643 112.24 260.411 112.24C259.534 112.24 258.834 112.585 258.311 113.276C257.788 113.948 257.527 114.919 257.527 116.188C257.527 117.457 257.788 118.437 258.311 119.128C258.834 119.8 259.534 120.136 260.411 120.136C261.643 120.136 262.474 119.539 262.903 118.344H267.999C267.588 120.173 266.72 121.611 265.395 122.656C264.07 123.701 262.436 124.224 260.495 124.224C258.964 124.224 257.602 123.897 256.407 123.244C255.231 122.591 254.307 121.657 253.635 120.444C252.982 119.231 252.655 117.812 252.655 116.188ZM279.268 119.94V124H276.832C275.096 124 273.743 123.58 272.772 122.74C271.802 121.881 271.316 120.491 271.316 118.568V112.352H269.412V108.376H271.316V104.568H276.104V108.376H279.24V112.352H276.104V118.624C276.104 119.091 276.216 119.427 276.44 119.632C276.664 119.837 277.038 119.94 277.56 119.94H279.268ZM284.343 106.752C283.503 106.752 282.813 106.509 282.271 106.024C281.749 105.52 281.487 104.904 281.487 104.176C281.487 103.429 281.749 102.813 282.271 102.328C282.813 101.824 283.503 101.572 284.343 101.572C285.165 101.572 285.837 101.824 286.359 102.328C286.901 102.813 287.171 103.429 287.171 104.176C287.171 104.904 286.901 105.52 286.359 106.024C285.837 106.509 285.165 106.752 284.343 106.752ZM286.723 108.376V124H281.935V108.376H286.723ZM297.221 119.52L300.609 108.376H305.705L300.161 124H294.253L288.709 108.376H293.833L297.221 119.52ZM310.128 106.752C309.288 106.752 308.598 106.509 308.056 106.024C307.534 105.52 307.272 104.904 307.272 104.176C307.272 103.429 307.534 102.813 308.056 102.328C308.598 101.824 309.288 101.572 310.128 101.572C310.95 101.572 311.622 101.824 312.144 102.328C312.686 102.813 312.956 103.429 312.956 104.176C312.956 104.904 312.686 105.52 312.144 106.024C311.622 106.509 310.95 106.752 310.128 106.752ZM312.508 108.376V124H307.72V108.376H312.508ZM324.686 119.94V124H322.25C320.514 124 319.161 123.58 318.19 122.74C317.22 121.881 316.734 120.491 316.734 118.568V112.352H314.83V108.376H316.734V104.568H321.522V108.376H324.658V112.352H321.522V118.624C321.522 119.091 321.634 119.427 321.858 119.632C322.082 119.837 322.456 119.94 322.978 119.94H324.686ZM343.313 108.376L333.513 131.42H328.361L331.945 123.468L325.589 108.376H330.937L334.549 118.148L338.133 108.376H343.313ZM347.285 124.224C346.445 124.224 345.754 123.981 345.213 123.496C344.69 122.992 344.429 122.376 344.429 121.648C344.429 120.901 344.69 120.276 345.213 119.772C345.754 119.268 346.445 119.016 347.285 119.016C348.106 119.016 348.778 119.268 349.301 119.772C349.842 120.276 350.113 120.901 350.113 121.648C350.113 122.376 349.842 122.992 349.301 123.496C348.778 123.981 348.106 124.224 347.285 124.224Z" fill="#1C013E"/>
<path d="M25.688 163.112C25.688 164.04 25.368 164.813 24.728 165.432C24.0987 166.04 23.1333 166.344 21.832 166.344H19.688V171H18.232V159.848H21.832C23.0907 159.848 24.0453 160.152 24.696 160.76C25.3573 161.368 25.688 162.152 25.688 163.112ZM21.832 165.144C22.6427 165.144 23.24 164.968 23.624 164.616C24.008 164.264 24.2 163.763 24.2 163.112C24.2 161.736 23.4107 161.048 21.832 161.048H19.688V165.144H21.832ZM35.4976 166.28C35.4976 166.557 35.4816 166.851 35.4496 167.16H28.4416C28.495 168.024 28.7883 168.701 29.3216 169.192C29.8656 169.672 30.5216 169.912 31.2896 169.912C31.919 169.912 32.4416 169.768 32.8576 169.48C33.2843 169.181 33.583 168.787 33.7536 168.296H35.3216C35.087 169.139 34.6176 169.827 33.9136 170.36C33.2096 170.883 32.335 171.144 31.2896 171.144C30.4576 171.144 29.711 170.957 29.0496 170.584C28.399 170.211 27.887 169.683 27.5136 169C27.1403 168.307 26.9536 167.507 26.9536 166.6C26.9536 165.693 27.135 164.899 27.4976 164.216C27.8603 163.533 28.367 163.011 29.0176 162.648C29.679 162.275 30.4363 162.088 31.2896 162.088C32.1216 162.088 32.8576 162.269 33.4976 162.632C34.1376 162.995 34.6283 163.496 34.9696 164.136C35.3216 164.765 35.4976 165.48 35.4976 166.28ZM33.9936 165.976C33.9936 165.421 33.871 164.947 33.6256 164.552C33.3803 164.147 33.0443 163.843 32.6176 163.64C32.2016 163.427 31.7376 163.32 31.2256 163.32C30.4896 163.32 29.8603 163.555 29.3376 164.024C28.8256 164.493 28.5323 165.144 28.4576 165.976H33.9936ZM38.8755 163.656C39.1315 163.155 39.4942 162.765 39.9635 162.488C40.4435 162.211 41.0248 162.072 41.7075 162.072V163.576H41.3235C39.6915 163.576 38.8755 164.461 38.8755 166.232V171H37.4195V162.232H38.8755V163.656ZM46.4923 171.144C45.8203 171.144 45.2176 171.032 44.6843 170.808C44.1509 170.573 43.7296 170.253 43.4203 169.848C43.1109 169.432 42.9403 168.957 42.9083 168.424H44.4123C44.4549 168.861 44.6576 169.219 45.0203 169.496C45.3936 169.773 45.8789 169.912 46.4763 169.912C47.0309 169.912 47.4683 169.789 47.7883 169.544C48.1083 169.299 48.2683 168.989 48.2683 168.616C48.2683 168.232 48.0976 167.949 47.7563 167.768C47.4149 167.576 46.8869 167.389 46.1723 167.208C45.5216 167.037 44.9883 166.867 44.5723 166.696C44.1669 166.515 43.8149 166.253 43.5163 165.912C43.2283 165.56 43.0843 165.101 43.0843 164.536C43.0843 164.088 43.2176 163.677 43.4843 163.304C43.7509 162.931 44.1296 162.637 44.6203 162.424C45.1109 162.2 45.6709 162.088 46.3003 162.088C47.2709 162.088 48.0549 162.333 48.6523 162.824C49.2496 163.315 49.5696 163.987 49.6123 164.84H48.1563C48.1243 164.381 47.9376 164.013 47.5963 163.736C47.2656 163.459 46.8176 163.32 46.2523 163.32C45.7296 163.32 45.3136 163.432 45.0043 163.656C44.6949 163.88 44.5403 164.173 44.5403 164.536C44.5403 164.824 44.6309 165.064 44.8123 165.256C45.0043 165.437 45.2389 165.587 45.5163 165.704C45.8043 165.811 46.1989 165.933 46.7003 166.072C47.3296 166.243 47.8416 166.413 48.2363 166.584C48.6309 166.744 48.9669 166.989 49.2443 167.32C49.5323 167.651 49.6816 168.083 49.6923 168.616C49.6923 169.096 49.5589 169.528 49.2923 169.912C49.0256 170.296 48.6469 170.6 48.1563 170.824C47.6763 171.037 47.1216 171.144 46.4923 171.144ZM55.5716 171.144C54.7503 171.144 54.0036 170.957 53.3316 170.584C52.6703 170.211 52.1476 169.683 51.7636 169C51.3903 168.307 51.2036 167.507 51.2036 166.6C51.2036 165.704 51.3956 164.915 51.7796 164.232C52.1743 163.539 52.7076 163.011 53.3796 162.648C54.0516 162.275 54.8036 162.088 55.6356 162.088C56.4676 162.088 57.2196 162.275 57.8916 162.648C58.5636 163.011 59.0916 163.533 59.4756 164.216C59.8703 164.899 60.0676 165.693 60.0676 166.6C60.0676 167.507 59.865 168.307 59.4596 169C59.065 169.683 58.5263 170.211 57.8436 170.584C57.161 170.957 56.4036 171.144 55.5716 171.144ZM55.5716 169.864C56.0943 169.864 56.585 169.741 57.0436 169.496C57.5023 169.251 57.8703 168.883 58.1476 168.392C58.4356 167.901 58.5796 167.304 58.5796 166.6C58.5796 165.896 58.441 165.299 58.1636 164.808C57.8863 164.317 57.5236 163.955 57.0756 163.72C56.6276 163.475 56.1423 163.352 55.6196 163.352C55.0863 163.352 54.5956 163.475 54.1476 163.72C53.7103 163.955 53.3583 164.317 53.0916 164.808C52.825 165.299 52.6916 165.896 52.6916 166.6C52.6916 167.315 52.8196 167.917 53.0756 168.408C53.3423 168.899 53.6943 169.267 54.1316 169.512C54.569 169.747 55.049 169.864 55.5716 169.864ZM66.254 162.072C67.3207 162.072 68.1847 162.397 68.846 163.048C69.5073 163.688 69.838 164.616 69.838 165.832V171H68.398V166.04C68.398 165.165 68.1793 164.499 67.742 164.04C67.3047 163.571 66.7073 163.336 65.95 163.336C65.182 163.336 64.5687 163.576 64.11 164.056C63.662 164.536 63.438 165.235 63.438 166.152V171H61.982V162.232H63.438V163.48C63.726 163.032 64.1153 162.685 64.606 162.44C65.1073 162.195 65.6567 162.072 66.254 162.072ZM71.6724 166.584C71.6724 165.688 71.8537 164.904 72.2164 164.232C72.579 163.549 73.075 163.021 73.7044 162.648C74.3444 162.275 75.0537 162.088 75.8324 162.088C76.6004 162.088 77.267 162.253 77.8324 162.584C78.3977 162.915 78.819 163.331 79.0964 163.832V162.232H80.5684V171H79.0964V169.368C78.8084 169.88 78.3764 170.307 77.8004 170.648C77.235 170.979 76.5737 171.144 75.8164 171.144C75.0377 171.144 74.3337 170.952 73.7044 170.568C73.075 170.184 72.579 169.645 72.2164 168.952C71.8537 168.259 71.6724 167.469 71.6724 166.584ZM79.0964 166.6C79.0964 165.939 78.963 165.363 78.6964 164.872C78.4297 164.381 78.067 164.008 77.6084 163.752C77.1604 163.485 76.6644 163.352 76.1204 163.352C75.5764 163.352 75.0804 163.48 74.6324 163.736C74.1844 163.992 73.827 164.365 73.5604 164.856C73.2937 165.347 73.1604 165.923 73.1604 166.584C73.1604 167.256 73.2937 167.843 73.5604 168.344C73.827 168.835 74.1844 169.213 74.6324 169.48C75.0804 169.736 75.5764 169.864 76.1204 169.864C76.6644 169.864 77.1604 169.736 77.6084 169.48C78.067 169.213 78.4297 168.835 78.6964 168.344C78.963 167.843 79.0964 167.261 79.0964 166.6ZM84.4849 159.16V171H83.0289V159.16H84.4849ZM92.688 163.848C92.976 163.347 93.4027 162.931 93.968 162.6C94.544 162.259 95.2107 162.088 95.968 162.088C96.7467 162.088 97.4507 162.275 98.08 162.648C98.72 163.021 99.2213 163.549 99.584 164.232C99.9467 164.904 100.128 165.688 100.128 166.584C100.128 167.469 99.9467 168.259 99.584 168.952C99.2213 169.645 98.72 170.184 98.08 170.568C97.4507 170.952 96.7467 171.144 95.968 171.144C95.2213 171.144 94.56 170.979 93.984 170.648C93.4187 170.307 92.9867 169.885 92.688 169.384V175.16H91.232V162.232H92.688V163.848ZM98.64 166.584C98.64 165.923 98.5067 165.347 98.24 164.856C97.9733 164.365 97.6107 163.992 97.152 163.736C96.704 163.48 96.208 163.352 95.664 163.352C95.1307 163.352 94.6347 163.485 94.176 163.752C93.728 164.008 93.3653 164.387 93.088 164.888C92.8213 165.379 92.688 165.949 92.688 166.6C92.688 167.261 92.8213 167.843 93.088 168.344C93.3653 168.835 93.728 169.213 94.176 169.48C94.6347 169.736 95.1307 169.864 95.664 169.864C96.208 169.864 96.704 169.736 97.152 169.48C97.6107 169.213 97.9733 168.835 98.24 168.344C98.5067 167.843 98.64 167.256 98.64 166.584ZM103.501 163.656C103.757 163.155 104.119 162.765 104.589 162.488C105.069 162.211 105.65 162.072 106.333 162.072V163.576H105.949C104.317 163.576 103.501 164.461 103.501 166.232V171H102.045V162.232H103.501V163.656ZM111.837 171.144C111.016 171.144 110.269 170.957 109.597 170.584C108.936 170.211 108.413 169.683 108.029 169C107.656 168.307 107.469 167.507 107.469 166.6C107.469 165.704 107.661 164.915 108.045 164.232C108.44 163.539 108.973 163.011 109.645 162.648C110.317 162.275 111.069 162.088 111.901 162.088C112.733 162.088 113.485 162.275 114.157 162.648C114.829 163.011 115.357 163.533 115.741 164.216C116.136 164.899 116.333 165.693 116.333 166.6C116.333 167.507 116.131 168.307 115.725 169C115.331 169.683 114.792 170.211 114.109 170.584C113.427 170.957 112.669 171.144 111.837 171.144ZM111.837 169.864C112.36 169.864 112.851 169.741 113.309 169.496C113.768 169.251 114.136 168.883 114.413 168.392C114.701 167.901 114.845 167.304 114.845 166.6C114.845 165.896 114.707 165.299 114.429 164.808C114.152 164.317 113.789 163.955 113.341 163.72C112.893 163.475 112.408 163.352 111.885 163.352C111.352 163.352 110.861 163.475 110.413 163.72C109.976 163.955 109.624 164.317 109.357 164.808C109.091 165.299 108.957 165.896 108.957 166.6C108.957 167.315 109.085 167.917 109.341 168.408C109.608 168.899 109.96 169.267 110.397 169.512C110.835 169.747 111.315 169.864 111.837 169.864ZM117.704 166.584C117.704 165.688 117.885 164.904 118.248 164.232C118.61 163.549 119.106 163.021 119.736 162.648C120.376 162.275 121.09 162.088 121.88 162.088C122.562 162.088 123.197 162.248 123.784 162.568C124.37 162.877 124.818 163.288 125.128 163.8V159.16H126.6V171H125.128V169.352C124.84 169.875 124.413 170.307 123.848 170.648C123.282 170.979 122.621 171.144 121.864 171.144C121.085 171.144 120.376 170.952 119.736 170.568C119.106 170.184 118.61 169.645 118.248 168.952C117.885 168.259 117.704 167.469 117.704 166.584ZM125.128 166.6C125.128 165.939 124.994 165.363 124.728 164.872C124.461 164.381 124.098 164.008 123.64 163.752C123.192 163.485 122.696 163.352 122.152 163.352C121.608 163.352 121.112 163.48 120.664 163.736C120.216 163.992 119.858 164.365 119.592 164.856C119.325 165.347 119.192 165.923 119.192 166.584C119.192 167.256 119.325 167.843 119.592 168.344C119.858 168.835 120.216 169.213 120.664 169.48C121.112 169.736 121.608 169.864 122.152 169.864C122.696 169.864 123.192 169.736 123.64 169.48C124.098 169.213 124.461 168.835 124.728 168.344C124.994 167.843 125.128 167.261 125.128 166.6ZM136.836 162.232V171H135.38V169.704C135.103 170.152 134.713 170.504 134.212 170.76C133.721 171.005 133.177 171.128 132.58 171.128C131.897 171.128 131.284 170.989 130.74 170.712C130.196 170.424 129.764 169.997 129.444 169.432C129.135 168.867 128.98 168.179 128.98 167.368V162.232H130.42V167.176C130.42 168.04 130.639 168.707 131.076 169.176C131.513 169.635 132.111 169.864 132.868 169.864C133.647 169.864 134.26 169.624 134.708 169.144C135.156 168.664 135.38 167.965 135.38 167.048V162.232H136.836ZM138.751 166.6C138.751 165.693 138.932 164.904 139.295 164.232C139.657 163.549 140.159 163.021 140.799 162.648C141.449 162.275 142.191 162.088 143.023 162.088C144.1 162.088 144.985 162.349 145.679 162.872C146.383 163.395 146.847 164.12 147.071 165.048H145.503C145.353 164.515 145.06 164.093 144.623 163.784C144.196 163.475 143.663 163.32 143.023 163.32C142.191 163.32 141.519 163.608 141.007 164.184C140.495 164.749 140.239 165.555 140.239 166.6C140.239 167.656 140.495 168.472 141.007 169.048C141.519 169.624 142.191 169.912 143.023 169.912C143.663 169.912 144.196 169.763 144.623 169.464C145.049 169.165 145.343 168.739 145.503 168.184H147.071C146.836 169.08 146.367 169.8 145.663 170.344C144.959 170.877 144.079 171.144 143.023 171.144C142.191 171.144 141.449 170.957 140.799 170.584C140.159 170.211 139.657 169.683 139.295 169C138.932 168.317 138.751 167.517 138.751 166.6ZM150.789 163.432V168.6C150.789 169.027 150.88 169.331 151.061 169.512C151.243 169.683 151.557 169.768 152.005 169.768H153.077V171H151.765C150.955 171 150.347 170.813 149.941 170.44C149.536 170.067 149.333 169.453 149.333 168.6V163.432H148.197V162.232H149.333V160.024H150.789V162.232H153.077V163.432H150.789ZM155.593 160.808C155.316 160.808 155.081 160.712 154.889 160.52C154.697 160.328 154.601 160.093 154.601 159.816C154.601 159.539 154.697 159.304 154.889 159.112C155.081 158.92 155.316 158.824 155.593 158.824C155.86 158.824 156.084 158.92 156.265 159.112C156.457 159.304 156.553 159.539 156.553 159.816C156.553 160.093 156.457 160.328 156.265 160.52C156.084 160.712 155.86 160.808 155.593 160.808ZM156.297 162.232V171H154.841V162.232H156.297ZM162.043 169.656L164.763 162.232H166.315L162.875 171H161.179L157.739 162.232H159.307L162.043 169.656ZM168.5 160.808C168.222 160.808 167.988 160.712 167.796 160.52C167.604 160.328 167.508 160.093 167.508 159.816C167.508 159.539 167.604 159.304 167.796 159.112C167.988 158.92 168.222 158.824 168.5 158.824C168.766 158.824 168.99 158.92 169.172 159.112C169.364 159.304 169.46 159.539 169.46 159.816C169.46 160.093 169.364 160.328 169.172 160.52C168.99 160.712 168.766 160.808 168.5 160.808ZM169.204 162.232V171H167.748V162.232H169.204ZM173.461 163.432V168.6C173.461 169.027 173.552 169.331 173.733 169.512C173.914 169.683 174.229 169.768 174.677 169.768H175.749V171H174.437C173.626 171 173.018 170.813 172.613 170.44C172.208 170.067 172.005 169.453 172.005 168.6V163.432H170.869V162.232H172.005V160.024H173.461V162.232H175.749V163.432H173.461ZM185.065 162.232L179.785 175.128H178.281L180.009 170.904L176.473 162.232H178.089L180.841 169.336L183.561 162.232H185.065ZM192.251 163.656C192.507 163.155 192.869 162.765 193.339 162.488C193.819 162.211 194.4 162.072 195.083 162.072V163.576H194.699C193.067 163.576 192.251 164.461 192.251 166.232V171H190.795V162.232H192.251V163.656ZM204.763 166.28C204.763 166.557 204.747 166.851 204.715 167.16H197.707C197.761 168.024 198.054 168.701 198.587 169.192C199.131 169.672 199.787 169.912 200.555 169.912C201.185 169.912 201.707 169.768 202.123 169.48C202.55 169.181 202.849 168.787 203.019 168.296H204.587C204.353 169.139 203.883 169.827 203.179 170.36C202.475 170.883 201.601 171.144 200.555 171.144C199.723 171.144 198.977 170.957 198.315 170.584C197.665 170.211 197.153 169.683 196.779 169C196.406 168.307 196.219 167.507 196.219 166.6C196.219 165.693 196.401 164.899 196.763 164.216C197.126 163.533 197.633 163.011 198.283 162.648C198.945 162.275 199.702 162.088 200.555 162.088C201.387 162.088 202.123 162.269 202.763 162.632C203.403 162.995 203.894 163.496 204.235 164.136C204.587 164.765 204.763 165.48 204.763 166.28ZM203.259 165.976C203.259 165.421 203.137 164.947 202.891 164.552C202.646 164.147 202.31 163.843 201.883 163.64C201.467 163.427 201.003 163.32 200.491 163.32C199.755 163.32 199.126 163.555 198.603 164.024C198.091 164.493 197.798 165.144 197.723 165.976H203.259ZM206.141 166.6C206.141 165.693 206.322 164.904 206.685 164.232C207.048 163.549 207.549 163.021 208.189 162.648C208.84 162.275 209.581 162.088 210.413 162.088C211.49 162.088 212.376 162.349 213.069 162.872C213.773 163.395 214.237 164.12 214.461 165.048H212.893C212.744 164.515 212.45 164.093 212.013 163.784C211.586 163.475 211.053 163.32 210.413 163.32C209.581 163.32 208.909 163.608 208.397 164.184C207.885 164.749 207.629 165.555 207.629 166.6C207.629 167.656 207.885 168.472 208.397 169.048C208.909 169.624 209.581 169.912 210.413 169.912C211.053 169.912 211.586 169.763 212.013 169.464C212.44 169.165 212.733 168.739 212.893 168.184H214.461C214.226 169.08 213.757 169.8 213.053 170.344C212.349 170.877 211.469 171.144 210.413 171.144C209.581 171.144 208.84 170.957 208.189 170.584C207.549 170.211 207.048 169.683 206.685 169C206.322 168.317 206.141 167.517 206.141 166.6ZM220.228 171.144C219.407 171.144 218.66 170.957 217.988 170.584C217.327 170.211 216.804 169.683 216.42 169C216.047 168.307 215.86 167.507 215.86 166.6C215.86 165.704 216.052 164.915 216.436 164.232C216.831 163.539 217.364 163.011 218.036 162.648C218.708 162.275 219.46 162.088 220.292 162.088C221.124 162.088 221.876 162.275 222.548 162.648C223.22 163.011 223.748 163.533 224.132 164.216C224.527 164.899 224.724 165.693 224.724 166.6C224.724 167.507 224.521 168.307 224.116 169C223.721 169.683 223.183 170.211 222.5 170.584C221.817 170.957 221.06 171.144 220.228 171.144ZM220.228 169.864C220.751 169.864 221.241 169.741 221.7 169.496C222.159 169.251 222.527 168.883 222.804 168.392C223.092 167.901 223.236 167.304 223.236 166.6C223.236 165.896 223.097 165.299 222.82 164.808C222.543 164.317 222.18 163.955 221.732 163.72C221.284 163.475 220.799 163.352 220.276 163.352C219.743 163.352 219.252 163.475 218.804 163.72C218.367 163.955 218.015 164.317 217.748 164.808C217.481 165.299 217.348 165.896 217.348 166.6C217.348 167.315 217.476 167.917 217.732 168.408C217.999 168.899 218.351 169.267 218.788 169.512C219.225 169.747 219.705 169.864 220.228 169.864ZM237.182 162.072C237.865 162.072 238.473 162.216 239.006 162.504C239.54 162.781 239.961 163.203 240.27 163.768C240.58 164.333 240.734 165.021 240.734 165.832V171H239.294V166.04C239.294 165.165 239.076 164.499 238.638 164.04C238.212 163.571 237.63 163.336 236.894 163.336C236.137 163.336 235.534 163.581 235.086 164.072C234.638 164.552 234.414 165.251 234.414 166.168V171H232.974V166.04C232.974 165.165 232.756 164.499 232.318 164.04C231.892 163.571 231.31 163.336 230.574 163.336C229.817 163.336 229.214 163.581 228.766 164.072C228.318 164.552 228.094 165.251 228.094 166.168V171H226.638V162.232H228.094V163.496C228.382 163.037 228.766 162.685 229.246 162.44C229.737 162.195 230.276 162.072 230.862 162.072C231.598 162.072 232.249 162.237 232.814 162.568C233.38 162.899 233.801 163.384 234.078 164.024C234.324 163.405 234.729 162.925 235.294 162.584C235.86 162.243 236.489 162.072 237.182 162.072ZM253.667 162.072C254.349 162.072 254.957 162.216 255.491 162.504C256.024 162.781 256.445 163.203 256.755 163.768C257.064 164.333 257.219 165.021 257.219 165.832V171H255.779V166.04C255.779 165.165 255.56 164.499 255.123 164.04C254.696 163.571 254.115 163.336 253.379 163.336C252.621 163.336 252.019 163.581 251.571 164.072C251.123 164.552 250.899 165.251 250.899 166.168V171H249.459V166.04C249.459 165.165 249.24 164.499 248.803 164.04C248.376 163.571 247.795 163.336 247.059 163.336C246.301 163.336 245.699 163.581 245.251 164.072C244.803 164.552 244.579 165.251 244.579 166.168V171H243.123V162.232H244.579V163.496C244.867 163.037 245.251 162.685 245.731 162.44C246.221 162.195 246.76 162.072 247.347 162.072C248.083 162.072 248.733 162.237 249.299 162.568C249.864 162.899 250.285 163.384 250.563 164.024C250.808 163.405 251.213 162.925 251.779 162.584C252.344 162.243 252.973 162.072 253.667 162.072ZM267.607 166.28C267.607 166.557 267.591 166.851 267.559 167.16H260.551C260.604 168.024 260.898 168.701 261.431 169.192C261.975 169.672 262.631 169.912 263.399 169.912C264.028 169.912 264.551 169.768 264.967 169.48C265.394 169.181 265.692 168.787 265.863 168.296H267.431C267.196 169.139 266.727 169.827 266.023 170.36C265.319 170.883 264.444 171.144 263.399 171.144C262.567 171.144 261.82 170.957 261.159 170.584C260.508 170.211 259.996 169.683 259.623 169C259.25 168.307 259.063 167.507 259.063 166.6C259.063 165.693 259.244 164.899 259.607 164.216C259.97 163.533 260.476 163.011 261.127 162.648C261.788 162.275 262.546 162.088 263.399 162.088C264.231 162.088 264.967 162.269 265.607 162.632C266.247 162.995 266.738 163.496 267.079 164.136C267.431 164.765 267.607 165.48 267.607 166.28ZM266.103 165.976C266.103 165.421 265.98 164.947 265.735 164.552C265.49 164.147 265.154 163.843 264.727 163.64C264.311 163.427 263.847 163.32 263.335 163.32C262.599 163.32 261.97 163.555 261.447 164.024C260.935 164.493 260.642 165.144 260.567 165.976H266.103ZM273.801 162.072C274.868 162.072 275.732 162.397 276.393 163.048C277.054 163.688 277.385 164.616 277.385 165.832V171H275.945V166.04C275.945 165.165 275.726 164.499 275.289 164.04C274.852 163.571 274.254 163.336 273.497 163.336C272.729 163.336 272.116 163.576 271.657 164.056C271.209 164.536 270.985 165.235 270.985 166.152V171H269.529V162.232H270.985V163.48C271.273 163.032 271.662 162.685 272.153 162.44C272.654 162.195 273.204 162.072 273.801 162.072ZM279.219 166.584C279.219 165.688 279.401 164.904 279.763 164.232C280.126 163.549 280.622 163.021 281.251 162.648C281.891 162.275 282.606 162.088 283.395 162.088C284.078 162.088 284.713 162.248 285.299 162.568C285.886 162.877 286.334 163.288 286.643 163.8V159.16H288.115V171H286.643V169.352C286.355 169.875 285.929 170.307 285.363 170.648C284.798 170.979 284.137 171.144 283.379 171.144C282.601 171.144 281.891 170.952 281.251 170.568C280.622 170.184 280.126 169.645 279.763 168.952C279.401 168.259 279.219 167.469 279.219 166.584ZM286.643 166.6C286.643 165.939 286.51 165.363 286.243 164.872C285.977 164.381 285.614 164.008 285.155 163.752C284.707 163.485 284.211 163.352 283.667 163.352C283.123 163.352 282.627 163.48 282.179 163.736C281.731 163.992 281.374 164.365 281.107 164.856C280.841 165.347 280.707 165.923 280.707 166.584C280.707 167.256 280.841 167.843 281.107 168.344C281.374 168.835 281.731 169.213 282.179 169.48C282.627 169.736 283.123 169.864 283.667 169.864C284.211 169.864 284.707 169.736 285.155 169.48C285.614 169.213 285.977 168.835 286.243 168.344C286.51 167.843 286.643 167.261 286.643 166.6ZM290.032 166.584C290.032 165.688 290.213 164.904 290.576 164.232C290.938 163.549 291.434 163.021 292.064 162.648C292.704 162.275 293.413 162.088 294.192 162.088C294.96 162.088 295.626 162.253 296.192 162.584C296.757 162.915 297.178 163.331 297.456 163.832V162.232H298.928V171H297.456V169.368C297.168 169.88 296.736 170.307 296.16 170.648C295.594 170.979 294.933 171.144 294.176 171.144C293.397 171.144 292.693 170.952 292.064 170.568C291.434 170.184 290.938 169.645 290.576 168.952C290.213 168.259 290.032 167.469 290.032 166.584ZM297.456 166.6C297.456 165.939 297.322 165.363 297.056 164.872C296.789 164.381 296.426 164.008 295.968 163.752C295.52 163.485 295.024 163.352 294.48 163.352C293.936 163.352 293.44 163.48 292.992 163.736C292.544 163.992 292.186 164.365 291.92 164.856C291.653 165.347 291.52 165.923 291.52 166.584C291.52 167.256 291.653 167.843 291.92 168.344C292.186 168.835 292.544 169.213 292.992 169.48C293.44 169.736 293.936 169.864 294.48 169.864C295.024 169.864 295.52 169.736 295.968 169.48C296.426 169.213 296.789 168.835 297.056 168.344C297.322 167.843 297.456 167.261 297.456 166.6ZM303.164 163.432V168.6C303.164 169.027 303.255 169.331 303.436 169.512C303.618 169.683 303.932 169.768 304.38 169.768H305.452V171H304.14C303.33 171 302.722 170.813 302.316 170.44C301.911 170.067 301.708 169.453 301.708 168.6V163.432H300.572V162.232H301.708V160.024H303.164V162.232H305.452V163.432H303.164ZM307.968 160.808C307.691 160.808 307.456 160.712 307.264 160.52C307.072 160.328 306.976 160.093 306.976 159.816C306.976 159.539 307.072 159.304 307.264 159.112C307.456 158.92 307.691 158.824 307.968 158.824C308.235 158.824 308.459 158.92 308.64 159.112C308.832 159.304 308.928 159.539 308.928 159.816C308.928 160.093 308.832 160.328 308.64 160.52C308.459 160.712 308.235 160.808 307.968 160.808ZM308.672 162.232V171H307.216V162.232H308.672ZM314.978 171.144C314.157 171.144 313.41 170.957 312.738 170.584C312.077 170.211 311.554 169.683 311.17 169C310.797 168.307 310.61 167.507 310.61 166.6C310.61 165.704 310.802 164.915 311.186 164.232C311.581 163.539 312.114 163.011 312.786 162.648C313.458 162.275 314.21 162.088 315.042 162.088C315.874 162.088 316.626 162.275 317.298 162.648C317.97 163.011 318.498 163.533 318.882 164.216C319.277 164.899 319.474 165.693 319.474 166.6C319.474 167.507 319.271 168.307 318.866 169C318.471 169.683 317.933 170.211 317.25 170.584C316.567 170.957 315.81 171.144 314.978 171.144ZM314.978 169.864C315.501 169.864 315.991 169.741 316.45 169.496C316.909 169.251 317.277 168.883 317.554 168.392C317.842 167.901 317.986 167.304 317.986 166.6C317.986 165.896 317.847 165.299 317.57 164.808C317.293 164.317 316.93 163.955 316.482 163.72C316.034 163.475 315.549 163.352 315.026 163.352C314.493 163.352 314.002 163.475 313.554 163.72C313.117 163.955 312.765 164.317 312.498 164.808C312.231 165.299 312.098 165.896 312.098 166.6C312.098 167.315 312.226 167.917 312.482 168.408C312.749 168.899 313.101 169.267 313.538 169.512C313.975 169.747 314.455 169.864 314.978 169.864ZM325.66 162.072C326.727 162.072 327.591 162.397 328.252 163.048C328.914 163.688 329.244 164.616 329.244 165.832V171H327.804V166.04C327.804 165.165 327.586 164.499 327.148 164.04C326.711 163.571 326.114 163.336 325.356 163.336C324.588 163.336 323.975 163.576 323.516 164.056C323.068 164.536 322.844 165.235 322.844 166.152V171H321.388V162.232H322.844V163.48C323.132 163.032 323.522 162.685 324.012 162.44C324.514 162.195 325.063 162.072 325.66 162.072ZM334.727 171.144C334.055 171.144 333.452 171.032 332.919 170.808C332.385 170.573 331.964 170.253 331.655 169.848C331.345 169.432 331.175 168.957 331.143 168.424H332.647C332.689 168.861 332.892 169.219 333.255 169.496C333.628 169.773 334.113 169.912 334.711 169.912C335.265 169.912 335.703 169.789 336.023 169.544C336.343 169.299 336.503 168.989 336.503 168.616C336.503 168.232 336.332 167.949 335.991 167.768C335.649 167.576 335.121 167.389 334.407 167.208C333.756 167.037 333.223 166.867 332.807 166.696C332.401 166.515 332.049 166.253 331.751 165.912C331.463 165.56 331.319 165.101 331.319 164.536C331.319 164.088 331.452 163.677 331.719 163.304C331.985 162.931 332.364 162.637 332.855 162.424C333.345 162.2 333.905 162.088 334.535 162.088C335.505 162.088 336.289 162.333 336.887 162.824C337.484 163.315 337.804 163.987 337.847 164.84H336.391C336.359 164.381 336.172 164.013 335.831 163.736C335.5 163.459 335.052 163.32 334.487 163.32C333.964 163.32 333.548 163.432 333.239 163.656C332.929 163.88 332.775 164.173 332.775 164.536C332.775 164.824 332.865 165.064 333.047 165.256C333.239 165.437 333.473 165.587 333.751 165.704C334.039 165.811 334.433 165.933 334.935 166.072C335.564 166.243 336.076 166.413 336.471 166.584C336.865 166.744 337.201 166.989 337.479 167.32C337.767 167.651 337.916 168.083 337.927 168.616C337.927 169.096 337.793 169.528 337.527 169.912C337.26 170.296 336.881 170.6 336.391 170.824C335.911 171.037 335.356 171.144 334.727 171.144ZM19.688 187.864C19.9867 187.341 20.424 186.915 21 186.584C21.576 186.253 22.232 186.088 22.968 186.088C23.7573 186.088 24.4667 186.275 25.096 186.648C25.7253 187.021 26.2213 187.549 26.584 188.232C26.9467 188.904 27.128 189.688 27.128 190.584C27.128 191.469 26.9467 192.259 26.584 192.952C26.2213 193.645 25.72 194.184 25.08 194.568C24.4507 194.952 23.7467 195.144 22.968 195.144C22.2107 195.144 21.544 194.979 20.968 194.648C20.4027 194.317 19.976 193.896 19.688 193.384V195H18.232V183.16H19.688V187.864ZM25.64 190.584C25.64 189.923 25.5067 189.347 25.24 188.856C24.9733 188.365 24.6107 187.992 24.152 187.736C23.704 187.48 23.208 187.352 22.664 187.352C22.1307 187.352 21.6347 187.485 21.176 187.752C20.728 188.008 20.3653 188.387 20.088 188.888C19.8213 189.379 19.688 189.949 19.688 190.6C19.688 191.261 19.8213 191.843 20.088 192.344C20.3653 192.835 20.728 193.213 21.176 193.48C21.6347 193.736 22.1307 193.864 22.664 193.864C23.208 193.864 23.704 193.736 24.152 193.48C24.6107 193.213 24.9733 192.835 25.24 192.344C25.5067 191.843 25.64 191.256 25.64 190.584ZM28.5005 190.584C28.5005 189.688 28.6818 188.904 29.0445 188.232C29.4072 187.549 29.9032 187.021 30.5325 186.648C31.1725 186.275 31.8818 186.088 32.6605 186.088C33.4285 186.088 34.0952 186.253 34.6605 186.584C35.2258 186.915 35.6472 187.331 35.9245 187.832V186.232H37.3965V195H35.9245V193.368C35.6365 193.88 35.2045 194.307 34.6285 194.648C34.0632 194.979 33.4018 195.144 32.6445 195.144C31.8658 195.144 31.1618 194.952 30.5325 194.568C29.9032 194.184 29.4072 193.645 29.0445 192.952C28.6818 192.259 28.5005 191.469 28.5005 190.584ZM35.9245 190.6C35.9245 189.939 35.7912 189.363 35.5245 188.872C35.2578 188.381 34.8952 188.008 34.4365 187.752C33.9885 187.485 33.4925 187.352 32.9485 187.352C32.4045 187.352 31.9085 187.48 31.4605 187.736C31.0125 187.992 30.6552 188.365 30.3885 188.856C30.1218 189.347 29.9885 189.923 29.9885 190.584C29.9885 191.256 30.1218 191.843 30.3885 192.344C30.6552 192.835 31.0125 193.213 31.4605 193.48C31.9085 193.736 32.4045 193.864 32.9485 193.864C33.4925 193.864 33.9885 193.736 34.4365 193.48C34.8952 193.213 35.2578 192.835 35.5245 192.344C35.7912 191.843 35.9245 191.261 35.9245 190.6ZM42.961 195.144C42.289 195.144 41.6863 195.032 41.153 194.808C40.6197 194.573 40.1983 194.253 39.889 193.848C39.5797 193.432 39.409 192.957 39.377 192.424H40.881C40.9237 192.861 41.1263 193.219 41.489 193.496C41.8623 193.773 42.3477 193.912 42.945 193.912C43.4997 193.912 43.937 193.789 44.257 193.544C44.577 193.299 44.737 192.989 44.737 192.616C44.737 192.232 44.5663 191.949 44.225 191.768C43.8837 191.576 43.3557 191.389 42.641 191.208C41.9903 191.037 41.457 190.867 41.041 190.696C40.6357 190.515 40.2837 190.253 39.985 189.912C39.697 189.56 39.553 189.101 39.553 188.536C39.553 188.088 39.6863 187.677 39.953 187.304C40.2197 186.931 40.5983 186.637 41.089 186.424C41.5797 186.2 42.1397 186.088 42.769 186.088C43.7397 186.088 44.5237 186.333 45.121 186.824C45.7183 187.315 46.0383 187.987 46.081 188.84H44.625C44.593 188.381 44.4063 188.013 44.065 187.736C43.7343 187.459 43.2863 187.32 42.721 187.32C42.1983 187.32 41.7823 187.432 41.473 187.656C41.1637 187.88 41.009 188.173 41.009 188.536C41.009 188.824 41.0997 189.064 41.281 189.256C41.473 189.437 41.7077 189.587 41.985 189.704C42.273 189.811 42.6677 189.933 43.169 190.072C43.7983 190.243 44.3103 190.413 44.705 190.584C45.0997 190.744 45.4357 190.989 45.713 191.32C46.001 191.651 46.1503 192.083 46.161 192.616C46.161 193.096 46.0277 193.528 45.761 193.912C45.4943 194.296 45.1157 194.6 44.625 194.824C44.145 195.037 43.5903 195.144 42.961 195.144ZM56.2164 190.28C56.2164 190.557 56.2004 190.851 56.1684 191.16H49.1604C49.2137 192.024 49.507 192.701 50.0404 193.192C50.5844 193.672 51.2404 193.912 52.0084 193.912C52.6377 193.912 53.1604 193.768 53.5764 193.48C54.003 193.181 54.3017 192.787 54.4724 192.296H56.0404C55.8057 193.139 55.3364 193.827 54.6324 194.36C53.9284 194.883 53.0537 195.144 52.0084 195.144C51.1764 195.144 50.4297 194.957 49.7684 194.584C49.1177 194.211 48.6057 193.683 48.2324 193C47.859 192.307 47.6724 191.507 47.6724 190.6C47.6724 189.693 47.8537 188.899 48.2164 188.216C48.579 187.533 49.0857 187.011 49.7364 186.648C50.3977 186.275 51.155 186.088 52.0084 186.088C52.8404 186.088 53.5764 186.269 54.2164 186.632C54.8564 186.995 55.347 187.496 55.6884 188.136C56.0404 188.765 56.2164 189.48 56.2164 190.28ZM54.7124 189.976C54.7124 189.421 54.5897 188.947 54.3444 188.552C54.099 188.147 53.763 187.843 53.3364 187.64C52.9204 187.427 52.4564 187.32 51.9444 187.32C51.2084 187.32 50.579 187.555 50.0564 188.024C49.5444 188.493 49.251 189.144 49.1764 189.976H54.7124ZM57.5943 190.584C57.5943 189.688 57.7756 188.904 58.1383 188.232C58.5009 187.549 58.9969 187.021 59.6263 186.648C60.2663 186.275 60.9809 186.088 61.7703 186.088C62.4529 186.088 63.0876 186.248 63.6743 186.568C64.2609 186.877 64.7089 187.288 65.0183 187.8V183.16H66.4903V195H65.0183V193.352C64.7303 193.875 64.3036 194.307 63.7383 194.648C63.1729 194.979 62.5116 195.144 61.7543 195.144C60.9756 195.144 60.2663 194.952 59.6263 194.568C58.9969 194.184 58.5009 193.645 58.1383 192.952C57.7756 192.259 57.5943 191.469 57.5943 190.584ZM65.0183 190.6C65.0183 189.939 64.8849 189.363 64.6183 188.872C64.3516 188.381 63.9889 188.008 63.5303 187.752C63.0823 187.485 62.5863 187.352 62.0423 187.352C61.4983 187.352 61.0023 187.48 60.5543 187.736C60.1063 187.992 59.7489 188.365 59.4823 188.856C59.2156 189.347 59.0823 189.923 59.0823 190.584C59.0823 191.256 59.2156 191.843 59.4823 192.344C59.7489 192.835 60.1063 193.213 60.5543 193.48C61.0023 193.736 61.4983 193.864 62.0423 193.864C62.5863 193.864 63.0823 193.736 63.5303 193.48C63.9889 193.213 64.3516 192.835 64.6183 192.344C64.8849 191.843 65.0183 191.261 65.0183 190.6ZM77.0404 195.144C76.219 195.144 75.4724 194.957 74.8004 194.584C74.139 194.211 73.6164 193.683 73.2324 193C72.859 192.307 72.6724 191.507 72.6724 190.6C72.6724 189.704 72.8644 188.915 73.2484 188.232C73.643 187.539 74.1764 187.011 74.8484 186.648C75.5204 186.275 76.2724 186.088 77.1044 186.088C77.9364 186.088 78.6884 186.275 79.3604 186.648C80.0324 187.011 80.5604 187.533 80.9444 188.216C81.339 188.899 81.5364 189.693 81.5364 190.6C81.5364 191.507 81.3337 192.307 80.9284 193C80.5337 193.683 79.995 194.211 79.3124 194.584C78.6297 194.957 77.8724 195.144 77.0404 195.144ZM77.0404 193.864C77.563 193.864 78.0537 193.741 78.5124 193.496C78.971 193.251 79.339 192.883 79.6164 192.392C79.9044 191.901 80.0484 191.304 80.0484 190.6C80.0484 189.896 79.9097 189.299 79.6324 188.808C79.355 188.317 78.9924 187.955 78.5444 187.72C78.0964 187.475 77.611 187.352 77.0884 187.352C76.555 187.352 76.0644 187.475 75.6164 187.72C75.179 187.955 74.827 188.317 74.5604 188.808C74.2937 189.299 74.1604 189.896 74.1604 190.6C74.1604 191.315 74.2884 191.917 74.5444 192.408C74.811 192.899 75.163 193.267 75.6004 193.512C76.0377 193.747 76.5177 193.864 77.0404 193.864ZM87.7228 186.072C88.7894 186.072 89.6534 186.397 90.3148 187.048C90.9761 187.688 91.3068 188.616 91.3068 189.832V195H89.8668V190.04C89.8668 189.165 89.6481 188.499 89.2108 188.04C88.7734 187.571 88.1761 187.336 87.4188 187.336C86.6508 187.336 86.0374 187.576 85.5788 188.056C85.1308 188.536 84.9068 189.235 84.9068 190.152V195H83.4508V186.232H84.9068V187.48C85.1948 187.032 85.5841 186.685 86.0748 186.44C86.5761 186.195 87.1254 186.072 87.7228 186.072ZM105.503 186.232L100.223 199.128H98.7188L100.447 194.904L96.9108 186.232H98.5268L101.279 193.336L103.999 186.232H105.503ZM110.79 195.144C109.969 195.144 109.222 194.957 108.55 194.584C107.889 194.211 107.366 193.683 106.982 193C106.609 192.307 106.422 191.507 106.422 190.6C106.422 189.704 106.614 188.915 106.998 188.232C107.393 187.539 107.926 187.011 108.598 186.648C109.27 186.275 110.022 186.088 110.854 186.088C111.686 186.088 112.438 186.275 113.11 186.648C113.782 187.011 114.31 187.533 114.694 188.216C115.089 188.899 115.286 189.693 115.286 190.6C115.286 191.507 115.084 192.307 114.678 193C114.284 193.683 113.745 194.211 113.062 194.584C112.38 194.957 111.622 195.144 110.79 195.144ZM110.79 193.864C111.313 193.864 111.804 193.741 112.262 193.496C112.721 193.251 113.089 192.883 113.366 192.392C113.654 191.901 113.798 191.304 113.798 190.6C113.798 189.896 113.66 189.299 113.382 188.808C113.105 188.317 112.742 187.955 112.294 187.72C111.846 187.475 111.361 187.352 110.838 187.352C110.305 187.352 109.814 187.475 109.366 187.72C108.929 187.955 108.577 188.317 108.31 188.808C108.044 189.299 107.91 189.896 107.91 190.6C107.91 191.315 108.038 191.917 108.294 192.408C108.561 192.899 108.913 193.267 109.35 193.512C109.788 193.747 110.268 193.864 110.79 193.864ZM124.977 186.232V195H123.521V193.704C123.243 194.152 122.854 194.504 122.353 194.76C121.862 195.005 121.318 195.128 120.721 195.128C120.038 195.128 119.425 194.989 118.881 194.712C118.337 194.424 117.905 193.997 117.585 193.432C117.275 192.867 117.121 192.179 117.121 191.368V186.232H118.561V191.176C118.561 192.04 118.779 192.707 119.217 193.176C119.654 193.635 120.251 193.864 121.009 193.864C121.787 193.864 122.401 193.624 122.849 193.144C123.297 192.664 123.521 191.965 123.521 191.048V186.232H124.977ZM128.891 187.656C129.147 187.155 129.51 186.765 129.979 186.488C130.459 186.211 131.04 186.072 131.723 186.072V187.576H131.339C129.707 187.576 128.891 188.461 128.891 190.232V195H127.435V186.232H128.891V187.656ZM137.126 190.584C137.126 189.688 137.307 188.904 137.67 188.232C138.032 187.549 138.528 187.021 139.158 186.648C139.798 186.275 140.507 186.088 141.286 186.088C142.054 186.088 142.72 186.253 143.286 186.584C143.851 186.915 144.272 187.331 144.55 187.832V186.232H146.022V195H144.55V193.368C144.262 193.88 143.83 194.307 143.254 194.648C142.688 194.979 142.027 195.144 141.27 195.144C140.491 195.144 139.787 194.952 139.158 194.568C138.528 194.184 138.032 193.645 137.67 192.952C137.307 192.259 137.126 191.469 137.126 190.584ZM144.55 190.6C144.55 189.939 144.416 189.363 144.15 188.872C143.883 188.381 143.52 188.008 143.062 187.752C142.614 187.485 142.118 187.352 141.574 187.352C141.03 187.352 140.534 187.48 140.086 187.736C139.638 187.992 139.28 188.365 139.014 188.856C138.747 189.347 138.614 189.923 138.614 190.584C138.614 191.256 138.747 191.843 139.014 192.344C139.28 192.835 139.638 193.213 140.086 193.48C140.534 193.736 141.03 193.864 141.574 193.864C142.118 193.864 142.614 193.736 143.062 193.48C143.52 193.213 143.883 192.835 144.15 192.344C144.416 191.843 144.55 191.261 144.55 190.6ZM147.938 190.6C147.938 189.693 148.119 188.904 148.482 188.232C148.845 187.549 149.346 187.021 149.986 186.648C150.637 186.275 151.378 186.088 152.21 186.088C153.287 186.088 154.173 186.349 154.866 186.872C155.57 187.395 156.034 188.12 156.258 189.048H154.69C154.541 188.515 154.247 188.093 153.81 187.784C153.383 187.475 152.85 187.32 152.21 187.32C151.378 187.32 150.706 187.608 150.194 188.184C149.682 188.749 149.426 189.555 149.426 190.6C149.426 191.656 149.682 192.472 150.194 193.048C150.706 193.624 151.378 193.912 152.21 193.912C152.85 193.912 153.383 193.763 153.81 193.464C154.237 193.165 154.53 192.739 154.69 192.184H156.258C156.023 193.08 155.554 193.8 154.85 194.344C154.146 194.877 153.266 195.144 152.21 195.144C151.378 195.144 150.637 194.957 149.986 194.584C149.346 194.211 148.845 193.683 148.482 193C148.119 192.317 147.938 191.517 147.938 190.6ZM159.977 187.432V192.6C159.977 193.027 160.067 193.331 160.249 193.512C160.43 193.683 160.745 193.768 161.193 193.768H162.265V195H160.953C160.142 195 159.534 194.813 159.129 194.44C158.723 194.067 158.521 193.453 158.521 192.6V187.432H157.385V186.232H158.521V184.024H159.977V186.232H162.265V187.432H159.977ZM164.781 184.808C164.504 184.808 164.269 184.712 164.077 184.52C163.885 184.328 163.789 184.093 163.789 183.816C163.789 183.539 163.885 183.304 164.077 183.112C164.269 182.92 164.504 182.824 164.781 182.824C165.048 182.824 165.272 182.92 165.453 183.112C165.645 183.304 165.741 183.539 165.741 183.816C165.741 184.093 165.645 184.328 165.453 184.52C165.272 184.712 165.048 184.808 164.781 184.808ZM165.485 186.232V195H164.029V186.232H165.485ZM171.23 193.656L173.95 186.232H175.502L172.062 195H170.366L166.926 186.232H168.494L171.23 193.656ZM177.687 184.808C177.41 184.808 177.175 184.712 176.983 184.52C176.791 184.328 176.695 184.093 176.695 183.816C176.695 183.539 176.791 183.304 176.983 183.112C177.175 182.92 177.41 182.824 177.687 182.824C177.954 182.824 178.178 182.92 178.359 183.112C178.551 183.304 178.647 183.539 178.647 183.816C178.647 184.093 178.551 184.328 178.359 184.52C178.178 184.712 177.954 184.808 177.687 184.808ZM178.391 186.232V195H176.935V186.232H178.391ZM182.649 187.432V192.6C182.649 193.027 182.739 193.331 182.921 193.512C183.102 193.683 183.417 193.768 183.865 193.768H184.937V195H183.625C182.814 195 182.206 194.813 181.801 194.44C181.395 194.067 181.193 193.453 181.193 192.6V187.432H180.057V186.232H181.193V184.024H182.649V186.232H184.937V187.432H182.649ZM194.253 186.232L188.973 199.128H187.469L189.197 194.904L185.661 186.232H187.277L190.029 193.336L192.749 186.232H194.253ZM199.438 190.584C199.438 189.688 199.619 188.904 199.982 188.232C200.345 187.549 200.841 187.021 201.47 186.648C202.11 186.275 202.819 186.088 203.598 186.088C204.366 186.088 205.033 186.253 205.598 186.584C206.163 186.915 206.585 187.331 206.862 187.832V186.232H208.334V195H206.862V193.368C206.574 193.88 206.142 194.307 205.566 194.648C205.001 194.979 204.339 195.144 203.582 195.144C202.803 195.144 202.099 194.952 201.47 194.568C200.841 194.184 200.345 193.645 199.982 192.952C199.619 192.259 199.438 191.469 199.438 190.584ZM206.862 190.6C206.862 189.939 206.729 189.363 206.462 188.872C206.195 188.381 205.833 188.008 205.374 187.752C204.926 187.485 204.43 187.352 203.886 187.352C203.342 187.352 202.846 187.48 202.398 187.736C201.95 187.992 201.593 188.365 201.326 188.856C201.059 189.347 200.926 189.923 200.926 190.584C200.926 191.256 201.059 191.843 201.326 192.344C201.593 192.835 201.95 193.213 202.398 193.48C202.846 193.736 203.342 193.864 203.886 193.864C204.43 193.864 204.926 193.736 205.374 193.48C205.833 193.213 206.195 192.835 206.462 192.344C206.729 191.843 206.862 191.261 206.862 190.6ZM215.067 186.072C216.133 186.072 216.997 186.397 217.659 187.048C218.32 187.688 218.651 188.616 218.651 189.832V195H217.211V190.04C217.211 189.165 216.992 188.499 216.555 188.04C216.117 187.571 215.52 187.336 214.763 187.336C213.995 187.336 213.381 187.576 212.923 188.056C212.475 188.536 212.251 189.235 212.251 190.152V195H210.795V186.232H212.251V187.48C212.539 187.032 212.928 186.685 213.419 186.44C213.92 186.195 214.469 186.072 215.067 186.072ZM220.485 190.584C220.485 189.688 220.666 188.904 221.029 188.232C221.392 187.549 221.888 187.021 222.517 186.648C223.157 186.275 223.872 186.088 224.661 186.088C225.344 186.088 225.978 186.248 226.565 186.568C227.152 186.877 227.6 187.288 227.909 187.8V183.16H229.381V195H227.909V193.352C227.621 193.875 227.194 194.307 226.629 194.648C226.064 194.979 225.402 195.144 224.645 195.144C223.866 195.144 223.157 194.952 222.517 194.568C221.888 194.184 221.392 193.645 221.029 192.952C220.666 192.259 220.485 191.469 220.485 190.584ZM227.909 190.6C227.909 189.939 227.776 189.363 227.509 188.872C227.242 188.381 226.88 188.008 226.421 187.752C225.973 187.485 225.477 187.352 224.933 187.352C224.389 187.352 223.893 187.48 223.445 187.736C222.997 187.992 222.64 188.365 222.373 188.856C222.106 189.347 221.973 189.923 221.973 190.584C221.973 191.256 222.106 191.843 222.373 192.344C222.64 192.835 222.997 193.213 223.445 193.48C223.893 193.736 224.389 193.864 224.933 193.864C225.477 193.864 225.973 193.736 226.421 193.48C226.88 193.213 227.242 192.835 227.509 192.344C227.776 191.843 227.909 191.261 227.909 190.6ZM243.883 186.232V195H242.427V193.704C242.15 194.152 241.76 194.504 241.259 194.76C240.768 195.005 240.224 195.128 239.627 195.128C238.944 195.128 238.331 194.989 237.787 194.712C237.243 194.424 236.811 193.997 236.491 193.432C236.182 192.867 236.027 192.179 236.027 191.368V186.232H237.467V191.176C237.467 192.04 237.686 192.707 238.123 193.176C238.56 193.635 239.158 193.864 239.915 193.864C240.694 193.864 241.307 193.624 241.755 193.144C242.203 192.664 242.427 191.965 242.427 191.048V186.232H243.883ZM250.613 186.072C251.68 186.072 252.544 186.397 253.205 187.048C253.867 187.688 254.197 188.616 254.197 189.832V195H252.757V190.04C252.757 189.165 252.539 188.499 252.101 188.04C251.664 187.571 251.067 187.336 250.309 187.336C249.541 187.336 248.928 187.576 248.469 188.056C248.021 188.536 247.797 189.235 247.797 190.152V195H246.341V186.232H247.797V187.48C248.085 187.032 248.475 186.685 248.965 186.44C249.467 186.195 250.016 186.072 250.613 186.072ZM257.328 184.808C257.05 184.808 256.816 184.712 256.624 184.52C256.432 184.328 256.336 184.093 256.336 183.816C256.336 183.539 256.432 183.304 256.624 183.112C256.816 182.92 257.05 182.824 257.328 182.824C257.594 182.824 257.818 182.92 258 183.112C258.192 183.304 258.288 183.539 258.288 183.816C258.288 184.093 258.192 184.328 258 184.52C257.818 184.712 257.594 184.808 257.328 184.808ZM258.032 186.232V195H256.576V186.232H258.032ZM259.969 190.584C259.969 189.688 260.151 188.904 260.513 188.232C260.876 187.549 261.372 187.021 262.001 186.648C262.641 186.275 263.356 186.088 264.145 186.088C264.903 186.088 265.564 186.259 266.129 186.6C266.705 186.931 267.127 187.341 267.393 187.832V186.232H268.865V199.16H267.393V193.384C267.116 193.875 266.689 194.291 266.113 194.632C265.537 194.973 264.865 195.144 264.097 195.144C263.329 195.144 262.631 194.952 262.001 194.568C261.372 194.184 260.876 193.645 260.513 192.952C260.151 192.259 259.969 191.469 259.969 190.584ZM267.393 190.6C267.393 189.939 267.26 189.363 266.993 188.872C266.727 188.381 266.364 188.008 265.905 187.752C265.457 187.485 264.961 187.352 264.417 187.352C263.873 187.352 263.377 187.48 262.929 187.736C262.481 187.992 262.124 188.365 261.857 188.856C261.591 189.347 261.457 189.923 261.457 190.584C261.457 191.256 261.591 191.843 261.857 192.344C262.124 192.835 262.481 193.213 262.929 193.48C263.377 193.736 263.873 193.864 264.417 193.864C264.961 193.864 265.457 193.736 265.905 193.48C266.364 193.213 266.727 192.835 266.993 192.344C267.26 191.843 267.393 191.261 267.393 190.6ZM279.102 186.232V195H277.646V193.704C277.368 194.152 276.979 194.504 276.478 194.76C275.987 195.005 275.443 195.128 274.846 195.128C274.163 195.128 273.55 194.989 273.006 194.712C272.462 194.424 272.03 193.997 271.71 193.432C271.4 192.867 271.246 192.179 271.246 191.368V186.232H272.686V191.176C272.686 192.04 272.904 192.707 273.342 193.176C273.779 193.635 274.376 193.864 275.134 193.864C275.912 193.864 276.526 193.624 276.974 193.144C277.422 192.664 277.646 191.965 277.646 191.048V186.232H279.102ZM289.56 190.28C289.56 190.557 289.544 190.851 289.512 191.16H282.504C282.557 192.024 282.851 192.701 283.384 193.192C283.928 193.672 284.584 193.912 285.352 193.912C285.981 193.912 286.504 193.768 286.92 193.48C287.347 193.181 287.645 192.787 287.816 192.296H289.384C289.149 193.139 288.68 193.827 287.976 194.36C287.272 194.883 286.397 195.144 285.352 195.144C284.52 195.144 283.773 194.957 283.112 194.584C282.461 194.211 281.949 193.683 281.576 193C281.203 192.307 281.016 191.507 281.016 190.6C281.016 189.693 281.197 188.899 281.56 188.216C281.923 187.533 282.429 187.011 283.08 186.648C283.741 186.275 284.499 186.088 285.352 186.088C286.184 186.088 286.92 186.269 287.56 186.632C288.2 186.995 288.691 187.496 289.032 188.136C289.384 188.765 289.56 189.48 289.56 190.28ZM288.056 189.976C288.056 189.421 287.933 188.947 287.688 188.552C287.443 188.147 287.107 187.843 286.68 187.64C286.264 187.427 285.8 187.32 285.288 187.32C284.552 187.32 283.923 187.555 283.4 188.024C282.888 188.493 282.595 189.144 282.52 189.976H288.056ZM297.524 187.432V192.6C297.524 193.027 297.614 193.331 297.796 193.512C297.977 193.683 298.292 193.768 298.74 193.768H299.812V195H298.5C297.689 195 297.081 194.813 296.676 194.44C296.27 194.067 296.068 193.453 296.068 192.6V187.432H294.932V186.232H296.068V184.024H297.524V186.232H299.812V187.432H297.524ZM303.032 187.656C303.288 187.155 303.65 186.765 304.12 186.488C304.6 186.211 305.181 186.072 305.864 186.072V187.576H305.48C303.848 187.576 303.032 188.461 303.032 190.232V195H301.576V186.232H303.032V187.656ZM307.001 190.584C307.001 189.688 307.182 188.904 307.545 188.232C307.907 187.549 308.403 187.021 309.033 186.648C309.673 186.275 310.382 186.088 311.161 186.088C311.929 186.088 312.595 186.253 313.161 186.584C313.726 186.915 314.147 187.331 314.425 187.832V186.232H315.897V195H314.425V193.368C314.137 193.88 313.705 194.307 313.129 194.648C312.563 194.979 311.902 195.144 311.145 195.144C310.366 195.144 309.662 194.952 309.033 194.568C308.403 194.184 307.907 193.645 307.545 192.952C307.182 192.259 307.001 191.469 307.001 190.584ZM314.425 190.6C314.425 189.939 314.291 189.363 314.025 188.872C313.758 188.381 313.395 188.008 312.937 187.752C312.489 187.485 311.993 187.352 311.449 187.352C310.905 187.352 310.409 187.48 309.961 187.736C309.513 187.992 309.155 188.365 308.889 188.856C308.622 189.347 308.489 189.923 308.489 190.584C308.489 191.256 308.622 191.843 308.889 192.344C309.155 192.835 309.513 193.213 309.961 193.48C310.409 193.736 310.905 193.864 311.449 193.864C311.993 193.864 312.489 193.736 312.937 193.48C313.395 193.213 313.758 192.835 314.025 192.344C314.291 191.843 314.425 191.261 314.425 190.6ZM319.109 184.808C318.832 184.808 318.597 184.712 318.405 184.52C318.213 184.328 318.117 184.093 318.117 183.816C318.117 183.539 318.213 183.304 318.405 183.112C318.597 182.92 318.832 182.824 319.109 182.824C319.376 182.824 319.6 182.92 319.781 183.112C319.973 183.304 320.069 183.539 320.069 183.816C320.069 184.093 319.973 184.328 319.781 184.52C319.6 184.712 319.376 184.808 319.109 184.808ZM319.813 186.232V195H318.357V186.232H319.813ZM324.071 187.432V192.6C324.071 193.027 324.161 193.331 324.343 193.512C324.524 193.683 324.839 193.768 325.286 193.768H326.359V195H325.047C324.236 195 323.628 194.813 323.223 194.44C322.817 194.067 322.615 193.453 322.615 192.6V187.432H321.479V186.232H322.615V184.024H324.071V186.232H326.359V187.432H324.071ZM331.227 195.144C330.555 195.144 329.952 195.032 329.419 194.808C328.885 194.573 328.464 194.253 328.155 193.848C327.845 193.432 327.675 192.957 327.643 192.424H329.147C329.189 192.861 329.392 193.219 329.755 193.496C330.128 193.773 330.613 193.912 331.211 193.912C331.765 193.912 332.203 193.789 332.523 193.544C332.843 193.299 333.003 192.989 333.003 192.616C333.003 192.232 332.832 191.949 332.491 191.768C332.149 191.576 331.621 191.389 330.907 191.208C330.256 191.037 329.723 190.867 329.307 190.696C328.901 190.515 328.549 190.253 328.251 189.912C327.963 189.56 327.819 189.101 327.819 188.536C327.819 188.088 327.952 187.677 328.219 187.304C328.485 186.931 328.864 186.637 329.355 186.424C329.845 186.2 330.405 186.088 331.035 186.088C332.005 186.088 332.789 186.333 333.387 186.824C333.984 187.315 334.304 187.987 334.347 188.84H332.891C332.859 188.381 332.672 188.013 332.331 187.736C332 187.459 331.552 187.32 330.987 187.32C330.464 187.32 330.048 187.432 329.739 187.656C329.429 187.88 329.275 188.173 329.275 188.536C329.275 188.824 329.365 189.064 329.547 189.256C329.739 189.437 329.973 189.587 330.251 189.704C330.539 189.811 330.933 189.933 331.435 190.072C332.064 190.243 332.576 190.413 332.971 190.584C333.365 190.744 333.701 190.989 333.979 191.32C334.267 191.651 334.416 192.083 334.427 192.616C334.427 193.096 334.293 193.528 334.027 193.912C333.76 194.296 333.381 194.6 332.891 194.824C332.411 195.037 331.856 195.144 331.227 195.144ZM336.946 195.096C336.669 195.096 336.434 195 336.242 194.808C336.05 194.616 335.954 194.381 335.954 194.104C335.954 193.827 336.05 193.592 336.242 193.4C336.434 193.208 336.669 193.112 336.946 193.112C337.213 193.112 337.437 193.208 337.618 193.4C337.81 193.592 337.906 193.827 337.906 194.104C337.906 194.381 337.81 194.616 337.618 194.808C337.437 195 337.213 195.096 336.946 195.096Z" fill="#1A0062"/>
<path d="M290.247 2.42919C290.125 6.09855 290.124 21.0341 291.102 51.4217L291.407 68.919L296.254 58.3328L301.424 66.2438L304.69 61.186L309.293 68.6068L311.956 61.0592L315.956 65.9902L314.839 1.99993L310.996 6.06761L308.132 2.117L303.731 6.19444L300.307 2.25358L295.347 6.34077L290.247 2.42919Z" fill="#E6CA3A" fill-opacity="0.66" stroke="#FEFEFD"/>
<g filter="url(#filter1_d_10_25)">
<circle cx="303.5" cy="18.5" r="7.5" fill="#050B43"/>
</g>
<path d="M60.2469 2.42919C60.1246 6.09855 60.1244 21.0341 61.102 51.4217L61.4075 68.919L66.2544 58.3328L71.4242 66.2438L74.6904 61.186L79.2926 68.6068L81.9562 61.0592L85.9559 65.9902L84.8389 1.99993L80.9963 6.06761L78.132 2.117L73.7305 6.19444L70.3072 2.25358L65.3468 6.34077L60.2469 2.42919Z" fill="#E6CA3A" fill-opacity="0.66" stroke="#FEFEFD"/>
<g filter="url(#filter2_d_10_25)">
<circle cx="73.5" cy="18.5" r="7.5" fill="#050B43"/>
</g>
<defs>
<filter id="filter0_d_10_25" x="0" y="35" width="383" height="228" filterUnits="userSpaceOnUse" color-interpolation-filters="sRGB">
<feFlood flood-opacity="0" result="BackgroundImageFix"/>
<feColorMatrix in="SourceAlpha" type="matrix" values="0 0 0 0 0 0 0 0 0 0 0 0 0 0 0 0 0 0 127 0" result="hardAlpha"/>
<feOffset dx="8" dy="12"/>
<feGaussianBlur stdDeviation="3"/>
<feComposite in2="hardAlpha" operator="out"/>
<feColorMatrix type="matrix" values="0 0 0 0 0.0152778 0 0 0 0 0.161583 0 0 0 0 0.333333 0 0 0 0.42 0"/>
<feBlend mode="normal" in2="BackgroundImageFix" result="effect1_dropShadow_10_25"/>
<feBlend mode="normal" in="SourceGraphic" in2="effect1_dropShadow_10_25" result="shape"/>
</filter>
<filter id="filter1_d_10_25" x="289" y="5" width="27" height="27" filterUnits="userSpaceOnUse" color-interpolation-filters="sRGB">
<feFlood flood-opacity="0" result="BackgroundImageFix"/>
<feColorMatrix in="SourceAlpha" type="matrix" values="0 0 0 0 0 0 0 0 0 0 0 0 0 0 0 0 0 0 127 0" result="hardAlpha"/>
<feOffset dx="-1"/>
<feGaussianBlur stdDeviation="3"/>
<feComposite in2="hardAlpha" operator="out"/>
<feColorMatrix type="matrix" values="0 0 0 0 0 0 0 0 0 0 0 0 0 0 0 0 0 0 0.54 0"/>
<feBlend mode="normal" in2="BackgroundImageFix" result="effect1_dropShadow_10_25"/>
<feBlend mode="normal" in="SourceGraphic" in2="effect1_dropShadow_10_25" result="shape"/>
</filter>
<filter id="filter2_d_10_25" x="59" y="5" width="27" height="27" filterUnits="userSpaceOnUse" color-interpolation-filters="sRGB">
<feFlood flood-opacity="0" result="BackgroundImageFix"/>
<feColorMatrix in="SourceAlpha" type="matrix" values="0 0 0 0 0 0 0 0 0 0 0 0 0 0 0 0 0 0 127 0" result="hardAlpha"/>
<feOffset dx="-1"/>
<feGaussianBlur stdDeviation="3"/>
<feComposite in2="hardAlpha" operator="out"/>
<feColorMatrix type="matrix" values="0 0 0 0 0 0 0 0 0 0 0 0 0 0 0 0 0 0 0.54 0"/>
<feBlend mode="normal" in2="BackgroundImageFix" result="effect1_dropShadow_10_25"/>
<feBlend mode="normal" in="SourceGraphic" in2="effect1_dropShadow_10_25" result="shape"/>
</filter>
</defs>
</svg>
