<svg width="383" height="263" viewBox="0 0 383 263" fill="none" xmlns="http://www.w3.org/2000/svg">
<g filter="url(#filter0_d_10_36)">
<rect y="35" width="369" height="210" rx="8" fill="#BD3FBF" fill-opacity="0.69" shape-rendering="crispEdges"/>
</g>
<path d="M46.1361 120.528H38.8001L37.6241 124H32.6121L39.7241 104.344H45.2681L52.3801 124H47.3121L46.1361 120.528ZM44.9041 116.832L42.4681 109.636L40.0601 116.832H44.9041ZM53.5926 116.16C53.5926 114.555 53.8913 113.145 54.4886 111.932C55.1046 110.719 55.9353 109.785 56.9806 109.132C58.0259 108.479 59.1926 108.152 60.4806 108.152C61.5073 108.152 62.4406 108.367 63.2806 108.796C64.1393 109.225 64.8113 109.804 65.2966 110.532V103.28H70.0846V124H65.2966V121.76C64.8486 122.507 64.2046 123.104 63.3646 123.552C62.5433 124 61.5819 124.224 60.4806 124.224C59.1926 124.224 58.0259 123.897 56.9806 123.244C55.9353 122.572 55.1046 121.629 54.4886 120.416C53.8913 119.184 53.5926 117.765 53.5926 116.16ZM65.2966 116.188C65.2966 114.993 64.9606 114.051 64.2886 113.36C63.6353 112.669 62.8326 112.324 61.8806 112.324C60.9286 112.324 60.1166 112.669 59.4446 113.36C58.7913 114.032 58.4646 114.965 58.4646 116.16C58.4646 117.355 58.7913 118.307 59.4446 119.016C60.1166 119.707 60.9286 120.052 61.8806 120.052C62.8326 120.052 63.6353 119.707 64.2886 119.016C64.9606 118.325 65.2966 117.383 65.2966 116.188ZM72.5965 116.16C72.5965 114.555 72.8952 113.145 73.4925 111.932C74.1085 110.719 74.9392 109.785 75.9845 109.132C77.0298 108.479 78.1965 108.152 79.4845 108.152C80.5112 108.152 81.4445 108.367 82.2845 108.796C83.1432 109.225 83.8152 109.804 84.3005 110.532V103.28H89.0885V124H84.3005V121.76C83.8525 122.507 83.2085 123.104 82.3685 123.552C81.5472 124 80.5858 124.224 79.4845 124.224C78.1965 124.224 77.0298 123.897 75.9845 123.244C74.9392 122.572 74.1085 121.629 73.4925 120.416C72.8952 119.184 72.5965 117.765 72.5965 116.16ZM84.3005 116.188C84.3005 114.993 83.9645 114.051 83.2925 113.36C82.6392 112.669 81.8365 112.324 80.8845 112.324C79.9325 112.324 79.1205 112.669 78.4485 113.36C77.7952 114.032 77.4685 114.965 77.4685 116.16C77.4685 117.355 77.7952 118.307 78.4485 119.016C79.1205 119.707 79.9325 120.052 80.8845 120.052C81.8365 120.052 82.6392 119.707 83.2925 119.016C83.9645 118.325 84.3005 117.383 84.3005 116.188ZM94.9604 106.752C94.1204 106.752 93.4297 106.509 92.8884 106.024C92.3657 105.52 92.1044 104.904 92.1044 104.176C92.1044 103.429 92.3657 102.813 92.8884 102.328C93.4297 101.824 94.1204 101.572 94.9604 101.572C95.7817 101.572 96.4537 101.824 96.9764 102.328C97.5177 102.813 97.7884 103.429 97.7884 104.176C97.7884 104.904 97.5177 105.52 96.9764 106.024C96.4537 106.509 95.7817 106.752 94.9604 106.752ZM97.3404 108.376V124H92.5524V108.376H97.3404ZM109.518 119.94V124H107.082C105.346 124 103.993 123.58 103.022 122.74C102.052 121.881 101.566 120.491 101.566 118.568V112.352H99.6622V108.376H101.566V104.568H106.354V108.376H109.49V112.352H106.354V118.624C106.354 119.091 106.466 119.427 106.69 119.632C106.914 119.837 107.288 119.94 107.81 119.94H109.518ZM114.593 106.752C113.753 106.752 113.063 106.509 112.521 106.024C111.999 105.52 111.737 104.904 111.737 104.176C111.737 103.429 111.999 102.813 112.521 102.328C113.063 101.824 113.753 101.572 114.593 101.572C115.415 101.572 116.087 101.824 116.609 102.328C117.151 102.813 117.421 103.429 117.421 104.176C117.421 104.904 117.151 105.52 116.609 106.024C116.087 106.509 115.415 106.752 114.593 106.752ZM116.973 108.376V124H112.185V108.376H116.973ZM127.555 124.224C126.024 124.224 124.643 123.897 123.411 123.244C122.198 122.591 121.236 121.657 120.527 120.444C119.836 119.231 119.491 117.812 119.491 116.188C119.491 114.583 119.846 113.173 120.555 111.96C121.264 110.728 122.235 109.785 123.467 109.132C124.699 108.479 126.08 108.152 127.611 108.152C129.142 108.152 130.523 108.479 131.755 109.132C132.987 109.785 133.958 110.728 134.667 111.96C135.376 113.173 135.731 114.583 135.731 116.188C135.731 117.793 135.367 119.212 134.639 120.444C133.93 121.657 132.95 122.591 131.699 123.244C130.467 123.897 129.086 124.224 127.555 124.224ZM127.555 120.08C128.47 120.08 129.244 119.744 129.879 119.072C130.532 118.4 130.859 117.439 130.859 116.188C130.859 114.937 130.542 113.976 129.907 113.304C129.291 112.632 128.526 112.296 127.611 112.296C126.678 112.296 125.903 112.632 125.287 113.304C124.671 113.957 124.363 114.919 124.363 116.188C124.363 117.439 124.662 118.4 125.259 119.072C125.875 119.744 126.64 120.08 127.555 120.08ZM147.791 108.208C149.62 108.208 151.076 108.805 152.159 110C153.26 111.176 153.811 112.8 153.811 114.872V124H149.051V115.516C149.051 114.471 148.78 113.659 148.239 113.08C147.698 112.501 146.97 112.212 146.055 112.212C145.14 112.212 144.412 112.501 143.871 113.08C143.33 113.659 143.059 114.471 143.059 115.516V124H138.271V108.376H143.059V110.448C143.544 109.757 144.198 109.216 145.019 108.824C145.84 108.413 146.764 108.208 147.791 108.208ZM156.186 116.16C156.186 114.555 156.485 113.145 157.082 111.932C157.698 110.719 158.529 109.785 159.574 109.132C160.62 108.479 161.786 108.152 163.074 108.152C164.176 108.152 165.137 108.376 165.958 108.824C166.798 109.272 167.442 109.86 167.89 110.588V108.376H172.678V124H167.89V121.788C167.424 122.516 166.77 123.104 165.93 123.552C165.109 124 164.148 124.224 163.046 124.224C161.777 124.224 160.62 123.897 159.574 123.244C158.529 122.572 157.698 121.629 157.082 120.416C156.485 119.184 156.186 117.765 156.186 116.16ZM167.89 116.188C167.89 114.993 167.554 114.051 166.882 113.36C166.229 112.669 165.426 112.324 164.474 112.324C163.522 112.324 162.71 112.669 162.038 113.36C161.385 114.032 161.058 114.965 161.058 116.16C161.058 117.355 161.385 118.307 162.038 119.016C162.71 119.707 163.522 120.052 164.474 120.052C165.426 120.052 166.229 119.707 166.882 119.016C167.554 118.325 167.89 117.383 167.89 116.188ZM180.93 103.28V124H176.142V103.28H180.93ZM195.122 110.98C195.682 110.121 196.382 109.449 197.222 108.964C198.062 108.46 198.995 108.208 200.022 108.208V113.276H198.706C197.511 113.276 196.615 113.537 196.018 114.06C195.42 114.564 195.122 115.46 195.122 116.748V124H190.334V108.376H195.122V110.98ZM217.038 115.936C217.038 116.384 217.01 116.851 216.954 117.336H206.118C206.193 118.307 206.501 119.053 207.042 119.576C207.602 120.08 208.284 120.332 209.086 120.332C210.281 120.332 211.112 119.828 211.578 118.82H216.674C216.413 119.847 215.937 120.771 215.246 121.592C214.574 122.413 213.725 123.057 212.698 123.524C211.672 123.991 210.524 124.224 209.254 124.224C207.724 124.224 206.361 123.897 205.166 123.244C203.972 122.591 203.038 121.657 202.366 120.444C201.694 119.231 201.358 117.812 201.358 116.188C201.358 114.564 201.685 113.145 202.338 111.932C203.01 110.719 203.944 109.785 205.138 109.132C206.333 108.479 207.705 108.152 209.254 108.152C210.766 108.152 212.11 108.469 213.286 109.104C214.462 109.739 215.377 110.644 216.03 111.82C216.702 112.996 217.038 114.368 217.038 115.936ZM212.138 114.676C212.138 113.855 211.858 113.201 211.298 112.716C210.738 112.231 210.038 111.988 209.198 111.988C208.396 111.988 207.714 112.221 207.154 112.688C206.613 113.155 206.277 113.817 206.146 114.676H212.138ZM225.92 124.224C224.557 124.224 223.344 123.991 222.28 123.524C221.216 123.057 220.376 122.423 219.76 121.62C219.144 120.799 218.799 119.884 218.724 118.876H223.456C223.512 119.417 223.764 119.856 224.212 120.192C224.66 120.528 225.211 120.696 225.864 120.696C226.461 120.696 226.919 120.584 227.236 120.36C227.572 120.117 227.74 119.809 227.74 119.436C227.74 118.988 227.507 118.661 227.04 118.456C226.573 118.232 225.817 117.989 224.772 117.728C223.652 117.467 222.719 117.196 221.972 116.916C221.225 116.617 220.581 116.16 220.04 115.544C219.499 114.909 219.228 114.06 219.228 112.996C219.228 112.1 219.471 111.288 219.956 110.56C220.46 109.813 221.188 109.225 222.14 108.796C223.111 108.367 224.259 108.152 225.584 108.152C227.544 108.152 229.084 108.637 230.204 109.608C231.343 110.579 231.996 111.867 232.164 113.472H227.74C227.665 112.931 227.423 112.501 227.012 112.184C226.62 111.867 226.097 111.708 225.444 111.708C224.884 111.708 224.455 111.82 224.156 112.044C223.857 112.249 223.708 112.539 223.708 112.912C223.708 113.36 223.941 113.696 224.408 113.92C224.893 114.144 225.64 114.368 226.648 114.592C227.805 114.891 228.748 115.189 229.476 115.488C230.204 115.768 230.839 116.235 231.38 116.888C231.94 117.523 232.229 118.381 232.248 119.464C232.248 120.379 231.987 121.2 231.464 121.928C230.96 122.637 230.223 123.197 229.252 123.608C228.3 124.019 227.189 124.224 225.92 124.224ZM242.289 124.224C240.759 124.224 239.377 123.897 238.145 123.244C236.932 122.591 235.971 121.657 235.261 120.444C234.571 119.231 234.225 117.812 234.225 116.188C234.225 114.583 234.58 113.173 235.289 111.96C235.999 110.728 236.969 109.785 238.201 109.132C239.433 108.479 240.815 108.152 242.345 108.152C243.876 108.152 245.257 108.479 246.489 109.132C247.721 109.785 248.692 110.728 249.401 111.96C250.111 113.173 250.465 114.583 250.465 116.188C250.465 117.793 250.101 119.212 249.373 120.444C248.664 121.657 247.684 122.591 246.433 123.244C245.201 123.897 243.82 124.224 242.289 124.224ZM242.289 120.08C243.204 120.08 243.979 119.744 244.613 119.072C245.267 118.4 245.593 117.439 245.593 116.188C245.593 114.937 245.276 113.976 244.641 113.304C244.025 112.632 243.26 112.296 242.345 112.296C241.412 112.296 240.637 112.632 240.021 113.304C239.405 113.957 239.097 114.919 239.097 116.188C239.097 117.439 239.396 118.4 239.993 119.072C240.609 119.744 241.375 120.08 242.289 120.08ZM268.434 108.376V124H263.646V121.872C263.16 122.563 262.498 123.123 261.658 123.552C260.836 123.963 259.922 124.168 258.914 124.168C257.719 124.168 256.664 123.907 255.75 123.384C254.835 122.843 254.126 122.068 253.622 121.06C253.118 120.052 252.866 118.867 252.866 117.504V108.376H257.626V116.86C257.626 117.905 257.896 118.717 258.438 119.296C258.979 119.875 259.707 120.164 260.622 120.164C261.555 120.164 262.292 119.875 262.834 119.296C263.375 118.717 263.646 117.905 263.646 116.86V108.376H268.434ZM276.661 110.98C277.221 110.121 277.921 109.449 278.761 108.964C279.601 108.46 280.534 108.208 281.561 108.208V113.276H280.245C279.05 113.276 278.154 113.537 277.557 114.06C276.959 114.564 276.661 115.46 276.661 116.748V124H271.873V108.376H276.661V110.98ZM282.897 116.188C282.897 114.564 283.224 113.145 283.877 111.932C284.549 110.719 285.473 109.785 286.649 109.132C287.844 108.479 289.207 108.152 290.737 108.152C292.697 108.152 294.331 108.665 295.637 109.692C296.963 110.719 297.831 112.165 298.241 114.032H293.145C292.716 112.837 291.885 112.24 290.653 112.24C289.776 112.24 289.076 112.585 288.553 113.276C288.031 113.948 287.769 114.919 287.769 116.188C287.769 117.457 288.031 118.437 288.553 119.128C289.076 119.8 289.776 120.136 290.653 120.136C291.885 120.136 292.716 119.539 293.145 118.344H298.241C297.831 120.173 296.963 121.611 295.637 122.656C294.312 123.701 292.679 124.224 290.737 124.224C289.207 124.224 287.844 123.897 286.649 123.244C285.473 122.591 284.549 121.657 283.877 120.444C283.224 119.231 282.897 117.812 282.897 116.188ZM315.53 115.936C315.53 116.384 315.502 116.851 315.446 117.336H304.61C304.685 118.307 304.993 119.053 305.534 119.576C306.094 120.08 306.776 120.332 307.578 120.332C308.773 120.332 309.604 119.828 310.07 118.82H315.166C314.905 119.847 314.429 120.771 313.738 121.592C313.066 122.413 312.217 123.057 311.19 123.524C310.164 123.991 309.016 124.224 307.746 124.224C306.216 124.224 304.853 123.897 303.658 123.244C302.464 122.591 301.53 121.657 300.858 120.444C300.186 119.231 299.85 117.812 299.85 116.188C299.85 114.564 300.177 113.145 300.83 111.932C301.502 110.719 302.436 109.785 303.63 109.132C304.825 108.479 306.197 108.152 307.746 108.152C309.258 108.152 310.602 108.469 311.778 109.104C312.954 109.739 313.869 110.644 314.522 111.82C315.194 112.996 315.53 114.368 315.53 115.936ZM310.63 114.676C310.63 113.855 310.35 113.201 309.79 112.716C309.23 112.231 308.53 111.988 307.69 111.988C306.888 111.988 306.206 112.221 305.646 112.688C305.105 113.155 304.769 113.817 304.638 114.676H310.63ZM324.412 124.224C323.05 124.224 321.836 123.991 320.772 123.524C319.708 123.057 318.868 122.423 318.252 121.62C317.636 120.799 317.291 119.884 317.216 118.876H321.948C322.004 119.417 322.256 119.856 322.704 120.192C323.152 120.528 323.703 120.696 324.356 120.696C324.954 120.696 325.411 120.584 325.728 120.36C326.064 120.117 326.232 119.809 326.232 119.436C326.232 118.988 325.999 118.661 325.532 118.456C325.066 118.232 324.31 117.989 323.264 117.728C322.144 117.467 321.211 117.196 320.464 116.916C319.718 116.617 319.074 116.16 318.532 115.544C317.991 114.909 317.72 114.06 317.72 112.996C317.72 112.1 317.963 111.288 318.448 110.56C318.952 109.813 319.68 109.225 320.632 108.796C321.603 108.367 322.751 108.152 324.076 108.152C326.036 108.152 327.576 108.637 328.696 109.608C329.835 110.579 330.488 111.867 330.656 113.472H326.232C326.158 112.931 325.915 112.501 325.504 112.184C325.112 111.867 324.59 111.708 323.936 111.708C323.376 111.708 322.947 111.82 322.648 112.044C322.35 112.249 322.2 112.539 322.2 112.912C322.2 113.36 322.434 113.696 322.9 113.92C323.386 114.144 324.132 114.368 325.14 114.592C326.298 114.891 327.24 115.189 327.968 115.488C328.696 115.768 329.331 116.235 329.872 116.888C330.432 117.523 330.722 118.381 330.74 119.464C330.74 120.379 330.479 121.2 329.956 121.928C329.452 122.637 328.715 123.197 327.744 123.608C326.792 124.019 325.682 124.224 324.412 124.224ZM335.91 124.224C335.07 124.224 334.379 123.981 333.838 123.496C333.315 122.992 333.054 122.376 333.054 121.648C333.054 120.901 333.315 120.276 333.838 119.772C334.379 119.268 335.07 119.016 335.91 119.016C336.731 119.016 337.403 119.268 337.926 119.772C338.467 120.276 338.738 120.901 338.738 121.648C338.738 122.376 338.467 122.992 337.926 123.496C337.403 123.981 336.731 124.224 335.91 124.224Z" fill="#1C013E"/>
<path d="M25.096 159.848V161.032H22.056V171H20.6V161.032H17.544V159.848H25.096ZM26.3443 166.584C26.3443 165.688 26.5256 164.904 26.8883 164.232C27.2509 163.549 27.7469 163.021 28.3763 162.648C29.0163 162.275 29.7256 162.088 30.5043 162.088C31.2723 162.088 31.9389 162.253 32.5043 162.584C33.0696 162.915 33.4909 163.331 33.7683 163.832V162.232H35.2403V171H33.7683V169.368C33.4803 169.88 33.0483 170.307 32.4723 170.648C31.9069 170.979 31.2456 171.144 30.4883 171.144C29.7096 171.144 29.0056 170.952 28.3763 170.568C27.7469 170.184 27.2509 169.645 26.8883 168.952C26.5256 168.259 26.3443 167.469 26.3443 166.584ZM33.7683 166.6C33.7683 165.939 33.6349 165.363 33.3683 164.872C33.1016 164.381 32.7389 164.008 32.2803 163.752C31.8323 163.485 31.3363 163.352 30.7923 163.352C30.2483 163.352 29.7523 163.48 29.3043 163.736C28.8563 163.992 28.4989 164.365 28.2323 164.856C27.9656 165.347 27.8323 165.923 27.8323 166.584C27.8323 167.256 27.9656 167.843 28.2323 168.344C28.4989 168.835 28.8563 169.213 29.3043 169.48C29.7523 169.736 30.2483 169.864 30.7923 169.864C31.3363 169.864 31.8323 169.736 32.2803 169.48C32.7389 169.213 33.1016 168.835 33.3683 168.344C33.6349 167.843 33.7683 167.261 33.7683 166.6ZM40.8048 171.144C40.1328 171.144 39.5301 171.032 38.9968 170.808C38.4634 170.573 38.0421 170.253 37.7328 169.848C37.4234 169.432 37.2528 168.957 37.2208 168.424H38.7248C38.7674 168.861 38.9701 169.219 39.3328 169.496C39.7061 169.773 40.1914 169.912 40.7888 169.912C41.3434 169.912 41.7808 169.789 42.1008 169.544C42.4208 169.299 42.5808 168.989 42.5808 168.616C42.5808 168.232 42.4101 167.949 42.0688 167.768C41.7274 167.576 41.1994 167.389 40.4848 167.208C39.8341 167.037 39.3008 166.867 38.8848 166.696C38.4794 166.515 38.1274 166.253 37.8288 165.912C37.5408 165.56 37.3968 165.101 37.3968 164.536C37.3968 164.088 37.5301 163.677 37.7968 163.304C38.0634 162.931 38.4421 162.637 38.9328 162.424C39.4234 162.2 39.9834 162.088 40.6128 162.088C41.5834 162.088 42.3674 162.333 42.9648 162.824C43.5621 163.315 43.8821 163.987 43.9248 164.84H42.4688C42.4368 164.381 42.2501 164.013 41.9088 163.736C41.5781 163.459 41.1301 163.32 40.5648 163.32C40.0421 163.32 39.6261 163.432 39.3168 163.656C39.0074 163.88 38.8528 164.173 38.8528 164.536C38.8528 164.824 38.9434 165.064 39.1248 165.256C39.3168 165.437 39.5514 165.587 39.8288 165.704C40.1168 165.811 40.5114 165.933 41.0128 166.072C41.6421 166.243 42.1541 166.413 42.5488 166.584C42.9434 166.744 43.2794 166.989 43.5568 167.32C43.8448 167.651 43.9941 168.083 44.0048 168.616C44.0048 169.096 43.8714 169.528 43.6048 169.912C43.3381 170.296 42.9594 170.6 42.4688 170.824C41.9888 171.037 41.4341 171.144 40.8048 171.144ZM50.9561 171L47.5161 167.128V171H46.0601V159.16H47.5161V166.12L50.8921 162.232H52.9241L48.7961 166.6L52.9401 171H50.9561ZM62.2945 166.28C62.2945 166.557 62.2785 166.851 62.2465 167.16H55.2385C55.2918 168.024 55.5852 168.701 56.1185 169.192C56.6625 169.672 57.3185 169.912 58.0865 169.912C58.7158 169.912 59.2385 169.768 59.6545 169.48C60.0812 169.181 60.3798 168.787 60.5505 168.296H62.1185C61.8838 169.139 61.4145 169.827 60.7105 170.36C60.0065 170.883 59.1318 171.144 58.0865 171.144C57.2545 171.144 56.5078 170.957 55.8465 170.584C55.1958 170.211 54.6838 169.683 54.3105 169C53.9372 168.307 53.7505 167.507 53.7505 166.6C53.7505 165.693 53.9318 164.899 54.2945 164.216C54.6572 163.533 55.1638 163.011 55.8145 162.648C56.4758 162.275 57.2332 162.088 58.0865 162.088C58.9185 162.088 59.6545 162.269 60.2945 162.632C60.9345 162.995 61.4252 163.496 61.7665 164.136C62.1185 164.765 62.2945 165.48 62.2945 166.28ZM60.7905 165.976C60.7905 165.421 60.6678 164.947 60.4225 164.552C60.1772 164.147 59.8412 163.843 59.4145 163.64C58.9985 163.427 58.5345 163.32 58.0225 163.32C57.2865 163.32 56.6572 163.555 56.1345 164.024C55.6225 164.493 55.3292 165.144 55.2545 165.976H60.7905ZM65.6724 163.656C65.9284 163.155 66.291 162.765 66.7604 162.488C67.2404 162.211 67.8217 162.072 68.5044 162.072V163.576H68.1204C66.4884 163.576 65.6724 164.461 65.6724 166.232V171H64.2164V162.232H65.6724V163.656ZM78.0668 162.088C78.8241 162.088 79.4854 162.253 80.0508 162.584C80.6268 162.915 81.0534 163.331 81.3308 163.832V162.232H82.8028V171.192C82.8028 171.992 82.6321 172.701 82.2908 173.32C81.9494 173.949 81.4588 174.44 80.8188 174.792C80.1894 175.144 79.4534 175.32 78.6108 175.32C77.4588 175.32 76.4988 175.048 75.7308 174.504C74.9628 173.96 74.5094 173.219 74.3708 172.28H75.8108C75.9708 172.813 76.3014 173.24 76.8028 173.56C77.3041 173.891 77.9068 174.056 78.6108 174.056C79.4108 174.056 80.0614 173.805 80.5628 173.304C81.0748 172.803 81.3308 172.099 81.3308 171.192V169.352C81.0428 169.864 80.6161 170.291 80.0508 170.632C79.4854 170.973 78.8241 171.144 78.0668 171.144C77.2881 171.144 76.5788 170.952 75.9388 170.568C75.3094 170.184 74.8134 169.645 74.4508 168.952C74.0881 168.259 73.9068 167.469 73.9068 166.584C73.9068 165.688 74.0881 164.904 74.4508 164.232C74.8134 163.549 75.3094 163.021 75.9388 162.648C76.5788 162.275 77.2881 162.088 78.0668 162.088ZM81.3308 166.6C81.3308 165.939 81.1974 165.363 80.9308 164.872C80.6641 164.381 80.3014 164.008 79.8428 163.752C79.3948 163.485 78.8988 163.352 78.3548 163.352C77.8108 163.352 77.3148 163.48 76.8668 163.736C76.4188 163.992 76.0614 164.365 75.7948 164.856C75.5281 165.347 75.3948 165.923 75.3948 166.584C75.3948 167.256 75.5281 167.843 75.7948 168.344C76.0614 168.835 76.4188 169.213 76.8668 169.48C77.3148 169.736 77.8108 169.864 78.3548 169.864C78.8988 169.864 79.3948 169.736 79.8428 169.48C80.3014 169.213 80.6641 168.835 80.9308 168.344C81.1974 167.843 81.3308 167.261 81.3308 166.6ZM86.0153 160.808C85.7379 160.808 85.5033 160.712 85.3113 160.52C85.1193 160.328 85.0233 160.093 85.0233 159.816C85.0233 159.539 85.1193 159.304 85.3113 159.112C85.5033 158.92 85.7379 158.824 86.0153 158.824C86.2819 158.824 86.5059 158.92 86.6873 159.112C86.8793 159.304 86.9753 159.539 86.9753 159.816C86.9753 160.093 86.8793 160.328 86.6873 160.52C86.5059 160.712 86.2819 160.808 86.0153 160.808ZM86.7193 162.232V171H85.2633V162.232H86.7193ZM92.4648 169.656L95.1848 162.232H96.7368L93.2968 171H91.6008L88.1608 162.232H89.7288L92.4648 169.656ZM106.17 166.28C106.17 166.557 106.154 166.851 106.122 167.16H99.1135C99.1668 168.024 99.4602 168.701 99.9935 169.192C100.538 169.672 101.194 169.912 101.962 169.912C102.591 169.912 103.114 169.768 103.53 169.48C103.956 169.181 104.255 168.787 104.426 168.296H105.994C105.759 169.139 105.29 169.827 104.586 170.36C103.882 170.883 103.007 171.144 101.962 171.144C101.13 171.144 100.383 170.957 99.7215 170.584C99.0708 170.211 98.5588 169.683 98.1855 169C97.8122 168.307 97.6255 167.507 97.6255 166.6C97.6255 165.693 97.8068 164.899 98.1695 164.216C98.5322 163.533 99.0388 163.011 99.6895 162.648C100.351 162.275 101.108 162.088 101.962 162.088C102.794 162.088 103.53 162.269 104.17 162.632C104.81 162.995 105.3 163.496 105.642 164.136C105.994 164.765 106.17 165.48 106.17 166.28ZM104.666 165.976C104.666 165.421 104.543 164.947 104.298 164.552C104.052 164.147 103.716 163.843 103.29 163.64C102.874 163.427 102.41 163.32 101.898 163.32C101.162 163.32 100.532 163.555 100.01 164.024C99.4975 164.493 99.2042 165.144 99.1295 165.976H104.666ZM111.195 171.144C110.523 171.144 109.921 171.032 109.387 170.808C108.854 170.573 108.433 170.253 108.123 169.848C107.814 169.432 107.643 168.957 107.611 168.424H109.115C109.158 168.861 109.361 169.219 109.723 169.496C110.097 169.773 110.582 169.912 111.179 169.912C111.734 169.912 112.171 169.789 112.491 169.544C112.811 169.299 112.971 168.989 112.971 168.616C112.971 168.232 112.801 167.949 112.459 167.768C112.118 167.576 111.59 167.389 110.875 167.208C110.225 167.037 109.691 166.867 109.275 166.696C108.87 166.515 108.518 166.253 108.219 165.912C107.931 165.56 107.787 165.101 107.787 164.536C107.787 164.088 107.921 163.677 108.187 163.304C108.454 162.931 108.833 162.637 109.323 162.424C109.814 162.2 110.374 162.088 111.003 162.088C111.974 162.088 112.758 162.333 113.355 162.824C113.953 163.315 114.273 163.987 114.315 164.84H112.859C112.827 164.381 112.641 164.013 112.299 163.736C111.969 163.459 111.521 163.32 110.955 163.32C110.433 163.32 110.017 163.432 109.707 163.656C109.398 163.88 109.243 164.173 109.243 164.536C109.243 164.824 109.334 165.064 109.515 165.256C109.707 165.437 109.942 165.587 110.219 165.704C110.507 165.811 110.902 165.933 111.403 166.072C112.033 166.243 112.545 166.413 112.939 166.584C113.334 166.744 113.67 166.989 113.947 167.32C114.235 167.651 114.385 168.083 114.395 168.616C114.395 169.096 114.262 169.528 113.995 169.912C113.729 170.296 113.35 170.6 112.859 170.824C112.379 171.037 111.825 171.144 111.195 171.144ZM128.268 162.232L122.988 175.128H121.484L123.212 170.904L119.676 162.232H121.292L124.044 169.336L126.764 162.232H128.268ZM133.556 171.144C132.735 171.144 131.988 170.957 131.316 170.584C130.655 170.211 130.132 169.683 129.748 169C129.375 168.307 129.188 167.507 129.188 166.6C129.188 165.704 129.38 164.915 129.764 164.232C130.159 163.539 130.692 163.011 131.364 162.648C132.036 162.275 132.788 162.088 133.62 162.088C134.452 162.088 135.204 162.275 135.876 162.648C136.548 163.011 137.076 163.533 137.46 164.216C137.855 164.899 138.052 165.693 138.052 166.6C138.052 167.507 137.849 168.307 137.444 169C137.049 169.683 136.511 170.211 135.828 170.584C135.145 170.957 134.388 171.144 133.556 171.144ZM133.556 169.864C134.079 169.864 134.569 169.741 135.028 169.496C135.487 169.251 135.855 168.883 136.132 168.392C136.42 167.901 136.564 167.304 136.564 166.6C136.564 165.896 136.425 165.299 136.148 164.808C135.871 164.317 135.508 163.955 135.06 163.72C134.612 163.475 134.127 163.352 133.604 163.352C133.071 163.352 132.58 163.475 132.132 163.72C131.695 163.955 131.343 164.317 131.076 164.808C130.809 165.299 130.676 165.896 130.676 166.6C130.676 167.315 130.804 167.917 131.06 168.408C131.327 168.899 131.679 169.267 132.116 169.512C132.553 169.747 133.033 169.864 133.556 169.864ZM147.742 162.232V171H146.286V169.704C146.009 170.152 145.62 170.504 145.118 170.76C144.628 171.005 144.084 171.128 143.486 171.128C142.804 171.128 142.19 170.989 141.646 170.712C141.102 170.424 140.67 169.997 140.35 169.432C140.041 168.867 139.886 168.179 139.886 167.368V162.232H141.326V167.176C141.326 168.04 141.545 168.707 141.982 169.176C142.42 169.635 143.017 169.864 143.774 169.864C144.553 169.864 145.166 169.624 145.614 169.144C146.062 168.664 146.286 167.965 146.286 167.048V162.232H147.742ZM162.466 166.28C162.466 166.557 162.45 166.851 162.418 167.16H155.41C155.464 168.024 155.757 168.701 156.29 169.192C156.834 169.672 157.49 169.912 158.258 169.912C158.888 169.912 159.41 169.768 159.826 169.48C160.253 169.181 160.552 168.787 160.722 168.296H162.29C162.056 169.139 161.586 169.827 160.882 170.36C160.178 170.883 159.304 171.144 158.258 171.144C157.426 171.144 156.68 170.957 156.018 170.584C155.368 170.211 154.856 169.683 154.482 169C154.109 168.307 153.922 167.507 153.922 166.6C153.922 165.693 154.104 164.899 154.466 164.216C154.829 163.533 155.336 163.011 155.986 162.648C156.648 162.275 157.405 162.088 158.258 162.088C159.09 162.088 159.826 162.269 160.466 162.632C161.106 162.995 161.597 163.496 161.938 164.136C162.29 164.765 162.466 165.48 162.466 166.28ZM160.962 165.976C160.962 165.421 160.84 164.947 160.594 164.552C160.349 164.147 160.013 163.843 159.586 163.64C159.17 163.427 158.706 163.32 158.194 163.32C157.458 163.32 156.829 163.555 156.306 164.024C155.794 164.493 155.501 165.144 155.426 165.976H160.962ZM167.652 169.656L170.372 162.232H171.924L168.484 171H166.788L163.348 162.232H164.916L167.652 169.656ZM181.357 166.28C181.357 166.557 181.341 166.851 181.309 167.16H174.301C174.354 168.024 174.648 168.701 175.181 169.192C175.725 169.672 176.381 169.912 177.149 169.912C177.778 169.912 178.301 169.768 178.717 169.48C179.144 169.181 179.442 168.787 179.613 168.296H181.181C180.946 169.139 180.477 169.827 179.773 170.36C179.069 170.883 178.194 171.144 177.149 171.144C176.317 171.144 175.57 170.957 174.909 170.584C174.258 170.211 173.746 169.683 173.373 169C173 168.307 172.813 167.507 172.813 166.6C172.813 165.693 172.994 164.899 173.357 164.216C173.72 163.533 174.226 163.011 174.877 162.648C175.538 162.275 176.296 162.088 177.149 162.088C177.981 162.088 178.717 162.269 179.357 162.632C179.997 162.995 180.488 163.496 180.829 164.136C181.181 164.765 181.357 165.48 181.357 166.28ZM179.853 165.976C179.853 165.421 179.73 164.947 179.485 164.552C179.24 164.147 178.904 163.843 178.477 163.64C178.061 163.427 177.597 163.32 177.085 163.32C176.349 163.32 175.72 163.555 175.197 164.024C174.685 164.493 174.392 165.144 174.317 165.976H179.853ZM187.551 162.072C188.618 162.072 189.482 162.397 190.143 163.048C190.804 163.688 191.135 164.616 191.135 165.832V171H189.695V166.04C189.695 165.165 189.476 164.499 189.039 164.04C188.602 163.571 188.004 163.336 187.247 163.336C186.479 163.336 185.866 163.576 185.407 164.056C184.959 164.536 184.735 165.235 184.735 166.152V171H183.279V162.232H184.735V163.48C185.023 163.032 185.412 162.685 185.903 162.44C186.404 162.195 186.954 162.072 187.551 162.072ZM208.323 162.072C209.006 162.072 209.614 162.216 210.147 162.504C210.68 162.781 211.102 163.203 211.411 163.768C211.72 164.333 211.875 165.021 211.875 165.832V171H210.435V166.04C210.435 165.165 210.216 164.499 209.779 164.04C209.352 163.571 208.771 163.336 208.035 163.336C207.278 163.336 206.675 163.581 206.227 164.072C205.779 164.552 205.555 165.251 205.555 166.168V171H204.115V166.04C204.115 165.165 203.896 164.499 203.459 164.04C203.032 163.571 202.451 163.336 201.715 163.336C200.958 163.336 200.355 163.581 199.907 164.072C199.459 164.552 199.235 165.251 199.235 166.168V171H197.779V162.232H199.235V163.496C199.523 163.037 199.907 162.685 200.387 162.44C200.878 162.195 201.416 162.072 202.003 162.072C202.739 162.072 203.39 162.237 203.955 162.568C204.52 162.899 204.942 163.384 205.219 164.024C205.464 163.405 205.87 162.925 206.435 162.584C207 162.243 207.63 162.072 208.323 162.072ZM218.087 171.144C217.266 171.144 216.519 170.957 215.847 170.584C215.186 170.211 214.663 169.683 214.279 169C213.906 168.307 213.719 167.507 213.719 166.6C213.719 165.704 213.911 164.915 214.295 164.232C214.69 163.539 215.223 163.011 215.895 162.648C216.567 162.275 217.319 162.088 218.151 162.088C218.983 162.088 219.735 162.275 220.407 162.648C221.079 163.011 221.607 163.533 221.991 164.216C222.386 164.899 222.583 165.693 222.583 166.6C222.583 167.507 222.381 168.307 221.975 169C221.581 169.683 221.042 170.211 220.359 170.584C219.677 170.957 218.919 171.144 218.087 171.144ZM218.087 169.864C218.61 169.864 219.101 169.741 219.559 169.496C220.018 169.251 220.386 168.883 220.663 168.392C220.951 167.901 221.095 167.304 221.095 166.6C221.095 165.896 220.957 165.299 220.679 164.808C220.402 164.317 220.039 163.955 219.591 163.72C219.143 163.475 218.658 163.352 218.135 163.352C217.602 163.352 217.111 163.475 216.663 163.72C216.226 163.955 215.874 164.317 215.607 164.808C215.341 165.299 215.207 165.896 215.207 166.6C215.207 167.315 215.335 167.917 215.591 168.408C215.858 168.899 216.21 169.267 216.647 169.512C217.085 169.747 217.565 169.864 218.087 169.864ZM225.954 163.656C226.21 163.155 226.572 162.765 227.042 162.488C227.522 162.211 228.103 162.072 228.786 162.072V163.576H228.402C226.77 163.576 225.954 164.461 225.954 166.232V171H224.498V162.232H225.954V163.656ZM238.466 166.28C238.466 166.557 238.45 166.851 238.418 167.16H231.41C231.464 168.024 231.757 168.701 232.29 169.192C232.834 169.672 233.49 169.912 234.258 169.912C234.888 169.912 235.41 169.768 235.826 169.48C236.253 169.181 236.552 168.787 236.722 168.296H238.29C238.056 169.139 237.586 169.827 236.882 170.36C236.178 170.883 235.304 171.144 234.258 171.144C233.426 171.144 232.68 170.957 232.018 170.584C231.368 170.211 230.856 169.683 230.482 169C230.109 168.307 229.922 167.507 229.922 166.6C229.922 165.693 230.104 164.899 230.466 164.216C230.829 163.533 231.336 163.011 231.986 162.648C232.648 162.275 233.405 162.088 234.258 162.088C235.09 162.088 235.826 162.269 236.466 162.632C237.106 162.995 237.597 163.496 237.938 164.136C238.29 164.765 238.466 165.48 238.466 166.28ZM236.962 165.976C236.962 165.421 236.84 164.947 236.594 164.552C236.349 164.147 236.013 163.843 235.586 163.64C235.17 163.427 234.706 163.32 234.194 163.32C233.458 163.32 232.829 163.555 232.306 164.024C231.794 164.493 231.501 165.144 231.426 165.976H236.962ZM248.222 163.432H246.382V171H244.926V163.432H243.79V162.232H244.926V161.608C244.926 160.627 245.177 159.912 245.678 159.464C246.19 159.005 247.006 158.776 248.126 158.776V159.992C247.486 159.992 247.033 160.12 246.766 160.376C246.51 160.621 246.382 161.032 246.382 161.608V162.232H248.222V163.432ZM257.92 166.28C257.92 166.557 257.904 166.851 257.872 167.16H250.864C250.917 168.024 251.21 168.701 251.744 169.192C252.288 169.672 252.944 169.912 253.712 169.912C254.341 169.912 254.864 169.768 255.28 169.48C255.706 169.181 256.005 168.787 256.176 168.296H257.744C257.509 169.139 257.04 169.827 256.336 170.36C255.632 170.883 254.757 171.144 253.712 171.144C252.88 171.144 252.133 170.957 251.472 170.584C250.821 170.211 250.309 169.683 249.936 169C249.562 168.307 249.376 167.507 249.376 166.6C249.376 165.693 249.557 164.899 249.92 164.216C250.282 163.533 250.789 163.011 251.44 162.648C252.101 162.275 252.858 162.088 253.712 162.088C254.544 162.088 255.28 162.269 255.92 162.632C256.56 162.995 257.05 163.496 257.392 164.136C257.744 164.765 257.92 165.48 257.92 166.28ZM256.416 165.976C256.416 165.421 256.293 164.947 256.048 164.552C255.802 164.147 255.466 163.843 255.04 163.64C254.624 163.427 254.16 163.32 253.648 163.32C252.912 163.32 252.282 163.555 251.76 164.024C251.248 164.493 250.954 165.144 250.88 165.976H256.416ZM259.297 166.584C259.297 165.688 259.479 164.904 259.841 164.232C260.204 163.549 260.7 163.021 261.329 162.648C261.969 162.275 262.679 162.088 263.457 162.088C264.225 162.088 264.892 162.253 265.457 162.584C266.023 162.915 266.444 163.331 266.721 163.832V162.232H268.193V171H266.721V169.368C266.433 169.88 266.001 170.307 265.425 170.648C264.86 170.979 264.199 171.144 263.441 171.144C262.663 171.144 261.959 170.952 261.329 170.568C260.7 170.184 260.204 169.645 259.841 168.952C259.479 168.259 259.297 167.469 259.297 166.584ZM266.721 166.6C266.721 165.939 266.588 165.363 266.321 164.872C266.055 164.381 265.692 164.008 265.233 163.752C264.785 163.485 264.289 163.352 263.745 163.352C263.201 163.352 262.705 163.48 262.257 163.736C261.809 163.992 261.452 164.365 261.185 164.856C260.919 165.347 260.785 165.923 260.785 166.584C260.785 167.256 260.919 167.843 261.185 168.344C261.452 168.835 261.809 169.213 262.257 169.48C262.705 169.736 263.201 169.864 263.745 169.864C264.289 169.864 264.785 169.736 265.233 169.48C265.692 169.213 266.055 168.835 266.321 168.344C266.588 167.843 266.721 167.261 266.721 166.6ZM272.43 163.432V168.6C272.43 169.027 272.521 169.331 272.702 169.512C272.883 169.683 273.198 169.768 273.646 169.768H274.718V171H273.406C272.595 171 271.987 170.813 271.582 170.44C271.177 170.067 270.974 169.453 270.974 168.6V163.432H269.838V162.232H270.974V160.024H272.43V162.232H274.718V163.432H272.43ZM284.258 162.232V171H282.802V169.704C282.525 170.152 282.135 170.504 281.634 170.76C281.143 171.005 280.599 171.128 280.002 171.128C279.319 171.128 278.706 170.989 278.162 170.712C277.618 170.424 277.186 169.997 276.866 169.432C276.557 168.867 276.402 168.179 276.402 167.368V162.232H277.842V167.176C277.842 168.04 278.061 168.707 278.498 169.176C278.935 169.635 279.533 169.864 280.29 169.864C281.069 169.864 281.682 169.624 282.13 169.144C282.578 168.664 282.802 167.965 282.802 167.048V162.232H284.258ZM288.172 163.656C288.428 163.155 288.791 162.765 289.26 162.488C289.74 162.211 290.322 162.072 291.004 162.072V163.576H290.62C288.988 163.576 288.172 164.461 288.172 166.232V171H286.716V162.232H288.172V163.656ZM300.685 166.28C300.685 166.557 300.669 166.851 300.637 167.16H293.629C293.682 168.024 293.976 168.701 294.509 169.192C295.053 169.672 295.709 169.912 296.477 169.912C297.106 169.912 297.629 169.768 298.045 169.48C298.472 169.181 298.77 168.787 298.941 168.296H300.509C300.274 169.139 299.805 169.827 299.101 170.36C298.397 170.883 297.522 171.144 296.477 171.144C295.645 171.144 294.898 170.957 294.237 170.584C293.586 170.211 293.074 169.683 292.701 169C292.328 168.307 292.141 167.507 292.141 166.6C292.141 165.693 292.322 164.899 292.685 164.216C293.048 163.533 293.554 163.011 294.205 162.648C294.866 162.275 295.624 162.088 296.477 162.088C297.309 162.088 298.045 162.269 298.685 162.632C299.325 162.995 299.816 163.496 300.157 164.136C300.509 164.765 300.685 165.48 300.685 166.28ZM299.181 165.976C299.181 165.421 299.058 164.947 298.813 164.552C298.568 164.147 298.232 163.843 297.805 163.64C297.389 163.427 296.925 163.32 296.413 163.32C295.677 163.32 295.048 163.555 294.525 164.024C294.013 164.493 293.72 165.144 293.645 165.976H299.181ZM305.711 171.144C305.039 171.144 304.436 171.032 303.903 170.808C303.37 170.573 302.948 170.253 302.639 169.848C302.33 169.432 302.159 168.957 302.127 168.424H303.631C303.674 168.861 303.876 169.219 304.239 169.496C304.612 169.773 305.098 169.912 305.695 169.912C306.25 169.912 306.687 169.789 307.007 169.544C307.327 169.299 307.487 168.989 307.487 168.616C307.487 168.232 307.316 167.949 306.975 167.768C306.634 167.576 306.106 167.389 305.391 167.208C304.74 167.037 304.207 166.867 303.791 166.696C303.386 166.515 303.034 166.253 302.735 165.912C302.447 165.56 302.303 165.101 302.303 164.536C302.303 164.088 302.436 163.677 302.703 163.304C302.97 162.931 303.348 162.637 303.839 162.424C304.33 162.2 304.89 162.088 305.519 162.088C306.49 162.088 307.274 162.333 307.871 162.824C308.468 163.315 308.788 163.987 308.831 164.84H307.375C307.343 164.381 307.156 164.013 306.815 163.736C306.484 163.459 306.036 163.32 305.471 163.32C304.948 163.32 304.532 163.432 304.223 163.656C303.914 163.88 303.759 164.173 303.759 164.536C303.759 164.824 303.85 165.064 304.031 165.256C304.223 165.437 304.458 165.587 304.735 165.704C305.023 165.811 305.418 165.933 305.919 166.072C306.548 166.243 307.06 166.413 307.455 166.584C307.85 166.744 308.186 166.989 308.463 167.32C308.751 167.651 308.9 168.083 308.911 168.616C308.911 169.096 308.778 169.528 308.511 169.912C308.244 170.296 307.866 170.6 307.375 170.824C306.895 171.037 306.34 171.144 305.711 171.144ZM319.056 171.144C318.235 171.144 317.488 170.957 316.816 170.584C316.155 170.211 315.632 169.683 315.248 169C314.875 168.307 314.688 167.507 314.688 166.6C314.688 165.704 314.88 164.915 315.264 164.232C315.659 163.539 316.192 163.011 316.864 162.648C317.536 162.275 318.288 162.088 319.12 162.088C319.952 162.088 320.704 162.275 321.376 162.648C322.048 163.011 322.576 163.533 322.96 164.216C323.355 164.899 323.552 165.693 323.552 166.6C323.552 167.507 323.349 168.307 322.944 169C322.549 169.683 322.011 170.211 321.328 170.584C320.645 170.957 319.888 171.144 319.056 171.144ZM319.056 169.864C319.579 169.864 320.069 169.741 320.528 169.496C320.987 169.251 321.355 168.883 321.632 168.392C321.92 167.901 322.064 167.304 322.064 166.6C322.064 165.896 321.925 165.299 321.648 164.808C321.371 164.317 321.008 163.955 320.56 163.72C320.112 163.475 319.627 163.352 319.104 163.352C318.571 163.352 318.08 163.475 317.632 163.72C317.195 163.955 316.843 164.317 316.576 164.808C316.309 165.299 316.176 165.896 316.176 166.6C316.176 167.315 316.304 167.917 316.56 168.408C316.827 168.899 317.179 169.267 317.616 169.512C318.053 169.747 318.533 169.864 319.056 169.864ZM333.242 162.232V171H331.786V169.704C331.509 170.152 331.12 170.504 330.618 170.76C330.128 171.005 329.584 171.128 328.986 171.128C328.304 171.128 327.69 170.989 327.146 170.712C326.602 170.424 326.17 169.997 325.85 169.432C325.541 168.867 325.386 168.179 325.386 167.368V162.232H326.826V167.176C326.826 168.04 327.045 168.707 327.482 169.176C327.92 169.635 328.517 169.864 329.274 169.864C330.053 169.864 330.666 169.624 331.114 169.144C331.562 168.664 331.786 167.965 331.786 167.048V162.232H333.242ZM337.477 163.432V168.6C337.477 169.027 337.567 169.331 337.749 169.512C337.93 169.683 338.245 169.768 338.693 169.768H339.765V171H338.453C337.642 171 337.034 170.813 336.629 170.44C336.223 170.067 336.021 169.453 336.021 168.6V163.432H334.885V162.232H336.021V160.024H337.477V162.232H339.765V163.432H337.477ZM22.056 195.144C21.2347 195.144 20.488 194.957 19.816 194.584C19.1547 194.211 18.632 193.683 18.248 193C17.8747 192.307 17.688 191.507 17.688 190.6C17.688 189.704 17.88 188.915 18.264 188.232C18.6587 187.539 19.192 187.011 19.864 186.648C20.536 186.275 21.288 186.088 22.12 186.088C22.952 186.088 23.704 186.275 24.376 186.648C25.048 187.011 25.576 187.533 25.96 188.216C26.3547 188.899 26.552 189.693 26.552 190.6C26.552 191.507 26.3493 192.307 25.944 193C25.5493 193.683 25.0107 194.211 24.328 194.584C23.6453 194.957 22.888 195.144 22.056 195.144ZM22.056 193.864C22.5787 193.864 23.0693 193.741 23.528 193.496C23.9867 193.251 24.3547 192.883 24.632 192.392C24.92 191.901 25.064 191.304 25.064 190.6C25.064 189.896 24.9253 189.299 24.648 188.808C24.3707 188.317 24.008 187.955 23.56 187.72C23.112 187.475 22.6267 187.352 22.104 187.352C21.5707 187.352 21.08 187.475 20.632 187.72C20.1947 187.955 19.8427 188.317 19.576 188.808C19.3093 189.299 19.176 189.896 19.176 190.6C19.176 191.315 19.304 191.917 19.56 192.408C19.8267 192.899 20.1787 193.267 20.616 193.512C21.0533 193.747 21.5333 193.864 22.056 193.864ZM32.0344 187.432H30.1944V195H28.7384V187.432H27.6024V186.232H28.7384V185.608C28.7384 184.627 28.989 183.912 29.4904 183.464C30.0024 183.005 30.8184 182.776 31.9384 182.776V183.992C31.2984 183.992 30.845 184.12 30.5784 184.376C30.3224 184.621 30.1944 185.032 30.1944 185.608V186.232H32.0344V187.432ZM39.7736 187.432V192.6C39.7736 193.027 39.8643 193.331 40.0456 193.512C40.227 193.683 40.5416 193.768 40.9896 193.768H42.0616V195H40.7496C39.939 195 39.331 194.813 38.9256 194.44C38.5203 194.067 38.3176 193.453 38.3176 192.6V187.432H37.1816V186.232H38.3176V184.024H39.7736V186.232H42.0616V187.432H39.7736ZM48.1778 186.072C48.8391 186.072 49.4364 186.216 49.9698 186.504C50.5031 186.781 50.9191 187.203 51.2178 187.768C51.5271 188.333 51.6818 189.021 51.6818 189.832V195H50.2418V190.04C50.2418 189.165 50.0231 188.499 49.5858 188.04C49.1484 187.571 48.5511 187.336 47.7938 187.336C47.0258 187.336 46.4124 187.576 45.9538 188.056C45.5058 188.536 45.2818 189.235 45.2818 190.152V195H43.8258V183.16H45.2818V187.48C45.5698 187.032 45.9644 186.685 46.4658 186.44C46.9778 186.195 47.5484 186.072 48.1778 186.072ZM62.0601 190.28C62.0601 190.557 62.0441 190.851 62.0121 191.16H55.0041C55.0575 192.024 55.3508 192.701 55.8841 193.192C56.4281 193.672 57.0841 193.912 57.8521 193.912C58.4815 193.912 59.0041 193.768 59.4201 193.48C59.8468 193.181 60.1455 192.787 60.3161 192.296H61.8841C61.6495 193.139 61.1801 193.827 60.4761 194.36C59.7721 194.883 58.8975 195.144 57.8521 195.144C57.0201 195.144 56.2735 194.957 55.6121 194.584C54.9615 194.211 54.4495 193.683 54.0761 193C53.7028 192.307 53.5161 191.507 53.5161 190.6C53.5161 189.693 53.6975 188.899 54.0601 188.216C54.4228 187.533 54.9295 187.011 55.5801 186.648C56.2415 186.275 56.9988 186.088 57.8521 186.088C58.6841 186.088 59.4201 186.269 60.0601 186.632C60.7001 186.995 61.1908 187.496 61.5321 188.136C61.8841 188.765 62.0601 189.48 62.0601 190.28ZM60.5561 189.976C60.5561 189.421 60.4335 188.947 60.1881 188.552C59.9428 188.147 59.6068 187.843 59.1801 187.64C58.7641 187.427 58.3001 187.32 57.7881 187.32C57.0521 187.32 56.4228 187.555 55.9001 188.024C55.3881 188.493 55.0948 189.144 55.0201 189.976H60.5561ZM69.7036 187.864C70.0023 187.341 70.4396 186.915 71.0156 186.584C71.5916 186.253 72.2476 186.088 72.9836 186.088C73.773 186.088 74.4823 186.275 75.1116 186.648C75.741 187.021 76.237 187.549 76.5996 188.232C76.9623 188.904 77.1436 189.688 77.1436 190.584C77.1436 191.469 76.9623 192.259 76.5996 192.952C76.237 193.645 75.7356 194.184 75.0956 194.568C74.4663 194.952 73.7623 195.144 72.9836 195.144C72.2263 195.144 71.5596 194.979 70.9836 194.648C70.4183 194.317 69.9916 193.896 69.7036 193.384V195H68.2476V183.16H69.7036V187.864ZM75.6556 190.584C75.6556 189.923 75.5223 189.347 75.2556 188.856C74.989 188.365 74.6263 187.992 74.1676 187.736C73.7196 187.48 73.2236 187.352 72.6796 187.352C72.1463 187.352 71.6503 187.485 71.1916 187.752C70.7436 188.008 70.381 188.387 70.1036 188.888C69.837 189.379 69.7036 189.949 69.7036 190.6C69.7036 191.261 69.837 191.843 70.1036 192.344C70.381 192.835 70.7436 193.213 71.1916 193.48C71.6503 193.736 72.1463 193.864 72.6796 193.864C73.2236 193.864 73.7196 193.736 74.1676 193.48C74.6263 193.213 74.989 192.835 75.2556 192.344C75.5223 191.843 75.6556 191.256 75.6556 190.584ZM82.8841 195.144C82.0628 195.144 81.3161 194.957 80.6441 194.584C79.9828 194.211 79.4601 193.683 79.0761 193C78.7028 192.307 78.5161 191.507 78.5161 190.6C78.5161 189.704 78.7081 188.915 79.0921 188.232C79.4868 187.539 80.0201 187.011 80.6921 186.648C81.3641 186.275 82.1161 186.088 82.9481 186.088C83.7801 186.088 84.5321 186.275 85.2041 186.648C85.8761 187.011 86.4041 187.533 86.7881 188.216C87.1828 188.899 87.3801 189.693 87.3801 190.6C87.3801 191.507 87.1775 192.307 86.7721 193C86.3775 193.683 85.8388 194.211 85.1561 194.584C84.4735 194.957 83.7161 195.144 82.8841 195.144ZM82.8841 193.864C83.4068 193.864 83.8975 193.741 84.3561 193.496C84.8148 193.251 85.1828 192.883 85.4601 192.392C85.7481 191.901 85.8921 191.304 85.8921 190.6C85.8921 189.896 85.7535 189.299 85.4761 188.808C85.1988 188.317 84.8361 187.955 84.3881 187.72C83.9401 187.475 83.4548 187.352 82.9321 187.352C82.3988 187.352 81.9081 187.475 81.4601 187.72C81.0228 187.955 80.6708 188.317 80.4041 188.808C80.1375 189.299 80.0041 189.896 80.0041 190.6C80.0041 191.315 80.1321 191.917 80.3881 192.408C80.6548 192.899 81.0068 193.267 81.4441 193.512C81.8815 193.747 82.3615 193.864 82.8841 193.864ZM93.8705 195L91.7905 191.736L89.7905 195H88.2705L91.1025 190.648L88.2705 186.232H89.9185L91.9985 189.48L93.9825 186.232H95.5025L92.6865 190.568L95.5185 195H93.8705ZM102.992 187.432V192.6C102.992 193.027 103.083 193.331 103.264 193.512C103.446 193.683 103.76 193.768 104.208 193.768H105.28V195H103.968C103.158 195 102.55 194.813 102.144 194.44C101.739 194.067 101.536 193.453 101.536 192.6V187.432H100.4V186.232H101.536V184.024H102.992V186.232H105.28V187.432H102.992ZM111.397 186.072C112.058 186.072 112.655 186.216 113.189 186.504C113.722 186.781 114.138 187.203 114.437 187.768C114.746 188.333 114.901 189.021 114.901 189.832V195H113.461V190.04C113.461 189.165 113.242 188.499 112.805 188.04C112.367 187.571 111.77 187.336 111.013 187.336C110.245 187.336 109.631 187.576 109.173 188.056C108.725 188.536 108.501 189.235 108.501 190.152V195H107.045V183.16H108.501V187.48C108.789 187.032 109.183 186.685 109.685 186.44C110.197 186.195 110.767 186.072 111.397 186.072ZM116.735 190.584C116.735 189.688 116.916 188.904 117.279 188.232C117.642 187.549 118.138 187.021 118.767 186.648C119.407 186.275 120.116 186.088 120.895 186.088C121.663 186.088 122.33 186.253 122.895 186.584C123.46 186.915 123.882 187.331 124.159 187.832V186.232H125.631V195H124.159V193.368C123.871 193.88 123.439 194.307 122.863 194.648C122.298 194.979 121.636 195.144 120.879 195.144C120.1 195.144 119.396 194.952 118.767 194.568C118.138 194.184 117.642 193.645 117.279 192.952C116.916 192.259 116.735 191.469 116.735 190.584ZM124.159 190.6C124.159 189.939 124.026 189.363 123.759 188.872C123.492 188.381 123.13 188.008 122.671 187.752C122.223 187.485 121.727 187.352 121.183 187.352C120.639 187.352 120.143 187.48 119.695 187.736C119.247 187.992 118.89 188.365 118.623 188.856C118.356 189.347 118.223 189.923 118.223 190.584C118.223 191.256 118.356 191.843 118.623 192.344C118.89 192.835 119.247 193.213 119.695 193.48C120.143 193.736 120.639 193.864 121.183 193.864C121.727 193.864 122.223 193.736 122.671 193.48C123.13 193.213 123.492 192.835 123.759 192.344C124.026 191.843 124.159 191.261 124.159 190.6ZM129.867 187.432V192.6C129.867 193.027 129.958 193.331 130.139 193.512C130.321 193.683 130.635 193.768 131.083 193.768H132.155V195H130.843C130.033 195 129.425 194.813 129.019 194.44C128.614 194.067 128.411 193.453 128.411 192.6V187.432H127.275V186.232H128.411V184.024H129.867V186.232H132.155V187.432H129.867ZM145.737 186.232L140.457 199.128H138.953L140.681 194.904L137.145 186.232H138.761L141.513 193.336L144.233 186.232H145.737ZM151.025 195.144C150.203 195.144 149.457 194.957 148.785 194.584C148.123 194.211 147.601 193.683 147.217 193C146.843 192.307 146.657 191.507 146.657 190.6C146.657 189.704 146.849 188.915 147.233 188.232C147.627 187.539 148.161 187.011 148.833 186.648C149.505 186.275 150.257 186.088 151.089 186.088C151.921 186.088 152.673 186.275 153.345 186.648C154.017 187.011 154.545 187.533 154.929 188.216C155.323 188.899 155.521 189.693 155.521 190.6C155.521 191.507 155.318 192.307 154.913 193C154.518 193.683 153.979 194.211 153.297 194.584C152.614 194.957 151.857 195.144 151.025 195.144ZM151.025 193.864C151.547 193.864 152.038 193.741 152.497 193.496C152.955 193.251 153.323 192.883 153.601 192.392C153.889 191.901 154.033 191.304 154.033 190.6C154.033 189.896 153.894 189.299 153.617 188.808C153.339 188.317 152.977 187.955 152.529 187.72C152.081 187.475 151.595 187.352 151.073 187.352C150.539 187.352 150.049 187.475 149.601 187.72C149.163 187.955 148.811 188.317 148.545 188.808C148.278 189.299 148.145 189.896 148.145 190.6C148.145 191.315 148.273 191.917 148.529 192.408C148.795 192.899 149.147 193.267 149.585 193.512C150.022 193.747 150.502 193.864 151.025 193.864ZM165.211 186.232V195H163.755V193.704C163.478 194.152 163.088 194.504 162.587 194.76C162.096 195.005 161.552 195.128 160.955 195.128C160.272 195.128 159.659 194.989 159.115 194.712C158.571 194.424 158.139 193.997 157.819 193.432C157.51 192.867 157.355 192.179 157.355 191.368V186.232H158.795V191.176C158.795 192.04 159.014 192.707 159.451 193.176C159.888 193.635 160.486 193.864 161.243 193.864C162.022 193.864 162.635 193.624 163.083 193.144C163.531 192.664 163.755 191.965 163.755 191.048V186.232H165.211ZM183.615 186.232L180.879 195H179.375L177.263 188.04L175.151 195H173.647L170.895 186.232H172.383L174.399 193.592L176.575 186.232H178.063L180.191 193.608L182.175 186.232H183.615ZM188.884 195.144C188.063 195.144 187.316 194.957 186.644 194.584C185.983 194.211 185.46 193.683 185.076 193C184.703 192.307 184.516 191.507 184.516 190.6C184.516 189.704 184.708 188.915 185.092 188.232C185.487 187.539 186.02 187.011 186.692 186.648C187.364 186.275 188.116 186.088 188.948 186.088C189.78 186.088 190.532 186.275 191.204 186.648C191.876 187.011 192.404 187.533 192.788 188.216C193.183 188.899 193.38 189.693 193.38 190.6C193.38 191.507 193.177 192.307 192.772 193C192.377 193.683 191.839 194.211 191.156 194.584C190.473 194.957 189.716 195.144 188.884 195.144ZM188.884 193.864C189.407 193.864 189.897 193.741 190.356 193.496C190.815 193.251 191.183 192.883 191.46 192.392C191.748 191.901 191.892 191.304 191.892 190.6C191.892 189.896 191.753 189.299 191.476 188.808C191.199 188.317 190.836 187.955 190.388 187.72C189.94 187.475 189.455 187.352 188.932 187.352C188.399 187.352 187.908 187.475 187.46 187.72C187.023 187.955 186.671 188.317 186.404 188.808C186.137 189.299 186.004 189.896 186.004 190.6C186.004 191.315 186.132 191.917 186.388 192.408C186.655 192.899 187.007 193.267 187.444 193.512C187.881 193.747 188.361 193.864 188.884 193.864ZM199.567 186.072C200.633 186.072 201.497 186.397 202.159 187.048C202.82 187.688 203.151 188.616 203.151 189.832V195H201.711V190.04C201.711 189.165 201.492 188.499 201.055 188.04C200.617 187.571 200.02 187.336 199.263 187.336C198.495 187.336 197.881 187.576 197.423 188.056C196.975 188.536 196.751 189.235 196.751 190.152V195H195.295V186.232H196.751V187.48C197.039 187.032 197.428 186.685 197.919 186.44C198.42 186.195 198.969 186.072 199.567 186.072ZM205.753 183.848H207.369L205.833 187.48H204.809L205.753 183.848ZM210.805 187.432V192.6C210.805 193.027 210.896 193.331 211.077 193.512C211.258 193.683 211.573 193.768 212.021 193.768H213.093V195H211.781C210.97 195 210.362 194.813 209.957 194.44C209.552 194.067 209.349 193.453 209.349 192.6V187.432H208.213V186.232H209.349V184.024H210.805V186.232H213.093V187.432H210.805ZM222.691 187.432H220.851V195H219.395V187.432H218.259V186.232H219.395V185.608C219.395 184.627 219.645 183.912 220.147 183.464C220.659 183.005 221.475 182.776 222.595 182.776V183.992C221.955 183.992 221.501 184.12 221.235 184.376C220.979 184.621 220.851 185.032 220.851 185.608V186.232H222.691V187.432ZM225.14 184.808C224.863 184.808 224.628 184.712 224.436 184.52C224.244 184.328 224.148 184.093 224.148 183.816C224.148 183.539 224.244 183.304 224.436 183.112C224.628 182.92 224.863 182.824 225.14 182.824C225.407 182.824 225.631 182.92 225.812 183.112C226.004 183.304 226.1 183.539 226.1 183.816C226.1 184.093 226.004 184.328 225.812 184.52C225.631 184.712 225.407 184.808 225.14 184.808ZM225.844 186.232V195H224.388V186.232H225.844ZM232.598 186.072C233.664 186.072 234.528 186.397 235.19 187.048C235.851 187.688 236.182 188.616 236.182 189.832V195H234.742V190.04C234.742 189.165 234.523 188.499 234.086 188.04C233.648 187.571 233.051 187.336 232.294 187.336C231.526 187.336 230.912 187.576 230.454 188.056C230.006 188.536 229.782 189.235 229.782 190.152V195H228.326V186.232H229.782V187.48C230.07 187.032 230.459 186.685 230.95 186.44C231.451 186.195 232 186.072 232.598 186.072ZM238.016 190.584C238.016 189.688 238.197 188.904 238.56 188.232C238.923 187.549 239.419 187.021 240.048 186.648C240.688 186.275 241.403 186.088 242.192 186.088C242.875 186.088 243.509 186.248 244.096 186.568C244.683 186.877 245.131 187.288 245.44 187.8V183.16H246.912V195H245.44V193.352C245.152 193.875 244.725 194.307 244.16 194.648C243.595 194.979 242.933 195.144 242.176 195.144C241.397 195.144 240.688 194.952 240.048 194.568C239.419 194.184 238.923 193.645 238.56 192.952C238.197 192.259 238.016 191.469 238.016 190.584ZM245.44 190.6C245.44 189.939 245.307 189.363 245.04 188.872C244.773 188.381 244.411 188.008 243.952 187.752C243.504 187.485 243.008 187.352 242.464 187.352C241.92 187.352 241.424 187.48 240.976 187.736C240.528 187.992 240.171 188.365 239.904 188.856C239.637 189.347 239.504 189.923 239.504 190.584C239.504 191.256 239.637 191.843 239.904 192.344C240.171 192.835 240.528 193.213 240.976 193.48C241.424 193.736 241.92 193.864 242.464 193.864C243.008 193.864 243.504 193.736 243.952 193.48C244.411 193.213 244.773 192.835 245.04 192.344C245.307 191.843 245.44 191.261 245.44 190.6ZM254.39 184.808C254.113 184.808 253.878 184.712 253.686 184.52C253.494 184.328 253.398 184.093 253.398 183.816C253.398 183.539 253.494 183.304 253.686 183.112C253.878 182.92 254.113 182.824 254.39 182.824C254.657 182.824 254.881 182.92 255.062 183.112C255.254 183.304 255.35 183.539 255.35 183.816C255.35 184.093 255.254 184.328 255.062 184.52C254.881 184.712 254.657 184.808 254.39 184.808ZM255.094 186.232V195H253.638V186.232H255.094ZM261.848 186.072C262.914 186.072 263.778 186.397 264.44 187.048C265.101 187.688 265.432 188.616 265.432 189.832V195H263.992V190.04C263.992 189.165 263.773 188.499 263.336 188.04C262.898 187.571 262.301 187.336 261.544 187.336C260.776 187.336 260.162 187.576 259.704 188.056C259.256 188.536 259.032 189.235 259.032 190.152V195H257.576V186.232H259.032V187.48C259.32 187.032 259.709 186.685 260.2 186.44C260.701 186.195 261.25 186.072 261.848 186.072ZM275.9 195.144C275.078 195.144 274.332 194.957 273.66 194.584C272.998 194.211 272.476 193.683 272.092 193C271.718 192.307 271.532 191.507 271.532 190.6C271.532 189.704 271.724 188.915 272.108 188.232C272.502 187.539 273.036 187.011 273.708 186.648C274.38 186.275 275.132 186.088 275.964 186.088C276.796 186.088 277.548 186.275 278.22 186.648C278.892 187.011 279.42 187.533 279.804 188.216C280.198 188.899 280.396 189.693 280.396 190.6C280.396 191.507 280.193 192.307 279.788 193C279.393 193.683 278.854 194.211 278.172 194.584C277.489 194.957 276.732 195.144 275.9 195.144ZM275.9 193.864C276.422 193.864 276.913 193.741 277.372 193.496C277.83 193.251 278.198 192.883 278.476 192.392C278.764 191.901 278.908 191.304 278.908 190.6C278.908 189.896 278.769 189.299 278.492 188.808C278.214 188.317 277.852 187.955 277.404 187.72C276.956 187.475 276.47 187.352 275.948 187.352C275.414 187.352 274.924 187.475 274.476 187.72C274.038 187.955 273.686 188.317 273.42 188.808C273.153 189.299 273.02 189.896 273.02 190.6C273.02 191.315 273.148 191.917 273.404 192.408C273.67 192.899 274.022 193.267 274.46 193.512C274.897 193.747 275.377 193.864 275.9 193.864ZM284.086 187.432V192.6C284.086 193.027 284.177 193.331 284.358 193.512C284.539 193.683 284.854 193.768 285.302 193.768H286.374V195H285.062C284.251 195 283.643 194.813 283.238 194.44C282.833 194.067 282.63 193.453 282.63 192.6V187.432H281.494V186.232H282.63V184.024H284.086V186.232H286.374V187.432H284.086ZM292.49 186.072C293.152 186.072 293.749 186.216 294.282 186.504C294.816 186.781 295.232 187.203 295.53 187.768C295.84 188.333 295.994 189.021 295.994 189.832V195H294.554V190.04C294.554 189.165 294.336 188.499 293.898 188.04C293.461 187.571 292.864 187.336 292.106 187.336C291.338 187.336 290.725 187.576 290.266 188.056C289.818 188.536 289.594 189.235 289.594 190.152V195H288.138V183.16H289.594V187.48C289.882 187.032 290.277 186.685 290.778 186.44C291.29 186.195 291.861 186.072 292.49 186.072ZM306.373 190.28C306.373 190.557 306.357 190.851 306.325 191.16H299.317C299.37 192.024 299.663 192.701 300.197 193.192C300.741 193.672 301.397 193.912 302.165 193.912C302.794 193.912 303.317 193.768 303.733 193.48C304.159 193.181 304.458 192.787 304.629 192.296H306.197C305.962 193.139 305.493 193.827 304.789 194.36C304.085 194.883 303.21 195.144 302.165 195.144C301.333 195.144 300.586 194.957 299.925 194.584C299.274 194.211 298.762 193.683 298.389 193C298.015 192.307 297.829 191.507 297.829 190.6C297.829 189.693 298.01 188.899 298.373 188.216C298.735 187.533 299.242 187.011 299.893 186.648C300.554 186.275 301.311 186.088 302.165 186.088C302.997 186.088 303.733 186.269 304.373 186.632C305.013 186.995 305.503 187.496 305.845 188.136C306.197 188.765 306.373 189.48 306.373 190.28ZM304.869 189.976C304.869 189.421 304.746 188.947 304.501 188.552C304.255 188.147 303.919 187.843 303.493 187.64C303.077 187.427 302.613 187.32 302.101 187.32C301.365 187.32 300.735 187.555 300.213 188.024C299.701 188.493 299.407 189.144 299.333 189.976H304.869ZM309.751 187.656C310.007 187.155 310.369 186.765 310.839 186.488C311.319 186.211 311.9 186.072 312.583 186.072V187.576H312.199C310.567 187.576 309.751 188.461 309.751 190.232V195H308.295V186.232H309.751V187.656ZM320.305 187.432V192.6C320.305 193.027 320.396 193.331 320.577 193.512C320.758 193.683 321.073 193.768 321.521 193.768H322.593V195H321.281C320.47 195 319.862 194.813 319.457 194.44C319.052 194.067 318.849 193.453 318.849 192.6V187.432H317.713V186.232H318.849V184.024H320.305V186.232H322.593V187.432H320.305ZM323.813 190.584C323.813 189.688 323.994 188.904 324.357 188.232C324.72 187.549 325.216 187.021 325.845 186.648C326.485 186.275 327.194 186.088 327.973 186.088C328.741 186.088 329.408 186.253 329.973 186.584C330.538 186.915 330.96 187.331 331.237 187.832V186.232H332.709V195H331.237V193.368C330.949 193.88 330.517 194.307 329.941 194.648C329.376 194.979 328.714 195.144 327.957 195.144C327.178 195.144 326.474 194.952 325.845 194.568C325.216 194.184 324.72 193.645 324.357 192.952C323.994 192.259 323.813 191.469 323.813 190.584ZM331.237 190.6C331.237 189.939 331.104 189.363 330.837 188.872C330.57 188.381 330.208 188.008 329.749 187.752C329.301 187.485 328.805 187.352 328.261 187.352C327.717 187.352 327.221 187.48 326.773 187.736C326.325 187.992 325.968 188.365 325.701 188.856C325.434 189.347 325.301 189.923 325.301 190.584C325.301 191.256 325.434 191.843 325.701 192.344C325.968 192.835 326.325 193.213 326.773 193.48C327.221 193.736 327.717 193.864 328.261 193.864C328.805 193.864 329.301 193.736 329.749 193.48C330.208 193.213 330.57 192.835 330.837 192.344C331.104 191.843 331.237 191.261 331.237 190.6ZM338.274 195.144C337.602 195.144 336.999 195.032 336.466 194.808C335.932 194.573 335.511 194.253 335.202 193.848C334.892 193.432 334.722 192.957 334.69 192.424H336.194C336.236 192.861 336.439 193.219 336.802 193.496C337.175 193.773 337.66 193.912 338.258 193.912C338.812 193.912 339.25 193.789 339.57 193.544C339.89 193.299 340.05 192.989 340.05 192.616C340.05 192.232 339.879 191.949 339.538 191.768C339.196 191.576 338.668 191.389 337.954 191.208C337.303 191.037 336.77 190.867 336.354 190.696C335.948 190.515 335.596 190.253 335.298 189.912C335.01 189.56 334.866 189.101 334.866 188.536C334.866 188.088 334.999 187.677 335.266 187.304C335.532 186.931 335.911 186.637 336.402 186.424C336.892 186.2 337.452 186.088 338.082 186.088C339.052 186.088 339.836 186.333 340.434 186.824C341.031 187.315 341.351 187.987 341.394 188.84H339.938C339.906 188.381 339.719 188.013 339.378 187.736C339.047 187.459 338.599 187.32 338.034 187.32C337.511 187.32 337.095 187.432 336.786 187.656C336.476 187.88 336.322 188.173 336.322 188.536C336.322 188.824 336.412 189.064 336.594 189.256C336.786 189.437 337.02 189.587 337.298 189.704C337.586 189.811 337.98 189.933 338.482 190.072C339.111 190.243 339.623 190.413 340.018 190.584C340.412 190.744 340.748 190.989 341.026 191.32C341.314 191.651 341.463 192.083 341.474 192.616C341.474 193.096 341.34 193.528 341.074 193.912C340.807 194.296 340.428 194.6 339.938 194.824C339.458 195.037 338.903 195.144 338.274 195.144ZM348.425 195L344.985 191.128V195H343.529V183.16H344.985V190.12L348.361 186.232H350.393L346.265 190.6L350.409 195H348.425ZM28.776 210.072C29.4587 210.072 30.0667 210.216 30.6 210.504C31.1333 210.781 31.5547 211.203 31.864 211.768C32.1733 212.333 32.328 213.021 32.328 213.832V219H30.888V214.04C30.888 213.165 30.6693 212.499 30.232 212.04C29.8053 211.571 29.224 211.336 28.488 211.336C27.7307 211.336 27.128 211.581 26.68 212.072C26.232 212.552 26.008 213.251 26.008 214.168V219H24.568V214.04C24.568 213.165 24.3493 212.499 23.912 212.04C23.4853 211.571 22.904 211.336 22.168 211.336C21.4107 211.336 20.808 211.581 20.36 212.072C19.912 212.552 19.688 213.251 19.688 214.168V219H18.232V210.232H19.688V211.496C19.976 211.037 20.36 210.685 20.84 210.44C21.3307 210.195 21.8693 210.072 22.456 210.072C23.192 210.072 23.8427 210.237 24.408 210.568C24.9733 210.899 25.3947 211.384 25.672 212.024C25.9173 211.405 26.3227 210.925 26.888 210.584C27.4533 210.243 28.0827 210.072 28.776 210.072ZM34.1724 214.584C34.1724 213.688 34.3537 212.904 34.7164 212.232C35.079 211.549 35.575 211.021 36.2044 210.648C36.8444 210.275 37.5537 210.088 38.3324 210.088C39.1004 210.088 39.767 210.253 40.3324 210.584C40.8977 210.915 41.319 211.331 41.5964 211.832V210.232H43.0684V219H41.5964V217.368C41.3084 217.88 40.8764 218.307 40.3004 218.648C39.735 218.979 39.0737 219.144 38.3164 219.144C37.5377 219.144 36.8337 218.952 36.2044 218.568C35.575 218.184 35.079 217.645 34.7164 216.952C34.3537 216.259 34.1724 215.469 34.1724 214.584ZM41.5964 214.6C41.5964 213.939 41.463 213.363 41.1964 212.872C40.9297 212.381 40.567 212.008 40.1084 211.752C39.6604 211.485 39.1644 211.352 38.6204 211.352C38.0764 211.352 37.5804 211.48 37.1324 211.736C36.6844 211.992 36.327 212.365 36.0604 212.856C35.7937 213.347 35.6604 213.923 35.6604 214.584C35.6604 215.256 35.7937 215.843 36.0604 216.344C36.327 216.835 36.6844 217.213 37.1324 217.48C37.5804 217.736 38.0764 217.864 38.6204 217.864C39.1644 217.864 39.6604 217.736 40.1084 217.48C40.567 217.213 40.9297 216.835 41.1964 216.344C41.463 215.843 41.5964 215.261 41.5964 214.6ZM49.8009 210.072C50.8675 210.072 51.7315 210.397 52.3929 211.048C53.0542 211.688 53.3849 212.616 53.3849 213.832V219H51.9449V214.04C51.9449 213.165 51.7262 212.499 51.2889 212.04C50.8515 211.571 50.2542 211.336 49.4969 211.336C48.7289 211.336 48.1155 211.576 47.6569 212.056C47.2089 212.536 46.9849 213.235 46.9849 214.152V219H45.5289V210.232H46.9849V211.48C47.2729 211.032 47.6622 210.685 48.1529 210.44C48.6542 210.195 49.2035 210.072 49.8009 210.072ZM55.2193 214.584C55.2193 213.688 55.4006 212.904 55.7633 212.232C56.1259 211.549 56.6219 211.021 57.2513 210.648C57.8913 210.275 58.6006 210.088 59.3793 210.088C60.1473 210.088 60.8139 210.253 61.3793 210.584C61.9446 210.915 62.3659 211.331 62.6433 211.832V210.232H64.1153V219H62.6433V217.368C62.3553 217.88 61.9233 218.307 61.3473 218.648C60.7819 218.979 60.1206 219.144 59.3633 219.144C58.5846 219.144 57.8806 218.952 57.2513 218.568C56.6219 218.184 56.1259 217.645 55.7633 216.952C55.4006 216.259 55.2193 215.469 55.2193 214.584ZM62.6433 214.6C62.6433 213.939 62.5099 213.363 62.2433 212.872C61.9766 212.381 61.6139 212.008 61.1553 211.752C60.7073 211.485 60.2113 211.352 59.6673 211.352C59.1233 211.352 58.6273 211.48 58.1793 211.736C57.7313 211.992 57.3739 212.365 57.1073 212.856C56.8406 213.347 56.7073 213.923 56.7073 214.584C56.7073 215.256 56.8406 215.843 57.1073 216.344C57.3739 216.835 57.7313 217.213 58.1793 217.48C58.6273 217.736 59.1233 217.864 59.6673 217.864C60.2113 217.864 60.7073 217.736 61.1553 217.48C61.6139 217.213 61.9766 216.835 62.2433 216.344C62.5099 215.843 62.6433 215.261 62.6433 214.6ZM70.1918 210.088C70.9491 210.088 71.6104 210.253 72.1758 210.584C72.7518 210.915 73.1784 211.331 73.4558 211.832V210.232H74.9278V219.192C74.9278 219.992 74.7571 220.701 74.4158 221.32C74.0744 221.949 73.5838 222.44 72.9438 222.792C72.3144 223.144 71.5784 223.32 70.7358 223.32C69.5838 223.32 68.6238 223.048 67.8558 222.504C67.0878 221.96 66.6344 221.219 66.4958 220.28H67.9358C68.0958 220.813 68.4264 221.24 68.9278 221.56C69.4291 221.891 70.0318 222.056 70.7358 222.056C71.5358 222.056 72.1864 221.805 72.6878 221.304C73.1998 220.803 73.4558 220.099 73.4558 219.192V217.352C73.1678 217.864 72.7411 218.291 72.1758 218.632C71.6104 218.973 70.9491 219.144 70.1918 219.144C69.4131 219.144 68.7038 218.952 68.0638 218.568C67.4344 218.184 66.9384 217.645 66.5758 216.952C66.2131 216.259 66.0318 215.469 66.0318 214.584C66.0318 213.688 66.2131 212.904 66.5758 212.232C66.9384 211.549 67.4344 211.021 68.0638 210.648C68.7038 210.275 69.4131 210.088 70.1918 210.088ZM73.4558 214.6C73.4558 213.939 73.3224 213.363 73.0558 212.872C72.7891 212.381 72.4264 212.008 71.9678 211.752C71.5198 211.485 71.0238 211.352 70.4798 211.352C69.9358 211.352 69.4398 211.48 68.9918 211.736C68.5438 211.992 68.1864 212.365 67.9198 212.856C67.6531 213.347 67.5198 213.923 67.5198 214.584C67.5198 215.256 67.6531 215.843 67.9198 216.344C68.1864 216.835 68.5438 217.213 68.9918 217.48C69.4398 217.736 69.9358 217.864 70.4798 217.864C71.0238 217.864 71.5198 217.736 71.9678 217.48C72.4264 217.213 72.7891 216.835 73.0558 216.344C73.3224 215.843 73.4558 215.261 73.4558 214.6ZM85.3883 214.28C85.3883 214.557 85.3723 214.851 85.3403 215.16H78.3323C78.3856 216.024 78.6789 216.701 79.2123 217.192C79.7563 217.672 80.4123 217.912 81.1803 217.912C81.8096 217.912 82.3323 217.768 82.7483 217.48C83.1749 217.181 83.4736 216.787 83.6443 216.296H85.2123C84.9776 217.139 84.5083 217.827 83.8043 218.36C83.1003 218.883 82.2256 219.144 81.1803 219.144C80.3483 219.144 79.6016 218.957 78.9403 218.584C78.2896 218.211 77.7776 217.683 77.4043 217C77.0309 216.307 76.8443 215.507 76.8443 214.6C76.8443 213.693 77.0256 212.899 77.3883 212.216C77.7509 211.533 78.2576 211.011 78.9083 210.648C79.5696 210.275 80.3269 210.088 81.1803 210.088C82.0123 210.088 82.7483 210.269 83.3883 210.632C84.0283 210.995 84.5189 211.496 84.8603 212.136C85.2123 212.765 85.3883 213.48 85.3883 214.28ZM83.8843 213.976C83.8843 213.421 83.7616 212.947 83.5163 212.552C83.2709 212.147 82.9349 211.843 82.5083 211.64C82.0923 211.427 81.6283 211.32 81.1163 211.32C80.3803 211.32 79.7509 211.555 79.2283 212.024C78.7163 212.493 78.4229 213.144 78.3483 213.976H83.8843ZM97.8541 210.072C98.5368 210.072 99.1448 210.216 99.6781 210.504C100.211 210.781 100.633 211.203 100.942 211.768C101.251 212.333 101.406 213.021 101.406 213.832V219H99.9661V214.04C99.9661 213.165 99.7475 212.499 99.3101 212.04C98.8835 211.571 98.3021 211.336 97.5661 211.336C96.8088 211.336 96.2061 211.581 95.7581 212.072C95.3101 212.552 95.0861 213.251 95.0861 214.168V219H93.6461V214.04C93.6461 213.165 93.4275 212.499 92.9901 212.04C92.5635 211.571 91.9821 211.336 91.2461 211.336C90.4888 211.336 89.8861 211.581 89.4381 212.072C88.9901 212.552 88.7661 213.251 88.7661 214.168V219H87.3101V210.232H88.7661V211.496C89.0541 211.037 89.4381 210.685 89.9181 210.44C90.4088 210.195 90.9475 210.072 91.5341 210.072C92.2701 210.072 92.9208 210.237 93.4861 210.568C94.0515 210.899 94.4728 211.384 94.7501 212.024C94.9955 211.405 95.4008 210.925 95.9661 210.584C96.5315 210.243 97.1608 210.072 97.8541 210.072ZM111.795 214.28C111.795 214.557 111.779 214.851 111.747 215.16H104.739C104.792 216.024 105.085 216.701 105.619 217.192C106.163 217.672 106.819 217.912 107.587 217.912C108.216 217.912 108.739 217.768 109.155 217.48C109.581 217.181 109.88 216.787 110.051 216.296H111.619C111.384 217.139 110.915 217.827 110.211 218.36C109.507 218.883 108.632 219.144 107.587 219.144C106.755 219.144 106.008 218.957 105.347 218.584C104.696 218.211 104.184 217.683 103.811 217C103.437 216.307 103.251 215.507 103.251 214.6C103.251 213.693 103.432 212.899 103.795 212.216C104.157 211.533 104.664 211.011 105.315 210.648C105.976 210.275 106.733 210.088 107.587 210.088C108.419 210.088 109.155 210.269 109.795 210.632C110.435 210.995 110.925 211.496 111.267 212.136C111.619 212.765 111.795 213.48 111.795 214.28ZM110.291 213.976C110.291 213.421 110.168 212.947 109.923 212.552C109.677 212.147 109.341 211.843 108.915 211.64C108.499 211.427 108.035 211.32 107.523 211.32C106.787 211.32 106.157 211.555 105.635 212.024C105.123 212.493 104.829 213.144 104.755 213.976H110.291ZM117.988 210.072C119.055 210.072 119.919 210.397 120.58 211.048C121.242 211.688 121.572 212.616 121.572 213.832V219H120.132V214.04C120.132 213.165 119.914 212.499 119.476 212.04C119.039 211.571 118.442 211.336 117.684 211.336C116.916 211.336 116.303 211.576 115.844 212.056C115.396 212.536 115.172 213.235 115.172 214.152V219H113.716V210.232H115.172V211.48C115.46 211.032 115.85 210.685 116.34 210.44C116.842 210.195 117.391 210.072 117.988 210.072ZM125.727 211.432V216.6C125.727 217.027 125.817 217.331 125.999 217.512C126.18 217.683 126.495 217.768 126.943 217.768H128.015V219H126.703C125.892 219 125.284 218.813 124.879 218.44C124.473 218.067 124.271 217.453 124.271 216.6V211.432H123.135V210.232H124.271V208.024H125.727V210.232H128.015V211.432H125.727ZM133.501 214.584C133.501 213.688 133.682 212.904 134.045 212.232C134.407 211.549 134.903 211.021 135.533 210.648C136.173 210.275 136.882 210.088 137.661 210.088C138.429 210.088 139.095 210.253 139.661 210.584C140.226 210.915 140.647 211.331 140.925 211.832V210.232H142.397V219H140.925V217.368C140.637 217.88 140.205 218.307 139.629 218.648C139.063 218.979 138.402 219.144 137.645 219.144C136.866 219.144 136.162 218.952 135.533 218.568C134.903 218.184 134.407 217.645 134.045 216.952C133.682 216.259 133.501 215.469 133.501 214.584ZM140.925 214.6C140.925 213.939 140.791 213.363 140.525 212.872C140.258 212.381 139.895 212.008 139.437 211.752C138.989 211.485 138.493 211.352 137.949 211.352C137.405 211.352 136.909 211.48 136.461 211.736C136.013 211.992 135.655 212.365 135.389 212.856C135.122 213.347 134.989 213.923 134.989 214.584C134.989 215.256 135.122 215.843 135.389 216.344C135.655 216.835 136.013 217.213 136.461 217.48C136.909 217.736 137.405 217.864 137.949 217.864C138.493 217.864 138.989 217.736 139.437 217.48C139.895 217.213 140.258 216.835 140.525 216.344C140.791 215.843 140.925 215.261 140.925 214.6ZM146.313 211.848C146.601 211.347 147.028 210.931 147.593 210.6C148.169 210.259 148.836 210.088 149.593 210.088C150.372 210.088 151.076 210.275 151.705 210.648C152.345 211.021 152.846 211.549 153.209 212.232C153.572 212.904 153.753 213.688 153.753 214.584C153.753 215.469 153.572 216.259 153.209 216.952C152.846 217.645 152.345 218.184 151.705 218.568C151.076 218.952 150.372 219.144 149.593 219.144C148.846 219.144 148.185 218.979 147.609 218.648C147.044 218.307 146.612 217.885 146.313 217.384V223.16H144.857V210.232H146.313V211.848ZM152.265 214.584C152.265 213.923 152.132 213.347 151.865 212.856C151.598 212.365 151.236 211.992 150.777 211.736C150.329 211.48 149.833 211.352 149.289 211.352C148.756 211.352 148.26 211.485 147.801 211.752C147.353 212.008 146.99 212.387 146.713 212.888C146.446 213.379 146.313 213.949 146.313 214.6C146.313 215.261 146.446 215.843 146.713 216.344C146.99 216.835 147.353 217.213 147.801 217.48C148.26 217.736 148.756 217.864 149.289 217.864C149.833 217.864 150.329 217.736 150.777 217.48C151.236 217.213 151.598 216.835 151.865 216.344C152.132 215.843 152.265 215.256 152.265 214.584ZM157.126 211.848C157.414 211.347 157.84 210.931 158.406 210.6C158.982 210.259 159.648 210.088 160.406 210.088C161.184 210.088 161.888 210.275 162.517 210.648C163.157 211.021 163.659 211.549 164.022 212.232C164.384 212.904 164.566 213.688 164.566 214.584C164.566 215.469 164.384 216.259 164.022 216.952C163.659 217.645 163.157 218.184 162.517 218.568C161.888 218.952 161.184 219.144 160.406 219.144C159.659 219.144 158.998 218.979 158.422 218.648C157.856 218.307 157.424 217.885 157.126 217.384V223.16H155.67V210.232H157.126V211.848ZM163.078 214.584C163.078 213.923 162.944 213.347 162.678 212.856C162.411 212.365 162.048 211.992 161.59 211.736C161.142 211.48 160.646 211.352 160.102 211.352C159.568 211.352 159.072 211.485 158.614 211.752C158.166 212.008 157.803 212.387 157.526 212.888C157.259 213.379 157.126 213.949 157.126 214.6C157.126 215.261 157.259 215.843 157.526 216.344C157.803 216.835 158.166 217.213 158.614 217.48C159.072 217.736 159.568 217.864 160.102 217.864C160.646 217.864 161.142 217.736 161.59 217.48C162.048 217.213 162.411 216.835 162.678 216.344C162.944 215.843 163.078 215.256 163.078 214.584ZM169.586 219.144C168.914 219.144 168.311 219.032 167.778 218.808C167.245 218.573 166.823 218.253 166.514 217.848C166.205 217.432 166.034 216.957 166.002 216.424H167.506C167.549 216.861 167.751 217.219 168.114 217.496C168.487 217.773 168.973 217.912 169.57 217.912C170.125 217.912 170.562 217.789 170.882 217.544C171.202 217.299 171.362 216.989 171.362 216.616C171.362 216.232 171.191 215.949 170.85 215.768C170.509 215.576 169.981 215.389 169.266 215.208C168.615 215.037 168.082 214.867 167.666 214.696C167.261 214.515 166.909 214.253 166.61 213.912C166.322 213.56 166.178 213.101 166.178 212.536C166.178 212.088 166.311 211.677 166.578 211.304C166.845 210.931 167.223 210.637 167.714 210.424C168.205 210.2 168.765 210.088 169.394 210.088C170.365 210.088 171.149 210.333 171.746 210.824C172.343 211.315 172.663 211.987 172.706 212.84H171.25C171.218 212.381 171.031 212.013 170.69 211.736C170.359 211.459 169.911 211.32 169.346 211.32C168.823 211.32 168.407 211.432 168.098 211.656C167.789 211.88 167.634 212.173 167.634 212.536C167.634 212.824 167.725 213.064 167.906 213.256C168.098 213.437 168.333 213.587 168.61 213.704C168.898 213.811 169.293 213.933 169.794 214.072C170.423 214.243 170.935 214.413 171.33 214.584C171.725 214.744 172.061 214.989 172.338 215.32C172.626 215.651 172.775 216.083 172.786 216.616C172.786 217.096 172.653 217.528 172.386 217.912C172.119 218.296 171.741 218.6 171.25 218.824C170.77 219.037 170.215 219.144 169.586 219.144ZM175.305 219.096C175.028 219.096 174.793 219 174.601 218.808C174.409 218.616 174.313 218.381 174.313 218.104C174.313 217.827 174.409 217.592 174.601 217.4C174.793 217.208 175.028 217.112 175.305 217.112C175.572 217.112 175.796 217.208 175.977 217.4C176.169 217.592 176.265 217.827 176.265 218.104C176.265 218.381 176.169 218.616 175.977 218.808C175.796 219 175.572 219.096 175.305 219.096Z" fill="#1A0062"/>
<path d="M290.247 2.42919C290.125 6.09855 290.124 21.0341 291.102 51.4217L291.407 68.919L296.254 58.3328L301.424 66.2438L304.69 61.186L309.293 68.6068L311.956 61.0592L315.956 65.9902L314.839 1.99993L310.996 6.06761L308.132 2.117L303.731 6.19444L300.307 2.25358L295.347 6.34077L290.247 2.42919Z" fill="#E6CA3A" fill-opacity="0.66" stroke="#FEFEFD"/>
<g filter="url(#filter1_d_10_36)">
<circle cx="303.5" cy="18.5" r="7.5" fill="#050B43"/>
</g>
<path d="M60.2469 2.42919C60.1246 6.09855 60.1244 21.0341 61.102 51.4217L61.4075 68.919L66.2544 58.3328L71.4242 66.2438L74.6904 61.186L79.2926 68.6068L81.9562 61.0592L85.9559 65.9902L84.8389 1.99993L80.9963 6.06761L78.132 2.117L73.7305 6.19444L70.3072 2.25358L65.3468 6.34077L60.2469 2.42919Z" fill="#E6CA3A" fill-opacity="0.66" stroke="#FEFEFD"/>
<g filter="url(#filter2_d_10_36)">
<circle cx="73.5" cy="18.5" r="7.5" fill="#050B43"/>
</g>
<defs>
<filter id="filter0_d_10_36" x="0" y="35" width="383" height="228" filterUnits="userSpaceOnUse" color-interpolation-filters="sRGB">
<feFlood flood-opacity="0" result="BackgroundImageFix"/>
<feColorMatrix in="SourceAlpha" type="matrix" values="0 0 0 0 0 0 0 0 0 0 0 0 0 0 0 0 0 0 127 0" result="hardAlpha"/>
<feOffset dx="8" dy="12"/>
<feGaussianBlur stdDeviation="3"/>
<feComposite in2="hardAlpha" operator="out"/>
<feColorMatrix type="matrix" values="0 0 0 0 0.0152778 0 0 0 0 0.161583 0 0 0 0 0.333333 0 0 0 0.42 0"/>
<feBlend mode="normal" in2="BackgroundImageFix" result="effect1_dropShadow_10_36"/>
<feBlend mode="normal" in="SourceGraphic" in2="effect1_dropShadow_10_36" result="shape"/>
</filter>
<filter id="filter1_d_10_36" x="289" y="5" width="27" height="27" filterUnits="userSpaceOnUse" color-interpolation-filters="sRGB">
<feFlood flood-opacity="0" result="BackgroundImageFix"/>
<feColorMatrix in="SourceAlpha" type="matrix" values="0 0 0 0 0 0 0 0 0 0 0 0 0 0 0 0 0 0 127 0" result="hardAlpha"/>
<feOffset dx="-1"/>
<feGaussianBlur stdDeviation="3"/>
<feComposite in2="hardAlpha" operator="out"/>
<feColorMatrix type="matrix" values="0 0 0 0 0 0 0 0 0 0 0 0 0 0 0 0 0 0 0.54 0"/>
<feBlend mode="normal" in2="BackgroundImageFix" result="effect1_dropShadow_10_36"/>
<feBlend mode="normal" in="SourceGraphic" in2="effect1_dropShadow_10_36" result="shape"/>
</filter>
<filter id="filter2_d_10_36" x="59" y="5" width="27" height="27" filterUnits="userSpaceOnUse" color-interpolation-filters="sRGB">
<feFlood flood-opacity="0" result="BackgroundImageFix"/>
<feColorMatrix in="SourceAlpha" type="matrix" values="0 0 0 0 0 0 0 0 0 0 0 0 0 0 0 0 0 0 127 0" result="hardAlpha"/>
<feOffset dx="-1"/>
<feGaussianBlur stdDeviation="3"/>
<feComposite in2="hardAlpha" operator="out"/>
<feColorMatrix type="matrix" values="0 0 0 0 0 0 0 0 0 0 0 0 0 0 0 0 0 0 0.54 0"/>
<feBlend mode="normal" in2="BackgroundImageFix" result="effect1_dropShadow_10_36"/>
<feBlend mode="normal" in="SourceGraphic" in2="effect1_dropShadow_10_36" result="shape"/>
</filter>
</defs>
</svg>
