<svg width="383" height="263" viewBox="0 0 383 263" fill="none" xmlns="http://www.w3.org/2000/svg">
<g filter="url(#filter0_d_10_46)">
<rect y="35" width="369" height="210" rx="8" fill="#66D1F3" fill-opacity="0.69" shape-rendering="crispEdges"/>
</g>
<path d="M56.7076 108.18V112.156H63.1196V115.852H56.7076V120.164H63.9596V124H51.9196V104.344H63.9596V108.18H56.7076ZM66.116 116.16C66.116 114.555 66.4147 113.145 67.012 111.932C67.628 110.719 68.4587 109.785 69.504 109.132C70.5494 108.479 71.716 108.152 73.004 108.152C74.1054 108.152 75.0667 108.376 75.888 108.824C76.728 109.272 77.372 109.86 77.82 110.588V108.376H82.608V124H77.82V121.788C77.3534 122.516 76.7 123.104 75.86 123.552C75.0387 124 74.0774 124.224 72.976 124.224C71.7067 124.224 70.5494 123.897 69.504 123.244C68.4587 122.572 67.628 121.629 67.012 120.416C66.4147 119.184 66.116 117.765 66.116 116.16ZM77.82 116.188C77.82 114.993 77.484 114.051 76.812 113.36C76.1587 112.669 75.356 112.324 74.404 112.324C73.452 112.324 72.64 112.669 71.968 113.36C71.3147 114.032 70.988 114.965 70.988 116.16C70.988 117.355 71.3147 118.307 71.968 119.016C72.64 119.707 73.452 120.052 74.404 120.052C75.356 120.052 76.1587 119.707 76.812 119.016C77.484 118.325 77.82 117.383 77.82 116.188ZM92.4279 124.224C91.0653 124.224 89.8519 123.991 88.7879 123.524C87.7239 123.057 86.8839 122.423 86.2679 121.62C85.6519 120.799 85.3066 119.884 85.2319 118.876H89.9639C90.0199 119.417 90.2719 119.856 90.7199 120.192C91.1679 120.528 91.7186 120.696 92.3719 120.696C92.9693 120.696 93.4266 120.584 93.7439 120.36C94.0799 120.117 94.2479 119.809 94.2479 119.436C94.2479 118.988 94.0146 118.661 93.5479 118.456C93.0813 118.232 92.3253 117.989 91.2799 117.728C90.1599 117.467 89.2266 117.196 88.4799 116.916C87.7333 116.617 87.0893 116.16 86.5479 115.544C86.0066 114.909 85.7359 114.06 85.7359 112.996C85.7359 112.1 85.9786 111.288 86.4639 110.56C86.9679 109.813 87.6959 109.225 88.6479 108.796C89.6186 108.367 90.7666 108.152 92.0919 108.152C94.0519 108.152 95.5919 108.637 96.7119 109.608C97.8506 110.579 98.5039 111.867 98.6719 113.472H94.2479C94.1733 112.931 93.9306 112.501 93.5199 112.184C93.1279 111.867 92.6053 111.708 91.9519 111.708C91.3919 111.708 90.9626 111.82 90.6639 112.044C90.3653 112.249 90.2159 112.539 90.2159 112.912C90.2159 113.36 90.4493 113.696 90.9159 113.92C91.4013 114.144 92.1479 114.368 93.1559 114.592C94.3133 114.891 95.2559 115.189 95.9839 115.488C96.7119 115.768 97.3466 116.235 97.8879 116.888C98.4479 117.523 98.7373 118.381 98.7559 119.464C98.7559 120.379 98.4946 121.2 97.9719 121.928C97.4679 122.637 96.7306 123.197 95.7599 123.608C94.8079 124.019 93.6973 124.224 92.4279 124.224ZM117.645 108.376L107.845 131.42H102.693L106.277 123.468L99.9212 108.376H105.269L108.881 118.148L112.465 108.376H117.645ZM124.358 116.16C124.358 114.555 124.657 113.145 125.254 111.932C125.87 110.719 126.701 109.785 127.746 109.132C128.792 108.479 129.958 108.152 131.246 108.152C132.348 108.152 133.309 108.376 134.13 108.824C134.97 109.272 135.614 109.86 136.062 110.588V108.376H140.85V124H136.062V121.788C135.596 122.516 134.942 123.104 134.102 123.552C133.281 124 132.32 124.224 131.218 124.224C129.949 124.224 128.792 123.897 127.746 123.244C126.701 122.572 125.87 121.629 125.254 120.416C124.657 119.184 124.358 117.765 124.358 116.16ZM136.062 116.188C136.062 114.993 135.726 114.051 135.054 113.36C134.401 112.669 133.598 112.324 132.646 112.324C131.694 112.324 130.882 112.669 130.21 113.36C129.557 114.032 129.23 114.965 129.23 116.16C129.23 117.355 129.557 118.307 130.21 119.016C130.882 119.707 131.694 120.052 132.646 120.052C133.598 120.052 134.401 119.707 135.054 119.016C135.726 118.325 136.062 117.383 136.062 116.188ZM153.834 108.208C155.663 108.208 157.119 108.805 158.202 110C159.303 111.176 159.854 112.8 159.854 114.872V124H155.094V115.516C155.094 114.471 154.823 113.659 154.282 113.08C153.741 112.501 153.013 112.212 152.098 112.212C151.183 112.212 150.455 112.501 149.914 113.08C149.373 113.659 149.102 114.471 149.102 115.516V124H144.314V108.376H149.102V110.448C149.587 109.757 150.241 109.216 151.062 108.824C151.883 108.413 152.807 108.208 153.834 108.208ZM162.229 116.16C162.229 114.555 162.528 113.145 163.125 111.932C163.741 110.719 164.572 109.785 165.617 109.132C166.663 108.479 167.829 108.152 169.117 108.152C170.144 108.152 171.077 108.367 171.917 108.796C172.776 109.225 173.448 109.804 173.933 110.532V103.28H178.721V124H173.933V121.76C173.485 122.507 172.841 123.104 172.001 123.552C171.18 124 170.219 124.224 169.117 124.224C167.829 124.224 166.663 123.897 165.617 123.244C164.572 122.572 163.741 121.629 163.125 120.416C162.528 119.184 162.229 117.765 162.229 116.16ZM173.933 116.188C173.933 114.993 173.597 114.051 172.925 113.36C172.272 112.669 171.469 112.324 170.517 112.324C169.565 112.324 168.753 112.669 168.081 113.36C167.428 114.032 167.101 114.965 167.101 116.16C167.101 117.355 167.428 118.307 168.081 119.016C168.753 119.707 169.565 120.052 170.517 120.052C171.469 120.052 172.272 119.707 172.925 119.016C173.597 118.325 173.933 117.383 173.933 116.188ZM192.907 110.588C193.373 109.86 194.017 109.272 194.839 108.824C195.66 108.376 196.621 108.152 197.723 108.152C199.011 108.152 200.177 108.479 201.223 109.132C202.268 109.785 203.089 110.719 203.687 111.932C204.303 113.145 204.611 114.555 204.611 116.16C204.611 117.765 204.303 119.184 203.687 120.416C203.089 121.629 202.268 122.572 201.223 123.244C200.177 123.897 199.011 124.224 197.723 124.224C196.64 124.224 195.679 124 194.839 123.552C194.017 123.104 193.373 122.525 192.907 121.816V131.448H188.119V108.376H192.907V110.588ZM199.739 116.16C199.739 114.965 199.403 114.032 198.731 113.36C198.077 112.669 197.265 112.324 196.295 112.324C195.343 112.324 194.531 112.669 193.859 113.36C193.205 114.051 192.879 114.993 192.879 116.188C192.879 117.383 193.205 118.325 193.859 119.016C194.531 119.707 195.343 120.052 196.295 120.052C197.247 120.052 198.059 119.707 198.731 119.016C199.403 118.307 199.739 117.355 199.739 116.16ZM214.235 124.224C212.704 124.224 211.323 123.897 210.091 123.244C208.877 122.591 207.916 121.657 207.207 120.444C206.516 119.231 206.171 117.812 206.171 116.188C206.171 114.583 206.525 113.173 207.235 111.96C207.944 110.728 208.915 109.785 210.147 109.132C211.379 108.479 212.76 108.152 214.291 108.152C215.821 108.152 217.203 108.479 218.435 109.132C219.667 109.785 220.637 110.728 221.347 111.96C222.056 113.173 222.411 114.583 222.411 116.188C222.411 117.793 222.047 119.212 221.319 120.444C220.609 121.657 219.629 122.591 218.379 123.244C217.147 123.897 215.765 124.224 214.235 124.224ZM214.235 120.08C215.149 120.08 215.924 119.744 216.559 119.072C217.212 118.4 217.539 117.439 217.539 116.188C217.539 114.937 217.221 113.976 216.587 113.304C215.971 112.632 215.205 112.296 214.291 112.296C213.357 112.296 212.583 112.632 211.967 113.304C211.351 113.957 211.043 114.919 211.043 116.188C211.043 117.439 211.341 118.4 211.939 119.072C212.555 119.744 213.32 120.08 214.235 120.08ZM247.379 108.376L243.151 124H237.859L235.395 113.864L232.847 124H227.583L223.327 108.376H228.115L230.327 119.548L232.959 108.376H238.027L240.687 119.492L242.871 108.376H247.379ZM263.933 115.936C263.933 116.384 263.905 116.851 263.849 117.336H253.013C253.087 118.307 253.395 119.053 253.937 119.576C254.497 120.08 255.178 120.332 255.981 120.332C257.175 120.332 258.006 119.828 258.473 118.82H263.569C263.307 119.847 262.831 120.771 262.141 121.592C261.469 122.413 260.619 123.057 259.593 123.524C258.566 123.991 257.418 124.224 256.149 124.224C254.618 124.224 253.255 123.897 252.061 123.244C250.866 122.591 249.933 121.657 249.261 120.444C248.589 119.231 248.253 117.812 248.253 116.188C248.253 114.564 248.579 113.145 249.233 111.932C249.905 110.719 250.838 109.785 252.033 109.132C253.227 108.479 254.599 108.152 256.149 108.152C257.661 108.152 259.005 108.469 260.181 109.104C261.357 109.739 262.271 110.644 262.925 111.82C263.597 112.996 263.933 114.368 263.933 115.936ZM259.033 114.676C259.033 113.855 258.753 113.201 258.193 112.716C257.633 112.231 256.933 111.988 256.093 111.988C255.29 111.988 254.609 112.221 254.049 112.688C253.507 113.155 253.171 113.817 253.041 114.676H259.033ZM271.247 110.98C271.807 110.121 272.507 109.449 273.347 108.964C274.187 108.46 275.12 108.208 276.147 108.208V113.276H274.831C273.636 113.276 272.74 113.537 272.143 114.06C271.545 114.564 271.247 115.46 271.247 116.748V124H266.459V108.376H271.247V110.98ZM286.275 112.352H283.699V124H278.911V112.352H277.175V108.376H278.911V107.928C278.911 106.005 279.462 104.549 280.563 103.56C281.665 102.552 283.279 102.048 285.407 102.048C285.762 102.048 286.023 102.057 286.191 102.076V106.136C285.277 106.08 284.633 106.211 284.259 106.528C283.886 106.845 283.699 107.415 283.699 108.236V108.376H286.275V112.352ZM303.953 108.376V124H299.165V121.872C298.68 122.563 298.017 123.123 297.177 123.552C296.356 123.963 295.441 124.168 294.433 124.168C293.238 124.168 292.184 123.907 291.269 123.384C290.354 122.843 289.645 122.068 289.141 121.06C288.637 120.052 288.385 118.867 288.385 117.504V108.376H293.145V116.86C293.145 117.905 293.416 118.717 293.957 119.296C294.498 119.875 295.226 120.164 296.141 120.164C297.074 120.164 297.812 119.875 298.353 119.296C298.894 118.717 299.165 117.905 299.165 116.86V108.376H303.953ZM312.18 103.28V124H307.392V103.28H312.18ZM317.89 124.224C317.05 124.224 316.359 123.981 315.818 123.496C315.295 122.992 315.034 122.376 315.034 121.648C315.034 120.901 315.295 120.276 315.818 119.772C316.359 119.268 317.05 119.016 317.89 119.016C318.711 119.016 319.383 119.268 319.906 119.772C320.447 120.276 320.718 120.901 320.718 121.648C320.718 122.376 320.447 122.992 319.906 123.496C319.383 123.981 318.711 124.224 317.89 124.224Z" fill="#1C013E"/>
<path d="M25.096 159.848V161.032H22.056V171H20.6V161.032H17.544V159.848H25.096ZM26.3443 166.584C26.3443 165.688 26.5256 164.904 26.8883 164.232C27.2509 163.549 27.7469 163.021 28.3763 162.648C29.0163 162.275 29.7256 162.088 30.5043 162.088C31.2723 162.088 31.9389 162.253 32.5043 162.584C33.0696 162.915 33.4909 163.331 33.7683 163.832V162.232H35.2403V171H33.7683V169.368C33.4803 169.88 33.0483 170.307 32.4723 170.648C31.9069 170.979 31.2456 171.144 30.4883 171.144C29.7096 171.144 29.0056 170.952 28.3763 170.568C27.7469 170.184 27.2509 169.645 26.8883 168.952C26.5256 168.259 26.3443 167.469 26.3443 166.584ZM33.7683 166.6C33.7683 165.939 33.6349 165.363 33.3683 164.872C33.1016 164.381 32.7389 164.008 32.2803 163.752C31.8323 163.485 31.3363 163.352 30.7923 163.352C30.2483 163.352 29.7523 163.48 29.3043 163.736C28.8563 163.992 28.4989 164.365 28.2323 164.856C27.9656 165.347 27.8323 165.923 27.8323 166.584C27.8323 167.256 27.9656 167.843 28.2323 168.344C28.4989 168.835 28.8563 169.213 29.3043 169.48C29.7523 169.736 30.2483 169.864 30.7923 169.864C31.3363 169.864 31.8323 169.736 32.2803 169.48C32.7389 169.213 33.1016 168.835 33.3683 168.344C33.6349 167.843 33.7683 167.261 33.7683 166.6ZM40.8048 171.144C40.1328 171.144 39.5301 171.032 38.9968 170.808C38.4634 170.573 38.0421 170.253 37.7328 169.848C37.4234 169.432 37.2528 168.957 37.2208 168.424H38.7248C38.7674 168.861 38.9701 169.219 39.3328 169.496C39.7061 169.773 40.1914 169.912 40.7888 169.912C41.3434 169.912 41.7808 169.789 42.1008 169.544C42.4208 169.299 42.5808 168.989 42.5808 168.616C42.5808 168.232 42.4101 167.949 42.0688 167.768C41.7274 167.576 41.1994 167.389 40.4848 167.208C39.8341 167.037 39.3008 166.867 38.8848 166.696C38.4794 166.515 38.1274 166.253 37.8288 165.912C37.5408 165.56 37.3968 165.101 37.3968 164.536C37.3968 164.088 37.5301 163.677 37.7968 163.304C38.0634 162.931 38.4421 162.637 38.9328 162.424C39.4234 162.2 39.9834 162.088 40.6128 162.088C41.5834 162.088 42.3674 162.333 42.9648 162.824C43.5621 163.315 43.8821 163.987 43.9248 164.84H42.4688C42.4368 164.381 42.2501 164.013 41.9088 163.736C41.5781 163.459 41.1301 163.32 40.5648 163.32C40.0421 163.32 39.6261 163.432 39.3168 163.656C39.0074 163.88 38.8528 164.173 38.8528 164.536C38.8528 164.824 38.9434 165.064 39.1248 165.256C39.3168 165.437 39.5514 165.587 39.8288 165.704C40.1168 165.811 40.5114 165.933 41.0128 166.072C41.6421 166.243 42.1541 166.413 42.5488 166.584C42.9434 166.744 43.2794 166.989 43.5568 167.32C43.8448 167.651 43.9941 168.083 44.0048 168.616C44.0048 169.096 43.8714 169.528 43.6048 169.912C43.3381 170.296 42.9594 170.6 42.4688 170.824C41.9888 171.037 41.4341 171.144 40.8048 171.144ZM50.9561 171L47.5161 167.128V171H46.0601V159.16H47.5161V166.12L50.8921 162.232H52.9241L48.7961 166.6L52.9401 171H50.9561ZM62.2945 166.28C62.2945 166.557 62.2785 166.851 62.2465 167.16H55.2385C55.2918 168.024 55.5852 168.701 56.1185 169.192C56.6625 169.672 57.3185 169.912 58.0865 169.912C58.7158 169.912 59.2385 169.768 59.6545 169.48C60.0812 169.181 60.3798 168.787 60.5505 168.296H62.1185C61.8838 169.139 61.4145 169.827 60.7105 170.36C60.0065 170.883 59.1318 171.144 58.0865 171.144C57.2545 171.144 56.5078 170.957 55.8465 170.584C55.1958 170.211 54.6838 169.683 54.3105 169C53.9372 168.307 53.7505 167.507 53.7505 166.6C53.7505 165.693 53.9318 164.899 54.2945 164.216C54.6572 163.533 55.1638 163.011 55.8145 162.648C56.4758 162.275 57.2332 162.088 58.0865 162.088C58.9185 162.088 59.6545 162.269 60.2945 162.632C60.9345 162.995 61.4252 163.496 61.7665 164.136C62.1185 164.765 62.2945 165.48 62.2945 166.28ZM60.7905 165.976C60.7905 165.421 60.6678 164.947 60.4225 164.552C60.1772 164.147 59.8412 163.843 59.4145 163.64C58.9985 163.427 58.5345 163.32 58.0225 163.32C57.2865 163.32 56.6572 163.555 56.1345 164.024C55.6225 164.493 55.3292 165.144 55.2545 165.976H60.7905ZM65.6724 163.656C65.9284 163.155 66.291 162.765 66.7604 162.488C67.2404 162.211 67.8217 162.072 68.5044 162.072V163.576H68.1204C66.4884 163.576 65.6724 164.461 65.6724 166.232V171H64.2164V162.232H65.6724V163.656ZM75.2028 160.808C74.9254 160.808 74.6908 160.712 74.4988 160.52C74.3068 160.328 74.2108 160.093 74.2108 159.816C74.2108 159.539 74.3068 159.304 74.4988 159.112C74.6908 158.92 74.9254 158.824 75.2028 158.824C75.4694 158.824 75.6934 158.92 75.8748 159.112C76.0668 159.304 76.1628 159.539 76.1628 159.816C76.1628 160.093 76.0668 160.328 75.8748 160.52C75.6934 160.712 75.4694 160.808 75.2028 160.808ZM75.9068 162.232V171H74.4508V162.232H75.9068ZM81.4923 171.144C80.8203 171.144 80.2176 171.032 79.6843 170.808C79.1509 170.573 78.7296 170.253 78.4203 169.848C78.1109 169.432 77.9403 168.957 77.9083 168.424H79.4123C79.4549 168.861 79.6576 169.219 80.0203 169.496C80.3936 169.773 80.8789 169.912 81.4763 169.912C82.0309 169.912 82.4683 169.789 82.7883 169.544C83.1083 169.299 83.2683 168.989 83.2683 168.616C83.2683 168.232 83.0976 167.949 82.7563 167.768C82.4149 167.576 81.8869 167.389 81.1723 167.208C80.5216 167.037 79.9883 166.867 79.5723 166.696C79.1669 166.515 78.8149 166.253 78.5163 165.912C78.2283 165.56 78.0843 165.101 78.0843 164.536C78.0843 164.088 78.2176 163.677 78.4843 163.304C78.7509 162.931 79.1296 162.637 79.6203 162.424C80.1109 162.2 80.6709 162.088 81.3003 162.088C82.2709 162.088 83.0549 162.333 83.6523 162.824C84.2496 163.315 84.5696 163.987 84.6123 164.84H83.1563C83.1243 164.381 82.9376 164.013 82.5963 163.736C82.2656 163.459 81.8176 163.32 81.2523 163.32C80.7296 163.32 80.3136 163.432 80.0043 163.656C79.6949 163.88 79.5403 164.173 79.5403 164.536C79.5403 164.824 79.6309 165.064 79.8123 165.256C80.0043 165.437 80.2389 165.587 80.5163 165.704C80.8043 165.811 81.1989 165.933 81.7003 166.072C82.3296 166.243 82.8416 166.413 83.2363 166.584C83.6309 166.744 83.9669 166.989 84.2443 167.32C84.5323 167.651 84.6816 168.083 84.6923 168.616C84.6923 169.096 84.5589 169.528 84.2923 169.912C84.0256 170.296 83.6469 170.6 83.1563 170.824C82.6763 171.037 82.1216 171.144 81.4923 171.144ZM94.5813 163.432H92.7413V171H91.2853V163.432H90.1493V162.232H91.2853V161.608C91.2853 160.627 91.5359 159.912 92.0373 159.464C92.5493 159.005 93.3653 158.776 94.4852 158.776V159.992C93.8453 159.992 93.3919 160.12 93.1253 160.376C92.8693 160.621 92.7413 161.032 92.7413 161.608V162.232H94.5813V163.432ZM95.7349 166.584C95.7349 165.688 95.9162 164.904 96.2789 164.232C96.6415 163.549 97.1375 163.021 97.7669 162.648C98.4069 162.275 99.1162 162.088 99.8949 162.088C100.663 162.088 101.33 162.253 101.895 162.584C102.46 162.915 102.882 163.331 103.159 163.832V162.232H104.631V171H103.159V169.368C102.871 169.88 102.439 170.307 101.863 170.648C101.298 170.979 100.636 171.144 99.8789 171.144C99.1002 171.144 98.3962 170.952 97.7669 170.568C97.1375 170.184 96.6415 169.645 96.2789 168.952C95.9162 168.259 95.7349 167.469 95.7349 166.584ZM103.159 166.6C103.159 165.939 103.026 165.363 102.759 164.872C102.492 164.381 102.13 164.008 101.671 163.752C101.223 163.485 100.727 163.352 100.183 163.352C99.6389 163.352 99.1429 163.48 98.6949 163.736C98.2469 163.992 97.8895 164.365 97.6229 164.856C97.3562 165.347 97.2229 165.923 97.2229 166.584C97.2229 167.256 97.3562 167.843 97.6229 168.344C97.8895 168.835 98.2469 169.213 98.6949 169.48C99.1429 169.736 99.6389 169.864 100.183 169.864C100.727 169.864 101.223 169.736 101.671 169.48C102.13 169.213 102.492 168.835 102.759 168.344C103.026 167.843 103.159 167.261 103.159 166.6ZM117.635 162.072C118.318 162.072 118.926 162.216 119.459 162.504C119.993 162.781 120.414 163.203 120.723 163.768C121.033 164.333 121.187 165.021 121.187 165.832V171H119.747V166.04C119.747 165.165 119.529 164.499 119.091 164.04C118.665 163.571 118.083 163.336 117.347 163.336C116.59 163.336 115.987 163.581 115.539 164.072C115.091 164.552 114.867 165.251 114.867 166.168V171H113.427V166.04C113.427 165.165 113.209 164.499 112.771 164.04C112.345 163.571 111.763 163.336 111.027 163.336C110.27 163.336 109.667 163.581 109.219 164.072C108.771 164.552 108.547 165.251 108.547 166.168V171H107.091V162.232H108.547V163.496C108.835 163.037 109.219 162.685 109.699 162.44C110.19 162.195 110.729 162.072 111.315 162.072C112.051 162.072 112.702 162.237 113.267 162.568C113.833 162.899 114.254 163.384 114.531 164.024C114.777 163.405 115.182 162.925 115.747 162.584C116.313 162.243 116.942 162.072 117.635 162.072ZM124.328 160.808C124.05 160.808 123.816 160.712 123.624 160.52C123.432 160.328 123.336 160.093 123.336 159.816C123.336 159.539 123.432 159.304 123.624 159.112C123.816 158.92 124.05 158.824 124.328 158.824C124.594 158.824 124.818 158.92 125 159.112C125.192 159.304 125.288 159.539 125.288 159.816C125.288 160.093 125.192 160.328 125 160.52C124.818 160.712 124.594 160.808 124.328 160.808ZM125.032 162.232V171H123.576V162.232H125.032ZM128.969 159.16V171H127.513V159.16H128.969ZM132.203 160.808C131.925 160.808 131.691 160.712 131.499 160.52C131.307 160.328 131.211 160.093 131.211 159.816C131.211 159.539 131.307 159.304 131.499 159.112C131.691 158.92 131.925 158.824 132.203 158.824C132.469 158.824 132.693 158.92 132.875 159.112C133.067 159.304 133.163 159.539 133.163 159.816C133.163 160.093 133.067 160.328 132.875 160.52C132.693 160.712 132.469 160.808 132.203 160.808ZM132.907 162.232V171H131.451V162.232H132.907ZM134.844 166.584C134.844 165.688 135.026 164.904 135.388 164.232C135.751 163.549 136.247 163.021 136.876 162.648C137.516 162.275 138.226 162.088 139.004 162.088C139.772 162.088 140.439 162.253 141.004 162.584C141.57 162.915 141.991 163.331 142.268 163.832V162.232H143.74V171H142.268V169.368C141.98 169.88 141.548 170.307 140.972 170.648C140.407 170.979 139.746 171.144 138.988 171.144C138.21 171.144 137.506 170.952 136.876 170.568C136.247 170.184 135.751 169.645 135.388 168.952C135.026 168.259 134.844 167.469 134.844 166.584ZM142.268 166.6C142.268 165.939 142.135 165.363 141.868 164.872C141.602 164.381 141.239 164.008 140.78 163.752C140.332 163.485 139.836 163.352 139.292 163.352C138.748 163.352 138.252 163.48 137.804 163.736C137.356 163.992 136.999 164.365 136.732 164.856C136.466 165.347 136.332 165.923 136.332 166.584C136.332 167.256 136.466 167.843 136.732 168.344C136.999 168.835 137.356 169.213 137.804 169.48C138.252 169.736 138.748 169.864 139.292 169.864C139.836 169.864 140.332 169.736 140.78 169.48C141.239 169.213 141.602 168.835 141.868 168.344C142.135 167.843 142.268 167.261 142.268 166.6ZM147.657 163.656C147.913 163.155 148.275 162.765 148.745 162.488C149.225 162.211 149.806 162.072 150.489 162.072V163.576H150.105C148.473 163.576 147.657 164.461 147.657 166.232V171H146.201V162.232H147.657V163.656ZM155.891 166.584C155.891 165.688 156.072 164.904 156.435 164.232C156.798 163.549 157.294 163.021 157.923 162.648C158.563 162.275 159.272 162.088 160.051 162.088C160.819 162.088 161.486 162.253 162.051 162.584C162.616 162.915 163.038 163.331 163.315 163.832V162.232H164.787V171H163.315V169.368C163.027 169.88 162.595 170.307 162.019 170.648C161.454 170.979 160.792 171.144 160.035 171.144C159.256 171.144 158.552 170.952 157.923 170.568C157.294 170.184 156.798 169.645 156.435 168.952C156.072 168.259 155.891 167.469 155.891 166.584ZM163.315 166.6C163.315 165.939 163.182 165.363 162.915 164.872C162.648 164.381 162.286 164.008 161.827 163.752C161.379 163.485 160.883 163.352 160.339 163.352C159.795 163.352 159.299 163.48 158.851 163.736C158.403 163.992 158.046 164.365 157.779 164.856C157.512 165.347 157.379 165.923 157.379 166.584C157.379 167.256 157.512 167.843 157.779 168.344C158.046 168.835 158.403 169.213 158.851 169.48C159.299 169.736 159.795 169.864 160.339 169.864C160.883 169.864 161.379 169.736 161.827 169.48C162.286 169.213 162.648 168.835 162.915 168.344C163.182 167.843 163.315 167.261 163.315 166.6ZM171.52 162.072C172.586 162.072 173.45 162.397 174.112 163.048C174.773 163.688 175.104 164.616 175.104 165.832V171H173.664V166.04C173.664 165.165 173.445 164.499 173.008 164.04C172.57 163.571 171.973 163.336 171.216 163.336C170.448 163.336 169.834 163.576 169.376 164.056C168.928 164.536 168.704 165.235 168.704 166.152V171H167.248V162.232H168.704V163.48C168.992 163.032 169.381 162.685 169.872 162.44C170.373 162.195 170.922 162.072 171.52 162.072ZM176.938 166.584C176.938 165.688 177.119 164.904 177.482 164.232C177.845 163.549 178.341 163.021 178.97 162.648C179.61 162.275 180.325 162.088 181.114 162.088C181.797 162.088 182.431 162.248 183.018 162.568C183.605 162.877 184.053 163.288 184.362 163.8V159.16H185.834V171H184.362V169.352C184.074 169.875 183.647 170.307 183.082 170.648C182.517 170.979 181.855 171.144 181.098 171.144C180.319 171.144 179.61 170.952 178.97 170.568C178.341 170.184 177.845 169.645 177.482 168.952C177.119 168.259 176.938 167.469 176.938 166.584ZM184.362 166.6C184.362 165.939 184.229 165.363 183.962 164.872C183.695 164.381 183.333 164.008 182.874 163.752C182.426 163.485 181.93 163.352 181.386 163.352C180.842 163.352 180.346 163.48 179.898 163.736C179.45 163.992 179.093 164.365 178.826 164.856C178.559 165.347 178.426 165.923 178.426 166.584C178.426 167.256 178.559 167.843 178.826 168.344C179.093 168.835 179.45 169.213 179.898 169.48C180.346 169.736 180.842 169.864 181.386 169.864C181.93 169.864 182.426 169.736 182.874 169.48C183.333 169.213 183.695 168.835 183.962 168.344C184.229 167.843 184.362 167.261 184.362 166.6ZM194.016 163.848C194.304 163.347 194.731 162.931 195.296 162.6C195.872 162.259 196.539 162.088 197.296 162.088C198.075 162.088 198.779 162.275 199.408 162.648C200.048 163.021 200.549 163.549 200.912 164.232C201.275 164.904 201.456 165.688 201.456 166.584C201.456 167.469 201.275 168.259 200.912 168.952C200.549 169.645 200.048 170.184 199.408 170.568C198.779 170.952 198.075 171.144 197.296 171.144C196.549 171.144 195.888 170.979 195.312 170.648C194.747 170.307 194.315 169.885 194.016 169.384V175.16H192.56V162.232H194.016V163.848ZM199.968 166.584C199.968 165.923 199.835 165.347 199.568 164.856C199.301 164.365 198.939 163.992 198.48 163.736C198.032 163.48 197.536 163.352 196.992 163.352C196.459 163.352 195.963 163.485 195.504 163.752C195.056 164.008 194.693 164.387 194.416 164.888C194.149 165.379 194.016 165.949 194.016 166.6C194.016 167.261 194.149 167.843 194.416 168.344C194.693 168.835 195.056 169.213 195.504 169.48C195.963 169.736 196.459 169.864 196.992 169.864C197.536 169.864 198.032 169.736 198.48 169.48C198.939 169.213 199.301 168.835 199.568 168.344C199.835 167.843 199.968 167.256 199.968 166.584ZM207.197 171.144C206.375 171.144 205.629 170.957 204.957 170.584C204.295 170.211 203.773 169.683 203.389 169C203.015 168.307 202.829 167.507 202.829 166.6C202.829 165.704 203.021 164.915 203.405 164.232C203.799 163.539 204.333 163.011 205.005 162.648C205.677 162.275 206.429 162.088 207.261 162.088C208.093 162.088 208.845 162.275 209.517 162.648C210.189 163.011 210.717 163.533 211.101 164.216C211.495 164.899 211.693 165.693 211.693 166.6C211.693 167.507 211.49 168.307 211.085 169C210.69 169.683 210.151 170.211 209.469 170.584C208.786 170.957 208.029 171.144 207.197 171.144ZM207.197 169.864C207.719 169.864 208.21 169.741 208.669 169.496C209.127 169.251 209.495 168.883 209.773 168.392C210.061 167.901 210.205 167.304 210.205 166.6C210.205 165.896 210.066 165.299 209.789 164.808C209.511 164.317 209.149 163.955 208.701 163.72C208.253 163.475 207.767 163.352 207.245 163.352C206.711 163.352 206.221 163.475 205.773 163.72C205.335 163.955 204.983 164.317 204.717 164.808C204.45 165.299 204.317 165.896 204.317 166.6C204.317 167.315 204.445 167.917 204.701 168.408C204.967 168.899 205.319 169.267 205.757 169.512C206.194 169.747 206.674 169.864 207.197 169.864ZM225.287 162.232L222.551 171H221.047L218.935 164.04L216.823 171H215.319L212.567 162.232H214.055L216.071 169.592L218.247 162.232H219.735L221.863 169.608L223.847 162.232H225.287ZM234.732 166.28C234.732 166.557 234.716 166.851 234.684 167.16H227.676C227.729 168.024 228.023 168.701 228.556 169.192C229.1 169.672 229.756 169.912 230.524 169.912C231.153 169.912 231.676 169.768 232.092 169.48C232.519 169.181 232.817 168.787 232.988 168.296H234.556C234.321 169.139 233.852 169.827 233.148 170.36C232.444 170.883 231.569 171.144 230.524 171.144C229.692 171.144 228.945 170.957 228.284 170.584C227.633 170.211 227.121 169.683 226.748 169C226.375 168.307 226.188 167.507 226.188 166.6C226.188 165.693 226.369 164.899 226.732 164.216C227.095 163.533 227.601 163.011 228.252 162.648C228.913 162.275 229.671 162.088 230.524 162.088C231.356 162.088 232.092 162.269 232.732 162.632C233.372 162.995 233.863 163.496 234.204 164.136C234.556 164.765 234.732 165.48 234.732 166.28ZM233.228 165.976C233.228 165.421 233.105 164.947 232.86 164.552C232.615 164.147 232.279 163.843 231.852 163.64C231.436 163.427 230.972 163.32 230.46 163.32C229.724 163.32 229.095 163.555 228.572 164.024C228.06 164.493 227.767 165.144 227.692 165.976H233.228ZM238.11 163.656C238.366 163.155 238.729 162.765 239.198 162.488C239.678 162.211 240.259 162.072 240.942 162.072V163.576H240.558C238.926 163.576 238.11 164.461 238.11 166.232V171H236.654V162.232H238.11V163.656ZM246.191 163.432H244.351V171H242.895V163.432H241.759V162.232H242.895V161.608C242.895 160.627 243.145 159.912 243.647 159.464C244.159 159.005 244.975 158.776 246.095 158.776V159.992C245.455 159.992 245.001 160.12 244.735 160.376C244.479 160.621 244.351 161.032 244.351 161.608V162.232H246.191V163.432ZM255.664 162.232V171H254.208V169.704C253.931 170.152 253.542 170.504 253.04 170.76C252.55 171.005 252.006 171.128 251.408 171.128C250.726 171.128 250.112 170.989 249.568 170.712C249.024 170.424 248.592 169.997 248.272 169.432C247.963 168.867 247.808 168.179 247.808 167.368V162.232H249.248V167.176C249.248 168.04 249.467 168.707 249.904 169.176C250.342 169.635 250.939 169.864 251.696 169.864C252.475 169.864 253.088 169.624 253.536 169.144C253.984 168.664 254.208 167.965 254.208 167.048V162.232H255.664ZM259.579 159.16V171H258.123V159.16H259.579ZM267.782 159.16V171H266.326V159.16H267.782ZM271.015 160.808C270.738 160.808 270.503 160.712 270.311 160.52C270.119 160.328 270.023 160.093 270.023 159.816C270.023 159.539 270.119 159.304 270.311 159.112C270.503 158.92 270.738 158.824 271.015 158.824C271.282 158.824 271.506 158.92 271.687 159.112C271.879 159.304 271.975 159.539 271.975 159.816C271.975 160.093 271.879 160.328 271.687 160.52C271.506 160.712 271.282 160.808 271.015 160.808ZM271.719 162.232V171H270.263V162.232H271.719ZM279.097 171L275.657 167.128V171H274.201V159.16H275.657V166.12L279.033 162.232H281.065L276.937 166.6L281.081 171H279.097ZM290.435 166.28C290.435 166.557 290.419 166.851 290.387 167.16H283.379C283.432 168.024 283.726 168.701 284.259 169.192C284.803 169.672 285.459 169.912 286.227 169.912C286.856 169.912 287.379 169.768 287.795 169.48C288.222 169.181 288.52 168.787 288.691 168.296H290.259C290.024 169.139 289.555 169.827 288.851 170.36C288.147 170.883 287.272 171.144 286.227 171.144C285.395 171.144 284.648 170.957 283.987 170.584C283.336 170.211 282.824 169.683 282.451 169C282.078 168.307 281.891 167.507 281.891 166.6C281.891 165.693 282.072 164.899 282.435 164.216C282.798 163.533 283.304 163.011 283.955 162.648C284.616 162.275 285.374 162.088 286.227 162.088C287.059 162.088 287.795 162.269 288.435 162.632C289.075 162.995 289.566 163.496 289.907 164.136C290.259 164.765 290.435 165.48 290.435 166.28ZM288.931 165.976C288.931 165.421 288.808 164.947 288.563 164.552C288.318 164.147 287.982 163.843 287.555 163.64C287.139 163.427 286.675 163.32 286.163 163.32C285.427 163.32 284.798 163.555 284.275 164.024C283.763 164.493 283.47 165.144 283.395 165.976H288.931ZM296.079 166.584C296.079 165.688 296.26 164.904 296.623 164.232C296.985 163.549 297.481 163.021 298.111 162.648C298.751 162.275 299.46 162.088 300.239 162.088C301.007 162.088 301.673 162.253 302.239 162.584C302.804 162.915 303.225 163.331 303.503 163.832V162.232H304.975V171H303.503V169.368C303.215 169.88 302.783 170.307 302.207 170.648C301.641 170.979 300.98 171.144 300.223 171.144C299.444 171.144 298.74 170.952 298.111 170.568C297.481 170.184 296.985 169.645 296.623 168.952C296.26 168.259 296.079 167.469 296.079 166.584ZM303.503 166.6C303.503 165.939 303.369 165.363 303.103 164.872C302.836 164.381 302.473 164.008 302.015 163.752C301.567 163.485 301.071 163.352 300.527 163.352C299.983 163.352 299.487 163.48 299.039 163.736C298.591 163.992 298.233 164.365 297.967 164.856C297.7 165.347 297.567 165.923 297.567 166.584C297.567 167.256 297.7 167.843 297.967 168.344C298.233 168.835 298.591 169.213 299.039 169.48C299.487 169.736 299.983 169.864 300.527 169.864C301.071 169.864 301.567 169.736 302.015 169.48C302.473 169.213 302.836 168.835 303.103 168.344C303.369 167.843 303.503 167.261 303.503 166.6ZM311.707 162.072C312.774 162.072 313.638 162.397 314.299 163.048C314.96 163.688 315.291 164.616 315.291 165.832V171H313.851V166.04C313.851 165.165 313.632 164.499 313.195 164.04C312.758 163.571 312.16 163.336 311.403 163.336C310.635 163.336 310.022 163.576 309.563 164.056C309.115 164.536 308.891 165.235 308.891 166.152V171H307.435V162.232H308.891V163.48C309.179 163.032 309.568 162.685 310.059 162.44C310.56 162.195 311.11 162.072 311.707 162.072ZM17.688 190.584C17.688 189.688 17.8693 188.904 18.232 188.232C18.5947 187.549 19.0907 187.021 19.72 186.648C20.36 186.275 21.0693 186.088 21.848 186.088C22.616 186.088 23.2827 186.253 23.848 186.584C24.4133 186.915 24.8347 187.331 25.112 187.832V186.232H26.584V195H25.112V193.368C24.824 193.88 24.392 194.307 23.816 194.648C23.2507 194.979 22.5893 195.144 21.832 195.144C21.0533 195.144 20.3493 194.952 19.72 194.568C19.0907 194.184 18.5947 193.645 18.232 192.952C17.8693 192.259 17.688 191.469 17.688 190.584ZM25.112 190.6C25.112 189.939 24.9787 189.363 24.712 188.872C24.4453 188.381 24.0827 188.008 23.624 187.752C23.176 187.485 22.68 187.352 22.136 187.352C21.592 187.352 21.096 187.48 20.648 187.736C20.2 187.992 19.8427 188.365 19.576 188.856C19.3093 189.347 19.176 189.923 19.176 190.584C19.176 191.256 19.3093 191.843 19.576 192.344C19.8427 192.835 20.2 193.213 20.648 193.48C21.096 193.736 21.592 193.864 22.136 193.864C22.68 193.864 23.176 193.736 23.624 193.48C24.0827 193.213 24.4453 192.835 24.712 192.344C24.9787 191.843 25.112 191.261 25.112 190.6ZM30.5005 187.848C30.7885 187.347 31.2152 186.931 31.7805 186.6C32.3565 186.259 33.0232 186.088 33.7805 186.088C34.5592 186.088 35.2632 186.275 35.8925 186.648C36.5325 187.021 37.0338 187.549 37.3965 188.232C37.7592 188.904 37.9405 189.688 37.9405 190.584C37.9405 191.469 37.7592 192.259 37.3965 192.952C37.0338 193.645 36.5325 194.184 35.8925 194.568C35.2632 194.952 34.5592 195.144 33.7805 195.144C33.0338 195.144 32.3725 194.979 31.7965 194.648C31.2312 194.307 30.7992 193.885 30.5005 193.384V199.16H29.0445V186.232H30.5005V187.848ZM36.4525 190.584C36.4525 189.923 36.3192 189.347 36.0525 188.856C35.7858 188.365 35.4232 187.992 34.9645 187.736C34.5165 187.48 34.0205 187.352 33.4765 187.352C32.9432 187.352 32.4472 187.485 31.9885 187.752C31.5405 188.008 31.1778 188.387 30.9005 188.888C30.6338 189.379 30.5005 189.949 30.5005 190.6C30.5005 191.261 30.6338 191.843 30.9005 192.344C31.1778 192.835 31.5405 193.213 31.9885 193.48C32.4472 193.736 32.9432 193.864 33.4765 193.864C34.0205 193.864 34.5165 193.736 34.9645 193.48C35.4232 193.213 35.7858 192.835 36.0525 192.344C36.3192 191.843 36.4525 191.256 36.4525 190.584ZM41.313 187.848C41.601 187.347 42.0277 186.931 42.593 186.6C43.169 186.259 43.8357 186.088 44.593 186.088C45.3717 186.088 46.0757 186.275 46.705 186.648C47.345 187.021 47.8463 187.549 48.209 188.232C48.5717 188.904 48.753 189.688 48.753 190.584C48.753 191.469 48.5717 192.259 48.209 192.952C47.8463 193.645 47.345 194.184 46.705 194.568C46.0757 194.952 45.3717 195.144 44.593 195.144C43.8463 195.144 43.185 194.979 42.609 194.648C42.0437 194.307 41.6117 193.885 41.313 193.384V199.16H39.857V186.232H41.313V187.848ZM47.265 190.584C47.265 189.923 47.1317 189.347 46.865 188.856C46.5983 188.365 46.2357 187.992 45.777 187.736C45.329 187.48 44.833 187.352 44.289 187.352C43.7557 187.352 43.2597 187.485 42.801 187.752C42.353 188.008 41.9903 188.387 41.713 188.888C41.4463 189.379 41.313 189.949 41.313 190.6C41.313 191.261 41.4463 191.843 41.713 192.344C41.9903 192.835 42.353 193.213 42.801 193.48C43.2597 193.736 43.7557 193.864 44.289 193.864C44.833 193.864 45.329 193.736 45.777 193.48C46.2357 193.213 46.5983 192.835 46.865 192.344C47.1317 191.843 47.265 191.256 47.265 190.584ZM66.6151 186.232L63.8791 195H62.3751L60.2631 188.04L58.1511 195H56.6471L53.8951 186.232H55.3831L57.3991 193.592L59.5751 186.232H61.0631L63.1911 193.608L65.1751 186.232H66.6151ZM68.8121 184.808C68.5348 184.808 68.3001 184.712 68.1081 184.52C67.9161 184.328 67.8201 184.093 67.8201 183.816C67.8201 183.539 67.9161 183.304 68.1081 183.112C68.3001 182.92 68.5348 182.824 68.8121 182.824C69.0788 182.824 69.3028 182.92 69.4841 183.112C69.6761 183.304 69.7721 183.539 69.7721 183.816C69.7721 184.093 69.6761 184.328 69.4841 184.52C69.3028 184.712 69.0788 184.808 68.8121 184.808ZM69.5161 186.232V195H68.0601V186.232H69.5161ZM73.7736 187.432V192.6C73.7736 193.027 73.8643 193.331 74.0456 193.512C74.227 193.683 74.5416 193.768 74.9896 193.768H76.0616V195H74.7496C73.939 195 73.331 194.813 72.9256 194.44C72.5203 194.067 72.3176 193.453 72.3176 192.6V187.432H71.1816V186.232H72.3176V184.024H73.7736V186.232H76.0616V187.432H73.7736ZM82.1778 186.072C82.8391 186.072 83.4364 186.216 83.9698 186.504C84.5031 186.781 84.9191 187.203 85.2178 187.768C85.5271 188.333 85.6818 189.021 85.6818 189.832V195H84.2418V190.04C84.2418 189.165 84.0231 188.499 83.5858 188.04C83.1484 187.571 82.5511 187.336 81.7938 187.336C81.0258 187.336 80.4124 187.576 79.9538 188.056C79.5058 188.536 79.2818 189.235 79.2818 190.152V195H77.8258V183.16H79.2818V187.48C79.5698 187.032 79.9644 186.685 80.4658 186.44C80.9778 186.195 81.5484 186.072 82.1778 186.072ZM91.7818 190.584C91.7818 189.688 91.9631 188.904 92.3258 188.232C92.6884 187.549 93.1844 187.021 93.8138 186.648C94.4538 186.275 95.1631 186.088 95.9418 186.088C96.7098 186.088 97.3764 186.253 97.9418 186.584C98.5071 186.915 98.9284 187.331 99.2058 187.832V186.232H100.678V195H99.2058V193.368C98.9178 193.88 98.4858 194.307 97.9098 194.648C97.3444 194.979 96.6831 195.144 95.9258 195.144C95.1471 195.144 94.4431 194.952 93.8138 194.568C93.1844 194.184 92.6884 193.645 92.3258 192.952C91.9631 192.259 91.7818 191.469 91.7818 190.584ZM99.2058 190.6C99.2058 189.939 99.0724 189.363 98.8058 188.872C98.5391 188.381 98.1764 188.008 97.7178 187.752C97.2698 187.485 96.7738 187.352 96.2298 187.352C95.6858 187.352 95.1898 187.48 94.7418 187.736C94.2938 187.992 93.9364 188.365 93.6698 188.856C93.4031 189.347 93.2698 189.923 93.2698 190.584C93.2698 191.256 93.4031 191.843 93.6698 192.344C93.9364 192.835 94.2938 193.213 94.7418 193.48C95.1898 193.736 95.6858 193.864 96.2298 193.864C96.7738 193.864 97.2698 193.736 97.7178 193.48C98.1764 193.213 98.5391 192.835 98.8058 192.344C99.0724 191.843 99.2058 191.261 99.2058 190.6ZM107.41 186.072C108.477 186.072 109.341 186.397 110.002 187.048C110.664 187.688 110.994 188.616 110.994 189.832V195H109.554V190.04C109.554 189.165 109.336 188.499 108.898 188.04C108.461 187.571 107.864 187.336 107.106 187.336C106.338 187.336 105.725 187.576 105.266 188.056C104.818 188.536 104.594 189.235 104.594 190.152V195H103.138V186.232H104.594V187.48C104.882 187.032 105.272 186.685 105.762 186.44C106.264 186.195 106.813 186.072 107.41 186.072ZM118.39 184.808C118.113 184.808 117.878 184.712 117.686 184.52C117.494 184.328 117.398 184.093 117.398 183.816C117.398 183.539 117.494 183.304 117.686 183.112C117.878 182.92 118.113 182.824 118.39 182.824C118.657 182.824 118.881 182.92 119.062 183.112C119.254 183.304 119.35 183.539 119.35 183.816C119.35 184.093 119.254 184.328 119.062 184.52C118.881 184.712 118.657 184.808 118.39 184.808ZM119.094 186.232V195H117.638V186.232H119.094ZM125.848 186.072C126.914 186.072 127.778 186.397 128.44 187.048C129.101 187.688 129.432 188.616 129.432 189.832V195H127.992V190.04C127.992 189.165 127.773 188.499 127.336 188.04C126.898 187.571 126.301 187.336 125.544 187.336C124.776 187.336 124.162 187.576 123.704 188.056C123.256 188.536 123.032 189.235 123.032 190.152V195H121.576V186.232H123.032V187.48C123.32 187.032 123.709 186.685 124.2 186.44C124.701 186.195 125.25 186.072 125.848 186.072ZM133.586 187.432V192.6C133.586 193.027 133.677 193.331 133.858 193.512C134.039 193.683 134.354 193.768 134.802 193.768H135.874V195H134.562C133.751 195 133.143 194.813 132.738 194.44C132.333 194.067 132.13 193.453 132.13 192.6V187.432H130.994V186.232H132.13V184.024H133.586V186.232H135.874V187.432H133.586ZM145.414 186.232V195H143.958V193.704C143.681 194.152 143.292 194.504 142.79 194.76C142.3 195.005 141.756 195.128 141.158 195.128C140.476 195.128 139.862 194.989 139.318 194.712C138.774 194.424 138.342 193.997 138.022 193.432C137.713 192.867 137.558 192.179 137.558 191.368V186.232H138.998V191.176C138.998 192.04 139.217 192.707 139.654 193.176C140.092 193.635 140.689 193.864 141.446 193.864C142.225 193.864 142.838 193.624 143.286 193.144C143.734 192.664 143.958 191.965 143.958 191.048V186.232H145.414ZM148.625 184.808C148.347 184.808 148.113 184.712 147.921 184.52C147.729 184.328 147.633 184.093 147.633 183.816C147.633 183.539 147.729 183.304 147.921 183.112C148.113 182.92 148.347 182.824 148.625 182.824C148.891 182.824 149.115 182.92 149.297 183.112C149.489 183.304 149.585 183.539 149.585 183.816C149.585 184.093 149.489 184.328 149.297 184.52C149.115 184.712 148.891 184.808 148.625 184.808ZM149.329 186.232V195H147.873V186.232H149.329ZM153.586 187.432V192.6C153.586 193.027 153.677 193.331 153.858 193.512C154.039 193.683 154.354 193.768 154.802 193.768H155.874V195H154.562C153.751 195 153.143 194.813 152.738 194.44C152.333 194.067 152.13 193.453 152.13 192.6V187.432H150.994V186.232H152.13V184.024H153.586V186.232H155.874V187.432H153.586ZM158.39 184.808C158.113 184.808 157.878 184.712 157.686 184.52C157.494 184.328 157.398 184.093 157.398 183.816C157.398 183.539 157.494 183.304 157.686 183.112C157.878 182.92 158.113 182.824 158.39 182.824C158.657 182.824 158.881 182.92 159.062 183.112C159.254 183.304 159.35 183.539 159.35 183.816C159.35 184.093 159.254 184.328 159.062 184.52C158.881 184.712 158.657 184.808 158.39 184.808ZM159.094 186.232V195H157.638V186.232H159.094ZM164.84 193.656L167.56 186.232H169.112L165.672 195H163.976L160.536 186.232H162.104L164.84 193.656ZM178.545 190.28C178.545 190.557 178.529 190.851 178.497 191.16H171.489C171.542 192.024 171.835 192.701 172.369 193.192C172.913 193.672 173.569 193.912 174.337 193.912C174.966 193.912 175.489 193.768 175.905 193.48C176.331 193.181 176.63 192.787 176.801 192.296H178.369C178.134 193.139 177.665 193.827 176.961 194.36C176.257 194.883 175.382 195.144 174.337 195.144C173.505 195.144 172.758 194.957 172.097 194.584C171.446 194.211 170.934 193.683 170.561 193C170.187 192.307 170.001 191.507 170.001 190.6C170.001 189.693 170.182 188.899 170.545 188.216C170.907 187.533 171.414 187.011 172.065 186.648C172.726 186.275 173.483 186.088 174.337 186.088C175.169 186.088 175.905 186.269 176.545 186.632C177.185 186.995 177.675 187.496 178.017 188.136C178.369 188.765 178.545 189.48 178.545 190.28ZM177.041 189.976C177.041 189.421 176.918 188.947 176.673 188.552C176.427 188.147 176.091 187.843 175.665 187.64C175.249 187.427 174.785 187.32 174.273 187.32C173.537 187.32 172.907 187.555 172.385 188.024C171.873 188.493 171.579 189.144 171.505 189.976H177.041ZM185.484 184.808C185.207 184.808 184.972 184.712 184.78 184.52C184.588 184.328 184.492 184.093 184.492 183.816C184.492 183.539 184.588 183.304 184.78 183.112C184.972 182.92 185.207 182.824 185.484 182.824C185.751 182.824 185.975 182.92 186.156 183.112C186.348 183.304 186.444 183.539 186.444 183.816C186.444 184.093 186.348 184.328 186.156 184.52C185.975 184.712 185.751 184.808 185.484 184.808ZM186.188 186.232V195H184.732V186.232H186.188ZM192.942 186.072C194.008 186.072 194.872 186.397 195.534 187.048C196.195 187.688 196.526 188.616 196.526 189.832V195H195.086V190.04C195.086 189.165 194.867 188.499 194.43 188.04C193.992 187.571 193.395 187.336 192.638 187.336C191.87 187.336 191.256 187.576 190.798 188.056C190.35 188.536 190.126 189.235 190.126 190.152V195H188.67V186.232H190.126V187.48C190.414 187.032 190.803 186.685 191.294 186.44C191.795 186.195 192.344 186.072 192.942 186.072ZM200.68 187.432V192.6C200.68 193.027 200.771 193.331 200.952 193.512C201.133 193.683 201.448 193.768 201.896 193.768H202.968V195H201.656C200.845 195 200.237 194.813 199.832 194.44C199.427 194.067 199.224 193.453 199.224 192.6V187.432H198.088V186.232H199.224V184.024H200.68V186.232H202.968V187.432H200.68ZM212.732 190.28C212.732 190.557 212.716 190.851 212.684 191.16H205.676C205.729 192.024 206.023 192.701 206.556 193.192C207.1 193.672 207.756 193.912 208.524 193.912C209.153 193.912 209.676 193.768 210.092 193.48C210.519 193.181 210.817 192.787 210.988 192.296H212.556C212.321 193.139 211.852 193.827 211.148 194.36C210.444 194.883 209.569 195.144 208.524 195.144C207.692 195.144 206.945 194.957 206.284 194.584C205.633 194.211 205.121 193.683 204.748 193C204.375 192.307 204.188 191.507 204.188 190.6C204.188 189.693 204.369 188.899 204.732 188.216C205.095 187.533 205.601 187.011 206.252 186.648C206.913 186.275 207.671 186.088 208.524 186.088C209.356 186.088 210.092 186.269 210.732 186.632C211.372 186.995 211.863 187.496 212.204 188.136C212.556 188.765 212.732 189.48 212.732 190.28ZM211.228 189.976C211.228 189.421 211.105 188.947 210.86 188.552C210.615 188.147 210.279 187.843 209.852 187.64C209.436 187.427 208.972 187.32 208.46 187.32C207.724 187.32 207.095 187.555 206.572 188.024C206.06 188.493 205.767 189.144 205.692 189.976H211.228ZM216.11 187.656C216.366 187.155 216.729 186.765 217.198 186.488C217.678 186.211 218.259 186.072 218.942 186.072V187.576H218.558C216.926 187.576 216.11 188.461 216.11 190.232V195H214.654V186.232H216.11V187.656ZM224.191 187.432H222.351V195H220.895V187.432H219.759V186.232H220.895V185.608C220.895 184.627 221.145 183.912 221.647 183.464C222.159 183.005 222.975 182.776 224.095 182.776V183.992C223.455 183.992 223.001 184.12 222.735 184.376C222.479 184.621 222.351 185.032 222.351 185.608V186.232H224.191V187.432ZM225.344 190.584C225.344 189.688 225.526 188.904 225.888 188.232C226.251 187.549 226.747 187.021 227.376 186.648C228.016 186.275 228.726 186.088 229.504 186.088C230.272 186.088 230.939 186.253 231.504 186.584C232.07 186.915 232.491 187.331 232.768 187.832V186.232H234.24V195H232.768V193.368C232.48 193.88 232.048 194.307 231.472 194.648C230.907 194.979 230.246 195.144 229.488 195.144C228.71 195.144 228.006 194.952 227.376 194.568C226.747 194.184 226.251 193.645 225.888 192.952C225.526 192.259 225.344 191.469 225.344 190.584ZM232.768 190.6C232.768 189.939 232.635 189.363 232.368 188.872C232.102 188.381 231.739 188.008 231.28 187.752C230.832 187.485 230.336 187.352 229.792 187.352C229.248 187.352 228.752 187.48 228.304 187.736C227.856 187.992 227.499 188.365 227.232 188.856C226.966 189.347 226.832 189.923 226.832 190.584C226.832 191.256 226.966 191.843 227.232 192.344C227.499 192.835 227.856 193.213 228.304 193.48C228.752 193.736 229.248 193.864 229.792 193.864C230.336 193.864 230.832 193.736 231.28 193.48C231.739 193.213 232.102 192.835 232.368 192.344C232.635 191.843 232.768 191.261 232.768 190.6ZM236.157 190.6C236.157 189.693 236.338 188.904 236.701 188.232C237.063 187.549 237.565 187.021 238.205 186.648C238.855 186.275 239.597 186.088 240.429 186.088C241.506 186.088 242.391 186.349 243.085 186.872C243.789 187.395 244.253 188.12 244.477 189.048H242.909C242.759 188.515 242.466 188.093 242.029 187.784C241.602 187.475 241.069 187.32 240.429 187.32C239.597 187.32 238.925 187.608 238.413 188.184C237.901 188.749 237.645 189.555 237.645 190.6C237.645 191.656 237.901 192.472 238.413 193.048C238.925 193.624 239.597 193.912 240.429 193.912C241.069 193.912 241.602 193.763 242.029 193.464C242.455 193.165 242.749 192.739 242.909 192.184H244.477C244.242 193.08 243.773 193.8 243.069 194.344C242.365 194.877 241.485 195.144 240.429 195.144C239.597 195.144 238.855 194.957 238.205 194.584C237.565 194.211 237.063 193.683 236.701 193C236.338 192.317 236.157 191.517 236.157 190.6ZM254.42 190.28C254.42 190.557 254.404 190.851 254.372 191.16H247.364C247.417 192.024 247.71 192.701 248.244 193.192C248.788 193.672 249.444 193.912 250.212 193.912C250.841 193.912 251.364 193.768 251.78 193.48C252.206 193.181 252.505 192.787 252.676 192.296H254.244C254.009 193.139 253.54 193.827 252.836 194.36C252.132 194.883 251.257 195.144 250.212 195.144C249.38 195.144 248.633 194.957 247.972 194.584C247.321 194.211 246.809 193.683 246.436 193C246.062 192.307 245.876 191.507 245.876 190.6C245.876 189.693 246.057 188.899 246.42 188.216C246.782 187.533 247.289 187.011 247.94 186.648C248.601 186.275 249.358 186.088 250.212 186.088C251.044 186.088 251.78 186.269 252.42 186.632C253.06 186.995 253.55 187.496 253.892 188.136C254.244 188.765 254.42 189.48 254.42 190.28ZM252.916 189.976C252.916 189.421 252.793 188.947 252.548 188.552C252.302 188.147 251.966 187.843 251.54 187.64C251.124 187.427 250.66 187.32 250.148 187.32C249.412 187.32 248.782 187.555 248.26 188.024C247.748 188.493 247.454 189.144 247.38 189.976H252.916ZM256.805 195.096C256.528 195.096 256.293 195 256.101 194.808C255.909 194.616 255.813 194.381 255.813 194.104C255.813 193.827 255.909 193.592 256.101 193.4C256.293 193.208 256.528 193.112 256.805 193.112C257.072 193.112 257.296 193.208 257.477 193.4C257.669 193.592 257.765 193.827 257.765 194.104C257.765 194.381 257.669 194.616 257.477 194.808C257.296 195 257.072 195.096 256.805 195.096Z" fill="#1A0062"/>
<path d="M290.247 2.42919C290.125 6.09855 290.124 21.0341 291.102 51.4217L291.407 68.919L296.254 58.3328L301.424 66.2438L304.69 61.186L309.293 68.6068L311.956 61.0592L315.956 65.9902L314.839 1.99993L310.996 6.06761L308.132 2.117L303.731 6.19444L300.307 2.25358L295.347 6.34077L290.247 2.42919Z" fill="#E6CA3A" fill-opacity="0.66" stroke="#FEFEFD"/>
<g filter="url(#filter1_d_10_46)">
<circle cx="303.5" cy="18.5" r="7.5" fill="#050B43"/>
</g>
<path d="M60.2469 2.42919C60.1246 6.09855 60.1244 21.0341 61.102 51.4217L61.4075 68.919L66.2544 58.3328L71.4242 66.2438L74.6904 61.186L79.2926 68.6068L81.9562 61.0592L85.9559 65.9902L84.8389 1.99993L80.9963 6.06761L78.132 2.117L73.7305 6.19444L70.3072 2.25358L65.3468 6.34077L60.2469 2.42919Z" fill="#E6CA3A" fill-opacity="0.66" stroke="#FEFEFD"/>
<g filter="url(#filter2_d_10_46)">
<circle cx="73.5" cy="18.5" r="7.5" fill="#050B43"/>
</g>
<defs>
<filter id="filter0_d_10_46" x="0" y="35" width="383" height="228" filterUnits="userSpaceOnUse" color-interpolation-filters="sRGB">
<feFlood flood-opacity="0" result="BackgroundImageFix"/>
<feColorMatrix in="SourceAlpha" type="matrix" values="0 0 0 0 0 0 0 0 0 0 0 0 0 0 0 0 0 0 127 0" result="hardAlpha"/>
<feOffset dx="8" dy="12"/>
<feGaussianBlur stdDeviation="3"/>
<feComposite in2="hardAlpha" operator="out"/>
<feColorMatrix type="matrix" values="0 0 0 0 0.0152778 0 0 0 0 0.161583 0 0 0 0 0.333333 0 0 0 0.42 0"/>
<feBlend mode="normal" in2="BackgroundImageFix" result="effect1_dropShadow_10_46"/>
<feBlend mode="normal" in="SourceGraphic" in2="effect1_dropShadow_10_46" result="shape"/>
</filter>
<filter id="filter1_d_10_46" x="289" y="5" width="27" height="27" filterUnits="userSpaceOnUse" color-interpolation-filters="sRGB">
<feFlood flood-opacity="0" result="BackgroundImageFix"/>
<feColorMatrix in="SourceAlpha" type="matrix" values="0 0 0 0 0 0 0 0 0 0 0 0 0 0 0 0 0 0 127 0" result="hardAlpha"/>
<feOffset dx="-1"/>
<feGaussianBlur stdDeviation="3"/>
<feComposite in2="hardAlpha" operator="out"/>
<feColorMatrix type="matrix" values="0 0 0 0 0 0 0 0 0 0 0 0 0 0 0 0 0 0 0.54 0"/>
<feBlend mode="normal" in2="BackgroundImageFix" result="effect1_dropShadow_10_46"/>
<feBlend mode="normal" in="SourceGraphic" in2="effect1_dropShadow_10_46" result="shape"/>
</filter>
<filter id="filter2_d_10_46" x="59" y="5" width="27" height="27" filterUnits="userSpaceOnUse" color-interpolation-filters="sRGB">
<feFlood flood-opacity="0" result="BackgroundImageFix"/>
<feColorMatrix in="SourceAlpha" type="matrix" values="0 0 0 0 0 0 0 0 0 0 0 0 0 0 0 0 0 0 127 0" result="hardAlpha"/>
<feOffset dx="-1"/>
<feGaussianBlur stdDeviation="3"/>
<feComposite in2="hardAlpha" operator="out"/>
<feColorMatrix type="matrix" values="0 0 0 0 0 0 0 0 0 0 0 0 0 0 0 0 0 0 0.54 0"/>
<feBlend mode="normal" in2="BackgroundImageFix" result="effect1_dropShadow_10_46"/>
<feBlend mode="normal" in="SourceGraphic" in2="effect1_dropShadow_10_46" result="shape"/>
</filter>
</defs>
</svg>
