<svg width="383" height="263" viewBox="0 0 383 263" fill="none" xmlns="http://www.w3.org/2000/svg">
<g filter="url(#filter0_d_10_46)">
<rect y="35" width="369" height="210" rx="8" fill="#66D1F3" fill-opacity="0.69" shape-rendering="crispEdges"/>
</g>
<path d="M56.7076 108.18V112.156H63.1196V115.852H56.7076V120.164H63.9596V124H51.9196V104.344H63.9596V108.18H56.7076ZM66.116 116.16C66.116 114.555 66.4147 113.145 67.012 111.932C67.628 110.719 68.4587 109.785 69.504 109.132C70.5494 108.479 71.716 108.152 73.004 108.152C74.1054 108.152 75.0667 108.376 75.888 108.824C76.728 109.272 77.372 109.86 77.82 110.588V108.376H82.608V124H77.82V121.788C77.3534 122.516 76.7 123.104 75.86 123.552C75.0387 124 74.0774 124.224 72.976 124.224C71.7067 124.224 70.5494 123.897 69.504 123.244C68.4587 122.572 67.628 121.629 67.012 120.416C66.4147 119.184 66.116 117.765 66.116 116.16ZM77.82 116.188C77.82 114.993 77.484 114.051 76.812 113.36C76.1587 112.669 75.356 112.324 74.404 112.324C73.452 112.324 72.64 112.669 71.968 113.36C71.3147 114.032 70.988 114.965 70.988 116.16C70.988 117.355 71.3147 118.307 71.968 119.016C72.64 119.707 73.452 120.052 74.404 120.052C75.356 120.052 76.1587 119.707 76.812 119.016C77.484 118.325 77.82 117.383 77.82 116.188ZM92.4279 124.224C91.0653 124.224 89.8519 123.991 88.7879 123.524C87.7239 123.057 86.8839 122.423 86.2679 121.62C85.6519 120.799 85.3066 119.884 85.2319 118.876H89.9639C90.0199 119.417 90.2719 119.856 90.7199 120.192C91.1679 120.528 91.7186 120.696 92.3719 120.696C92.9693 120.696 93.4266 120.584 93.7439 120.36C94.0799 120.117 94.2479 119.809 94.2479 119.436C94.2479 118.988 94.0146 118.661 93.5479 118.456C93.0813 118.232 92.3253 117.989 91.2799 117.728C90.1599 117.467 89.2266 117.196 88.4799 116.916C87.7333 116.617 87.0893 116.16 86.5479 115.544C86.0066 114.909 85.7359 114.06 85.7359 112.996C85.7359 112.1 85.9786 111.288 86.4639 110.56C86.9679 109.813 87.6959 109.225 88.6479 108.796C89.6186 108.367 90.7666 108.152 92.0919 108.152C94.0519 108.152 95.5919 108.637 96.7119 109.608C97.8506 110.579 98.5039 111.867 98.6719 113.472H94.2479C94.1733 112.931 93.9306 112.501 93.5199 112.184C93.1279 111.867 92.6053 111.708 91.9519 111.708C91.3919 111.708 90.9626 111.82 90.6639 112.044C90.3653 112.249 90.2159 112.539 90.2159 112.912C90.2159 113.36 90.4493 113.696 90.9159 113.92C91.4013 114.144 92.1479 114.368 93.1559 114.592C94.3133 114.891 95.2559 115.189 95.9839 115.488C96.7119 115.768 97.3466 116.235 97.8879 116.888C98.4479 117.523 98.7373 118.381 98.7559 119.464C98.7559 120.379 98.4946 121.2 97.9719 121.928C97.4679 122.637 96.7306 123.197 95.7599 123.608C94.8079 124.019 93.6973 124.224 92.4279 124.224ZM117.645 108.376L107.845 131.42H102.693L106.277 123.468L99.9212 108.376H105.269L108.881 118.148L112.465 108.376H117.645ZM124.358 116.16C124.358 114.555 124.657 113.145 125.254 111.932C125.87 110.719 126.701 109.785 127.746 109.132C128.792 108.479 129.958 108.152 131.246 108.152C132.348 108.152 133.309 108.376 134.13 108.824C134.97 109.272 135.614 109.86 136.062 110.588V108.376H140.85V124H136.062V121.788C135.596 122.516 134.942 123.104 134.102 123.552C133.281 124 132.32 124.224 131.218 124.224C129.949 124.224 128.792 123.897 127.746 123.244C126.701 122.572 125.87 121.629 125.254 120.416C124.657 119.184 124.358 117.765 124.358 116.16ZM136.062 116.188C136.062 114.993 135.726 114.051 135.054 113.36C134.401 112.669 133.598 112.324 132.646 112.324C131.694 112.324 130.882 112.669 130.21 113.36C129.557 114.032 129.23 114.965 129.23 116.16C129.23 117.355 129.557 118.307 130.21 119.016C130.882 119.707 131.694 120.052 132.646 120.052C133.598 120.052 134.401 119.707 135.054 119.016C135.726 118.325 136.062 117.383 136.062 116.188ZM153.834 108.208C155.663 108.208 157.119 108.805 158.202 110C159.303 111.176 159.854 112.8 159.854 114.872V124H155.094V115.516C155.094 114.471 154.823 113.659 154.282 113.08C153.741 112.501 153.013 112.212 152.098 112.212C151.183 112.212 150.455 112.501 149.914 113.08C149.373 113.659 149.102 114.471 149.102 115.516V124H144.314V108.376H149.102V110.448C149.587 109.757 150.241 109.216 151.062 108.824C151.883 108.413 152.807 108.208 153.834 108.208ZM162.229 116.16C162.229 114.555 162.528 113.145 163.125 111.932C163.741 110.719 164.572 109.785 165.617 109.132C166.663 108.479 167.829 108.152 169.117 108.152C170.144 108.152 171.077 108.367 171.917 108.796C172.776 109.225 173.448 109.804 173.933 110.532V103.28H178.721V124H173.933V121.76C173.485 122.507 172.841 123.104 172.001 123.552C171.18 124 170.219 124.224 169.117 124.224C167.829 124.224 166.663 123.897 165.617 123.244C164.572 122.572 163.741 121.629 163.125 120.416C162.528 119.184 162.229 117.765 162.229 116.16ZM173.933 116.188C173.933 114.993 173.597 114.051 172.925 113.36C172.272 112.669 171.469 112.324 170.517 112.324C169.565 112.324 168.753 112.669 168.081 113.36C167.428 114.032 167.101 114.965 167.101 116.16C167.101 117.355 167.428 118.307 168.081 119.016C168.753 119.707 169.565 120.052 170.517 120.052C171.469 120.052 172.272 119.707 172.925 119.016C173.597 118.325 173.933 117.383 173.933 116.188ZM192.907 110.588C193.373 109.86 194.017 109.272 194.839 108.824C195.66 108.376 196.621 108.152 197.723 108.152C199.011 108.152 200.177 108.479 201.223 109.132C202.268 109.785 203.089 110.719 203.687 111.932C204.303 113.145 204.611 114.555 204.611 116.16C204.611 117.765 204.303 119.184 203.687 120.416C203.089 121.629 202.268 122.572 201.223 123.244C200.177 123.897 199.011 124.224 197.723 124.224C196.64 124.224 195.679 124 194.839 123.552C194.017 123.104 193.373 122.525 192.907 121.816V131.448H188.119V108.376H192.907V110.588ZM199.739 116.16C199.739 114.965 199.403 114.032 198.731 113.36C198.077 112.669 197.265 112.324 196.295 112.324C195.343 112.324 194.531 112.669 193.859 113.36C193.205 114.051 192.879 114.993 192.879 116.188C192.879 117.383 193.205 118.325 193.859 119.016C194.531 119.707 195.343 120.052 196.295 120.052C197.247 120.052 198.059 119.707 198.731 119.016C199.403 118.307 199.739 117.355 199.739 116.16ZM214.235 124.224C212.704 124.224 211.323 123.897 210.091 123.244C208.877 122.591 207.916 121.657 207.207 120.444C206.516 119.231 206.171 117.812 206.171 116.188C206.171 114.583 206.525 113.173 207.235 111.96C207.944 110.728 208.915 109.785 210.147 109.132C211.379 108.479 212.76 108.152 214.291 108.152C215.821 108.152 217.203 108.479 218.435 109.132C219.667 109.785 220.637 110.728 221.347 111.96C222.056 113.173 222.411 114.583 222.411 116.188C222.411 117.793 222.047 119.212 221.319 120.444C220.609 121.657 219.629 122.591 218.379 123.244C217.147 123.897 215.765 124.224 214.235 124.224ZM214.235 120.08C215.149 120.08 215.924 119.744 216.559 119.072C217.212 118.4 217.539 117.439 217.539 116.188C217.539 114.937 217.221 113.976 216.587 113.304C215.971 112.632 215.205 112.296 214.291 112.296C213.357 112.296 212.583 112.632 211.967 113.304C211.351 113.957 211.043 114.919 211.043 116.188C211.043 117.439 211.341 118.4 211.939 119.072C212.555 119.744 213.32 120.08 214.235 120.08ZM247.379 108.376L243.151 124H237.859L235.395 113.864L232.847 124H227.583L223.327 108.376H228.115L230.327 119.548L232.959 108.376H238.027L240.687 119.492L242.871 108.376H247.379ZM263.933 115.936C263.933 116.384 263.905 116.851 263.849 117.336H253.013C253.087 118.307 253.395 119.053 253.937 119.576C254.497 120.08 255.178 120.332 255.981 120.332C257.175 120.332 258.006 119.828 258.473 118.82H263.569C263.307 119.847 262.831 120.771 262.141 121.592C261.469 122.413 260.619 123.057 259.593 123.524C258.566 123.991 257.418 124.224 256.149 124.224C254.618 124.224 253.255 123.897 252.061 123.244C250.866 122.591 249.933 121.657 249.261 120.444C248.589 119.231 248.253 117.812 248.253 116.188C248.253 114.564 248.579 113.145 249.233 111.932C249.905 110.719 250.838 109.785 252.033 109.132C253.227 108.479 254.599 108.152 256.149 108.152C257.661 108.152 259.005 108.469 260.181 109.104C261.357 109.739 262.271 110.644 262.925 111.82C263.597 112.996 263.933 114.368 263.933 115.936ZM259.033 114.676C259.033 113.855 258.753 113.201 258.193 112.716C257.633 112.231 256.933 111.988 256.093 111.988C255.29 111.988 254.609 112.221 254.049 112.688C253.507 113.155 253.171 113.817 253.041 114.676H259.033ZM271.247 110.98C271.807 110.121 272.507 109.449 273.347 108.964C274.187 108.46 275.12 108.208 276.147 108.208V113.276H274.831C273.636 113.276 272.74 113.537 272.143 114.06C271.545 114.564 271.247 115.46 271.247 116.748V124H266.459V108.376H271.247V110.98ZM286.275 112.352H283.699V124H278.911V112.352H277.175V108.376H278.911V107.928C278.911 106.005 279.462 104.549 280.563 103.56C281.665 102.552 283.279 102.048 285.407 102.048C285.762 102.048 286.023 102.057 286.191 102.076V106.136C285.277 106.08 284.633 106.211 284.259 106.528C283.886 106.845 283.699 107.415 283.699 108.236V108.376H286.275V112.352ZM303.953 108.376V124H299.165V121.872C298.68 122.563 298.017 123.123 297.177 123.552C296.356 123.963 295.441 124.168 294.433 124.168C293.238 124.168 292.184 123.907 291.269 123.384C290.354 122.843 289.645 122.068 289.141 121.06C288.637 120.052 288.385 118.867 288.385 117.504V108.376H293.145V116.86C293.145 117.905 293.416 118.717 293.957 119.296C294.498 119.875 295.226 120.164 296.141 120.164C297.074 120.164 297.812 119.875 298.353 119.296C298.894 118.717 299.165 117.905 299.165 116.86V108.376H303.953ZM312.18 103.28V124H307.392V103.28H312.18ZM317.89 124.224C317.05 124.224 316.359 123.981 315.818 123.496C315.295 122.992 315.034 122.376 315.034 121.648C315.034 120.901 315.295 120.276 315.818 119.772C316.359 119.268 317.05 119.016 317.89 119.016C318.711 119.016 319.383 119.268 319.906 119.772C320.447 120.276 320.718 120.901 320.718 121.648C320.718 122.376 320.447 122.992 319.906 123.496C319.383 123.981 318.711 124.224 317.89 124.224Z" fill="#1C013E"/>
<path d="M25.096 159.848V161.032H22.056V171H20.6V161.032H17.544V159.848H25.096ZM26.3443 166.584C26.3443 165.688 26.5256 164.904 26.8883 164.232C27.2509 163.549 27.7469 163.021 28.3763 162.648C29.0163 162.275 29.7256 162.088 30.5043 162.088C31.2723 162.088 31.9389 162.253 32.5043 162.584C33.0696 162.915 33.4909 163.331 33.7683 163.832V162.232H35.2403V171H33.7683V169.368C33.4803 169.88 33.0483 170.307 32.4723 170.648C31.9069 170.979 31.2456 171.144 30.4883 171.144C29.7096 171.144 29.0056 170.952 28.3763 170.568C27.7469 170.184 27.2509 169.645 26.8883 168.952C26.5256 168.259 26.3443 167.469 26.3443 166.584ZM33.7683 166.6C33.7683 165.939 33.6349 165.363 33.3683 164.872C33.1016 164.381 32.7389 164.008 32.2803 163.752C31.8323 163.485 31.3363 163.352 30.7923 163.352C30.2483 163.352 29.7523 163.48 29.3043 163.736C28.8563 163.992 28.4989 164.365 28.2323 164.856C27.9656 165.347 27.8323 165.923 27.8323 166.584C27.8323 167.256 27.9656 167.843 28.2323 168.344C28.4989 168.835 28.8563 169.213 29.3043 169.48C29.7523 169.736 30.2483 169.864 30.7923 169.864C31.3363 169.864 31.8323 169.736 32.2803 169.48C32.7389 169.213 33.1016 168.835 33.3683 168.344C33.6349 167.843 33.7683 167.261 33.7683 166.6ZM40.8048 171.144C40.1328 171.144 39.5301 171.032 38.9968 170.808C38.4634 170.573 38.0421 170.253 37.7328 169.848C37.4234 169.432 37.2528 168.957 37.2208 168.424H38.7248C38.7674 168.861 38.9701 169.219 39.3328 169.496C39.7061 169.773 40.1914 169.912 40.7888 169.912C41.3434 169.912 41.7808 169.789 42.1008 169.544C42.4208 169.299 42.5808 168.989 42.5808 168.616C42.5808 168.232 42.4101 167.949 42.0688 167.768C41.7274 167.576 41.1994 167.389 40.4848 167.208C39.8341 167.037 39.3008 166.867 38.8848 166.696C38.4794 166.515 38.1274 166.253 37.8288 165.912C37.5408 165.56 37.3968 165.101 37.3968 164.536C37.3968 164.088 37.5301 163.677 37.7968 163.304C38.0634 162.931 38.4421 162.637 38.9328 162.424C39.4234 162.2 39.9834 162.088 40.6128 162.088C41.5834 162.088 42.3674 162.333 42.9648 162.824C43.5621 163.315 43.8821 163.987 43.9248 164.84H42.4688C42.4368 164.381 42.2501 164.013 41.9088 163.736C41.5781 163.459 41.1301 163.32 40.5648 163.32C40.0421 163.32 39.6261 163.432 39.3168 163.656C39.0074 163.88 38.8528 164.173 38.8528 164.536C38.8528 164.824 38.9434 165.064 39.1248 165.256C39.3168 165.437 39.5514 165.587 39.8288 165.704C40.1168 165.811 40.5114 165.933 41.0128 166.072C41.6421 166.243 42.1541 166.413 42.5488 166.584C42.9434 166.744 43.2794 166.989 43.5568 167.32C43.8448 167.651 43.9941 168.083 44.0048 168.616C44.0048 169.096 43.8714 169.528 43.6048 169.912C43.3381 170.296 42.9594 170.6 42.4688 170.824C41.9888 171.037 41.4341 171.144 40.8048 171.144ZM50.9561 171L47.5161 167.128V171H46.0601V159.16H47.5161V166.12L50.8921 162.232H52.9241L48.7961 166.6L52.9401 171H50.9561ZM62.2945 166.28C62.2945 166.557 62.2785 166.851 62.2465 167.16H55.2385C55.2918 168.024 55.5852 168.701 56.1185 169.192C56.6625 169.672 57.3185 169.912 58.0865 169.912C58.7158 169.912 59.2385 169.768 59.6545 169.48C60.0812 169.181 60.3798 168.787 60.5505 168.296H62.1185C61.8838 169.139 61.4145 169.827 60.7105 170.36C60.0065 170.883 59.1318 171.144 58.0865 171.144C57.2545 171.144 56.5078 170.957 55.8465 170.584C55.1958 170.211 54.6838 169.683 54.3105 169C53.9372 168.307 53.7505 167.507 53.7505 166.6C53.7505 165.693 53.9318 164.899 54.2945 164.216C54.6572 163.533 55.1638 163.011 55.8145 162.648C56.4758 162.275 57.2332 162.088 58.0865 162.088C58.9185 162.088 59.6545 162.269 60.2945 162.632C60.9345 162.995 61.4252 163.496 61.7665 164.136C62.1185 164.765 62.2945 165.48 62.2945 166.28ZM60.7905 165.976C60.7905 165.421 60.6678 164.947 60.4225 164.552C60.1772 164.147 59.8412 163.843 59.4145 163.64C58.9985 163.427 58.5345 163.32 58.0225 163.32C57.2865 163.32 56.6572 163.555 56.1345 164.024C55.6225 164.493 55.3292 165.144 55.2545 165.976H60.7905ZM65.6724 163.656C65.9284 163.155 66.291 162.765 66.7604 162.488C67.2404 162.211 67.8217 162.072 68.5044 162.072V163.576H68.1204C66.4884 163.576 65.6724 164.461 65.6724 166.232V171H64.2164V162.232H65.6724V163.656ZM75.2028 160.808C74.9254 160.808 74.6908 160.712 74.4988 160.52C74.3068 160.328 74.2108 160.093 74.2108 159.816C74.2108 159.539 74.3068 159.304 74.4988 159.112C74.6908 158.92 74.9254 158.824 75.2028 158.824C75.4694 158.824 75.6934 158.92 75.8748 159.112C76.0668 159.304 76.1628 159.539 76.1628 159.816C76.1628 160.093 76.0668 160.328 75.8748 160.52C75.6934 160.712 75.4694 160.808 75.2028 160.808ZM75.9068 162.232V171H74.4508V162.232H75.9068ZM81.4923 171.144C80.8203 171.144 80.2176 171.032 79.6843 170.808C79.1509 170.573 78.7296 170.253 78.4203 169.848C78.1109 169.432 77.9403 168.957 77.9083 168.424H79.4123C79.4549 168.861 79.6576 169.219 80.0203 169.496C80.3936 169.773 80.8789 169.912 81.4763 169.912C82.0309 169.912 82.4683 169.789 82.7883 169.544C83.1083 169.299 83.2683 168.989 83.2683 168.616C83.2683 168.232 83.0976 167.949 82.7563 167.768C82.4149 167.576 81.8869 167.389 81.1723 167.208C80.5216 167.037 79.9883 166.867 79.5723 166.696C79.1669 166.515 78.8149 166.253 78.5163 165.912C78.2283 165.56 78.0843 165.101 78.0843 164.536C78.0843 164.088 78.2176 163.677 78.4843 163.304C78.7509 162.931 79.1296 162.637 79.6203 162.424C80.1109 162.2 80.6709 162.088 81.3003 162.088C82.2709 162.088 83.0549 162.333 83.6523 162.824C84.2496 163.315 84.5696 163.987 84.6123 164.84H83.1563C83.1243 164.381 82.9376 164.013 82.5963 163.736C82.2656 163.459 81.8176 163.32 81.2523 163.32C80.7296 163.32 80.3136 163.432 80.0043 163.656C79.6949 163.88 79.5403 164.173 79.5403 164.536C79.5403 164.824 79.6309 165.064 79.8123 165.256C80.0043 165.437 80.2389 165.587 80.5163 165.704C80.8043 165.811 81.1989 165.933 81.7003 166.072C82.3296 166.243 82.8416 166.413 83.2363 166.584C83.6309 166.744 83.9669 166.989 84.2443 167.32C84.5323 167.651 84.6816 168.083 84.6923 168.616C84.6923 169.096 84.5589 169.528 84.2923 169.912C84.0256 170.296 83.6469 170.6 83.1563 170.824C82.6763 171.037 82.1216 171.144 81.4923 171.144ZM91.7653 160.808C91.4879 160.808 91.2533 160.712 91.0613 160.52C90.8693 160.328 90.7733 160.093 90.7733 159.816C90.7733 159.539 90.8693 159.304 91.0613 159.112C91.2533 158.92 91.4879 158.824 91.7653 158.824C92.0319 158.824 92.2559 158.92 92.4373 159.112C92.6293 159.304 92.7253 159.539 92.7253 159.816C92.7253 160.093 92.6293 160.328 92.4373 160.52C92.2559 160.712 92.0319 160.808 91.7653 160.808ZM92.4693 162.232V171H91.0133V162.232H92.4693ZM98.0548 171.144C97.3828 171.144 96.7801 171.032 96.2468 170.808C95.7134 170.573 95.2921 170.253 94.9828 169.848C94.6734 169.432 94.5028 168.957 94.4708 168.424H95.9748C96.0174 168.861 96.2201 169.219 96.5828 169.496C96.9561 169.773 97.4414 169.912 98.0388 169.912C98.5934 169.912 99.0308 169.789 99.3508 169.544C99.6708 169.299 99.8308 168.989 99.8308 168.616C99.8308 168.232 99.6601 167.949 99.3188 167.768C98.9774 167.576 98.4494 167.389 97.7348 167.208C97.0841 167.037 96.5508 166.867 96.1348 166.696C95.7294 166.515 95.3774 166.253 95.0788 165.912C94.7908 165.56 94.6468 165.101 94.6468 164.536C94.6468 164.088 94.7801 163.677 95.0468 163.304C95.3134 162.931 95.6921 162.637 96.1828 162.424C96.6734 162.2 97.2334 162.088 97.8628 162.088C98.8334 162.088 99.6174 162.333 100.215 162.824C100.812 163.315 101.132 163.987 101.175 164.84H99.7188C99.6868 164.381 99.5001 164.013 99.1588 163.736C98.8281 163.459 98.3801 163.32 97.8148 163.32C97.2921 163.32 96.8761 163.432 96.5668 163.656C96.2574 163.88 96.1028 164.173 96.1028 164.536C96.1028 164.824 96.1934 165.064 96.3748 165.256C96.5668 165.437 96.8014 165.587 97.0788 165.704C97.3668 165.811 97.7614 165.933 98.2628 166.072C98.8921 166.243 99.4041 166.413 99.7988 166.584C100.193 166.744 100.529 166.989 100.807 167.32C101.095 167.651 101.244 168.083 101.255 168.616C101.255 169.096 101.121 169.528 100.855 169.912C100.588 170.296 100.209 170.6 99.7188 170.824C99.2388 171.037 98.6841 171.144 98.0548 171.144ZM111.144 163.432H109.304V171H107.848V163.432H106.712V162.232H107.848V161.608C107.848 160.627 108.098 159.912 108.6 159.464C109.112 159.005 109.928 158.776 111.048 158.776V159.992C110.408 159.992 109.954 160.12 109.688 160.376C109.432 160.621 109.304 161.032 109.304 161.608V162.232H111.144V163.432ZM112.297 166.584C112.297 165.688 112.479 164.904 112.841 164.232C113.204 163.549 113.7 163.021 114.329 162.648C114.969 162.275 115.679 162.088 116.457 162.088C117.225 162.088 117.892 162.253 118.457 162.584C119.023 162.915 119.444 163.331 119.721 163.832V162.232H121.193V171H119.721V169.368C119.433 169.88 119.001 170.307 118.425 170.648C117.86 170.979 117.199 171.144 116.441 171.144C115.663 171.144 114.959 170.952 114.329 170.568C113.7 170.184 113.204 169.645 112.841 168.952C112.479 168.259 112.297 167.469 112.297 166.584ZM119.721 166.6C119.721 165.939 119.588 165.363 119.321 164.872C119.055 164.381 118.692 164.008 118.233 163.752C117.785 163.485 117.289 163.352 116.745 163.352C116.201 163.352 115.705 163.48 115.257 163.736C114.809 163.992 114.452 164.365 114.185 164.856C113.919 165.347 113.785 165.923 113.785 166.584C113.785 167.256 113.919 167.843 114.185 168.344C114.452 168.835 114.809 169.213 115.257 169.48C115.705 169.736 116.201 169.864 116.745 169.864C117.289 169.864 117.785 169.736 118.233 169.48C118.692 169.213 119.055 168.835 119.321 168.344C119.588 167.843 119.721 167.261 119.721 166.6ZM134.198 162.072C134.881 162.072 135.489 162.216 136.022 162.504C136.555 162.781 136.977 163.203 137.286 163.768C137.595 164.333 137.75 165.021 137.75 165.832V171H136.31V166.04C136.31 165.165 136.091 164.499 135.654 164.04C135.227 163.571 134.646 163.336 133.91 163.336C133.153 163.336 132.55 163.581 132.102 164.072C131.654 164.552 131.43 165.251 131.43 166.168V171H129.99V166.04C129.99 165.165 129.771 164.499 129.334 164.04C128.907 163.571 128.326 163.336 127.59 163.336C126.833 163.336 126.23 163.581 125.782 164.072C125.334 164.552 125.11 165.251 125.11 166.168V171H123.654V162.232H125.11V163.496C125.398 163.037 125.782 162.685 126.262 162.44C126.753 162.195 127.291 162.072 127.878 162.072C128.614 162.072 129.265 162.237 129.83 162.568C130.395 162.899 130.817 163.384 131.094 164.024C131.339 163.405 131.745 162.925 132.31 162.584C132.875 162.243 133.505 162.072 134.198 162.072ZM140.89 160.808C140.613 160.808 140.378 160.712 140.186 160.52C139.994 160.328 139.898 160.093 139.898 159.816C139.898 159.539 139.994 159.304 140.186 159.112C140.378 158.92 140.613 158.824 140.89 158.824C141.157 158.824 141.381 158.92 141.562 159.112C141.754 159.304 141.85 159.539 141.85 159.816C141.85 160.093 141.754 160.328 141.562 160.52C141.381 160.712 141.157 160.808 140.89 160.808ZM141.594 162.232V171H140.138V162.232H141.594ZM145.532 159.16V171H144.076V159.16H145.532ZM148.765 160.808C148.488 160.808 148.253 160.712 148.061 160.52C147.869 160.328 147.773 160.093 147.773 159.816C147.773 159.539 147.869 159.304 148.061 159.112C148.253 158.92 148.488 158.824 148.765 158.824C149.032 158.824 149.256 158.92 149.437 159.112C149.629 159.304 149.725 159.539 149.725 159.816C149.725 160.093 149.629 160.328 149.437 160.52C149.256 160.712 149.032 160.808 148.765 160.808ZM149.469 162.232V171H148.013V162.232H149.469ZM151.407 166.584C151.407 165.688 151.588 164.904 151.951 164.232C152.313 163.549 152.809 163.021 153.439 162.648C154.079 162.275 154.788 162.088 155.567 162.088C156.335 162.088 157.001 162.253 157.567 162.584C158.132 162.915 158.553 163.331 158.831 163.832V162.232H160.303V171H158.831V169.368C158.543 169.88 158.111 170.307 157.535 170.648C156.969 170.979 156.308 171.144 155.551 171.144C154.772 171.144 154.068 170.952 153.439 170.568C152.809 170.184 152.313 169.645 151.951 168.952C151.588 168.259 151.407 167.469 151.407 166.584ZM158.831 166.6C158.831 165.939 158.697 165.363 158.431 164.872C158.164 164.381 157.801 164.008 157.343 163.752C156.895 163.485 156.399 163.352 155.855 163.352C155.311 163.352 154.815 163.48 154.367 163.736C153.919 163.992 153.561 164.365 153.295 164.856C153.028 165.347 152.895 165.923 152.895 166.584C152.895 167.256 153.028 167.843 153.295 168.344C153.561 168.835 153.919 169.213 154.367 169.48C154.815 169.736 155.311 169.864 155.855 169.864C156.399 169.864 156.895 169.736 157.343 169.48C157.801 169.213 158.164 168.835 158.431 168.344C158.697 167.843 158.831 167.261 158.831 166.6ZM164.219 163.656C164.475 163.155 164.838 162.765 165.307 162.488C165.787 162.211 166.369 162.072 167.051 162.072V163.576H166.667C165.035 163.576 164.219 164.461 164.219 166.232V171H162.763V162.232H164.219V163.656ZM172.454 166.584C172.454 165.688 172.635 164.904 172.998 164.232C173.36 163.549 173.856 163.021 174.486 162.648C175.126 162.275 175.835 162.088 176.614 162.088C177.382 162.088 178.048 162.253 178.614 162.584C179.179 162.915 179.6 163.331 179.878 163.832V162.232H181.35V171H179.878V169.368C179.59 169.88 179.158 170.307 178.582 170.648C178.016 170.979 177.355 171.144 176.598 171.144C175.819 171.144 175.115 170.952 174.486 170.568C173.856 170.184 173.36 169.645 172.998 168.952C172.635 168.259 172.454 167.469 172.454 166.584ZM179.878 166.6C179.878 165.939 179.744 165.363 179.478 164.872C179.211 164.381 178.848 164.008 178.39 163.752C177.942 163.485 177.446 163.352 176.902 163.352C176.358 163.352 175.862 163.48 175.414 163.736C174.966 163.992 174.608 164.365 174.342 164.856C174.075 165.347 173.942 165.923 173.942 166.584C173.942 167.256 174.075 167.843 174.342 168.344C174.608 168.835 174.966 169.213 175.414 169.48C175.862 169.736 176.358 169.864 176.902 169.864C177.446 169.864 177.942 169.736 178.39 169.48C178.848 169.213 179.211 168.835 179.478 168.344C179.744 167.843 179.878 167.261 179.878 166.6ZM188.082 162.072C189.149 162.072 190.013 162.397 190.674 163.048C191.335 163.688 191.666 164.616 191.666 165.832V171H190.226V166.04C190.226 165.165 190.007 164.499 189.57 164.04C189.133 163.571 188.535 163.336 187.778 163.336C187.01 163.336 186.397 163.576 185.938 164.056C185.49 164.536 185.266 165.235 185.266 166.152V171H183.81V162.232H185.266V163.48C185.554 163.032 185.943 162.685 186.434 162.44C186.935 162.195 187.485 162.072 188.082 162.072ZM193.501 166.584C193.501 165.688 193.682 164.904 194.045 164.232C194.407 163.549 194.903 163.021 195.533 162.648C196.173 162.275 196.887 162.088 197.677 162.088C198.359 162.088 198.994 162.248 199.581 162.568C200.167 162.877 200.615 163.288 200.925 163.8V159.16H202.397V171H200.925V169.352C200.637 169.875 200.21 170.307 199.645 170.648C199.079 170.979 198.418 171.144 197.661 171.144C196.882 171.144 196.173 170.952 195.533 170.568C194.903 170.184 194.407 169.645 194.045 168.952C193.682 168.259 193.501 167.469 193.501 166.584ZM200.925 166.6C200.925 165.939 200.791 165.363 200.525 164.872C200.258 164.381 199.895 164.008 199.437 163.752C198.989 163.485 198.493 163.352 197.949 163.352C197.405 163.352 196.909 163.48 196.461 163.736C196.013 163.992 195.655 164.365 195.389 164.856C195.122 165.347 194.989 165.923 194.989 166.584C194.989 167.256 195.122 167.843 195.389 168.344C195.655 168.835 196.013 169.213 196.461 169.48C196.909 169.736 197.405 169.864 197.949 169.864C198.493 169.864 198.989 169.736 199.437 169.48C199.895 169.213 200.258 168.835 200.525 168.344C200.791 167.843 200.925 167.261 200.925 166.6ZM210.579 163.848C210.867 163.347 211.293 162.931 211.859 162.6C212.435 162.259 213.101 162.088 213.859 162.088C214.637 162.088 215.341 162.275 215.971 162.648C216.611 163.021 217.112 163.549 217.475 164.232C217.837 164.904 218.019 165.688 218.019 166.584C218.019 167.469 217.837 168.259 217.475 168.952C217.112 169.645 216.611 170.184 215.971 170.568C215.341 170.952 214.637 171.144 213.859 171.144C213.112 171.144 212.451 170.979 211.875 170.648C211.309 170.307 210.877 169.885 210.579 169.384V175.16H209.123V162.232H210.579V163.848ZM216.531 166.584C216.531 165.923 216.397 165.347 216.131 164.856C215.864 164.365 215.501 163.992 215.043 163.736C214.595 163.48 214.099 163.352 213.555 163.352C213.021 163.352 212.525 163.485 212.067 163.752C211.619 164.008 211.256 164.387 210.979 164.888C210.712 165.379 210.579 165.949 210.579 166.6C210.579 167.261 210.712 167.843 210.979 168.344C211.256 168.835 211.619 169.213 212.067 169.48C212.525 169.736 213.021 169.864 213.555 169.864C214.099 169.864 214.595 169.736 215.043 169.48C215.501 169.213 215.864 168.835 216.131 168.344C216.397 167.843 216.531 167.256 216.531 166.584ZM223.759 171.144C222.938 171.144 222.191 170.957 221.519 170.584C220.858 170.211 220.335 169.683 219.951 169C219.578 168.307 219.391 167.507 219.391 166.6C219.391 165.704 219.583 164.915 219.967 164.232C220.362 163.539 220.895 163.011 221.567 162.648C222.239 162.275 222.991 162.088 223.823 162.088C224.655 162.088 225.407 162.275 226.079 162.648C226.751 163.011 227.279 163.533 227.663 164.216C228.058 164.899 228.255 165.693 228.255 166.6C228.255 167.507 228.052 168.307 227.647 169C227.252 169.683 226.714 170.211 226.031 170.584C225.348 170.957 224.591 171.144 223.759 171.144ZM223.759 169.864C224.282 169.864 224.772 169.741 225.231 169.496C225.69 169.251 226.058 168.883 226.335 168.392C226.623 167.901 226.767 167.304 226.767 166.6C226.767 165.896 226.628 165.299 226.351 164.808C226.074 164.317 225.711 163.955 225.263 163.72C224.815 163.475 224.33 163.352 223.807 163.352C223.274 163.352 222.783 163.475 222.335 163.72C221.898 163.955 221.546 164.317 221.279 164.808C221.012 165.299 220.879 165.896 220.879 166.6C220.879 167.315 221.007 167.917 221.263 168.408C221.53 168.899 221.882 169.267 222.319 169.512C222.756 169.747 223.236 169.864 223.759 169.864ZM241.85 162.232L239.114 171H237.61L235.498 164.04L233.386 171H231.882L229.13 162.232H230.618L232.634 169.592L234.81 162.232H236.298L238.426 169.608L240.41 162.232H241.85ZM251.295 166.28C251.295 166.557 251.279 166.851 251.247 167.16H244.239C244.292 168.024 244.585 168.701 245.119 169.192C245.663 169.672 246.319 169.912 247.087 169.912C247.716 169.912 248.239 169.768 248.655 169.48C249.081 169.181 249.38 168.787 249.551 168.296H251.119C250.884 169.139 250.415 169.827 249.711 170.36C249.007 170.883 248.132 171.144 247.087 171.144C246.255 171.144 245.508 170.957 244.847 170.584C244.196 170.211 243.684 169.683 243.311 169C242.937 168.307 242.751 167.507 242.751 166.6C242.751 165.693 242.932 164.899 243.295 164.216C243.657 163.533 244.164 163.011 244.815 162.648C245.476 162.275 246.233 162.088 247.087 162.088C247.919 162.088 248.655 162.269 249.295 162.632C249.935 162.995 250.425 163.496 250.767 164.136C251.119 164.765 251.295 165.48 251.295 166.28ZM249.791 165.976C249.791 165.421 249.668 164.947 249.423 164.552C249.177 164.147 248.841 163.843 248.415 163.64C247.999 163.427 247.535 163.32 247.023 163.32C246.287 163.32 245.657 163.555 245.135 164.024C244.623 164.493 244.329 165.144 244.255 165.976H249.791ZM254.672 163.656C254.928 163.155 255.291 162.765 255.76 162.488C256.24 162.211 256.822 162.072 257.504 162.072V163.576H257.12C255.488 163.576 254.672 164.461 254.672 166.232V171H253.216V162.232H254.672V163.656ZM262.753 163.432H260.913V171H259.457V163.432H258.321V162.232H259.457V161.608C259.457 160.627 259.708 159.912 260.209 159.464C260.721 159.005 261.537 158.776 262.657 158.776V159.992C262.017 159.992 261.564 160.12 261.297 160.376C261.041 160.621 260.913 161.032 260.913 161.608V162.232H262.753V163.432ZM272.227 162.232V171H270.771V169.704C270.493 170.152 270.104 170.504 269.603 170.76C269.112 171.005 268.568 171.128 267.971 171.128C267.288 171.128 266.675 170.989 266.131 170.712C265.587 170.424 265.155 169.997 264.835 169.432C264.525 168.867 264.371 168.179 264.371 167.368V162.232H265.811V167.176C265.811 168.04 266.029 168.707 266.467 169.176C266.904 169.635 267.501 169.864 268.259 169.864C269.037 169.864 269.651 169.624 270.099 169.144C270.547 168.664 270.771 167.965 270.771 167.048V162.232H272.227ZM276.141 159.16V171H274.685V159.16H276.141ZM284.344 159.16V171H282.888V159.16H284.344ZM287.578 160.808C287.3 160.808 287.066 160.712 286.874 160.52C286.682 160.328 286.586 160.093 286.586 159.816C286.586 159.539 286.682 159.304 286.874 159.112C287.066 158.92 287.3 158.824 287.578 158.824C287.844 158.824 288.068 158.92 288.25 159.112C288.442 159.304 288.538 159.539 288.538 159.816C288.538 160.093 288.442 160.328 288.25 160.52C288.068 160.712 287.844 160.808 287.578 160.808ZM288.282 162.232V171H286.826V162.232H288.282ZM295.659 171L292.219 167.128V171H290.763V159.16H292.219V166.12L295.595 162.232H297.627L293.499 166.6L297.643 171H295.659ZM306.998 166.28C306.998 166.557 306.982 166.851 306.95 167.16H299.942C299.995 168.024 300.288 168.701 300.822 169.192C301.366 169.672 302.022 169.912 302.79 169.912C303.419 169.912 303.942 169.768 304.358 169.48C304.784 169.181 305.083 168.787 305.254 168.296H306.822C306.587 169.139 306.118 169.827 305.414 170.36C304.71 170.883 303.835 171.144 302.79 171.144C301.958 171.144 301.211 170.957 300.55 170.584C299.899 170.211 299.387 169.683 299.014 169C298.64 168.307 298.454 167.507 298.454 166.6C298.454 165.693 298.635 164.899 298.998 164.216C299.36 163.533 299.867 163.011 300.518 162.648C301.179 162.275 301.936 162.088 302.79 162.088C303.622 162.088 304.358 162.269 304.998 162.632C305.638 162.995 306.128 163.496 306.47 164.136C306.822 164.765 306.998 165.48 306.998 166.28ZM305.494 165.976C305.494 165.421 305.371 164.947 305.126 164.552C304.88 164.147 304.544 163.843 304.118 163.64C303.702 163.427 303.238 163.32 302.726 163.32C301.99 163.32 301.36 163.555 300.838 164.024C300.326 164.493 300.032 165.144 299.958 165.976H305.494ZM312.641 166.584C312.641 165.688 312.822 164.904 313.185 164.232C313.548 163.549 314.044 163.021 314.673 162.648C315.313 162.275 316.022 162.088 316.801 162.088C317.569 162.088 318.236 162.253 318.801 162.584C319.366 162.915 319.788 163.331 320.065 163.832V162.232H321.537V171H320.065V169.368C319.777 169.88 319.345 170.307 318.769 170.648C318.204 170.979 317.542 171.144 316.785 171.144C316.006 171.144 315.302 170.952 314.673 170.568C314.044 170.184 313.548 169.645 313.185 168.952C312.822 168.259 312.641 167.469 312.641 166.584ZM320.065 166.6C320.065 165.939 319.932 165.363 319.665 164.872C319.398 164.381 319.036 164.008 318.577 163.752C318.129 163.485 317.633 163.352 317.089 163.352C316.545 163.352 316.049 163.48 315.601 163.736C315.153 163.992 314.796 164.365 314.529 164.856C314.262 165.347 314.129 165.923 314.129 166.584C314.129 167.256 314.262 167.843 314.529 168.344C314.796 168.835 315.153 169.213 315.601 169.48C316.049 169.736 316.545 169.864 317.089 169.864C317.633 169.864 318.129 169.736 318.577 169.48C319.036 169.213 319.398 168.835 319.665 168.344C319.932 167.843 320.065 167.261 320.065 166.6ZM328.27 162.072C329.336 162.072 330.2 162.397 330.862 163.048C331.523 163.688 331.854 164.616 331.854 165.832V171H330.414V166.04C330.414 165.165 330.195 164.499 329.758 164.04C329.32 163.571 328.723 163.336 327.966 163.336C327.198 163.336 326.584 163.576 326.126 164.056C325.678 164.536 325.454 165.235 325.454 166.152V171H323.998V162.232H325.454V163.48C325.742 163.032 326.131 162.685 326.622 162.44C327.123 162.195 327.672 162.072 328.27 162.072ZM17.688 190.584C17.688 189.688 17.8693 188.904 18.232 188.232C18.5947 187.549 19.0907 187.021 19.72 186.648C20.36 186.275 21.0693 186.088 21.848 186.088C22.616 186.088 23.2827 186.253 23.848 186.584C24.4133 186.915 24.8347 187.331 25.112 187.832V186.232H26.584V195H25.112V193.368C24.824 193.88 24.392 194.307 23.816 194.648C23.2507 194.979 22.5893 195.144 21.832 195.144C21.0533 195.144 20.3493 194.952 19.72 194.568C19.0907 194.184 18.5947 193.645 18.232 192.952C17.8693 192.259 17.688 191.469 17.688 190.584ZM25.112 190.6C25.112 189.939 24.9787 189.363 24.712 188.872C24.4453 188.381 24.0827 188.008 23.624 187.752C23.176 187.485 22.68 187.352 22.136 187.352C21.592 187.352 21.096 187.48 20.648 187.736C20.2 187.992 19.8427 188.365 19.576 188.856C19.3093 189.347 19.176 189.923 19.176 190.584C19.176 191.256 19.3093 191.843 19.576 192.344C19.8427 192.835 20.2 193.213 20.648 193.48C21.096 193.736 21.592 193.864 22.136 193.864C22.68 193.864 23.176 193.736 23.624 193.48C24.0827 193.213 24.4453 192.835 24.712 192.344C24.9787 191.843 25.112 191.261 25.112 190.6ZM30.5005 187.848C30.7885 187.347 31.2152 186.931 31.7805 186.6C32.3565 186.259 33.0232 186.088 33.7805 186.088C34.5592 186.088 35.2632 186.275 35.8925 186.648C36.5325 187.021 37.0338 187.549 37.3965 188.232C37.7592 188.904 37.9405 189.688 37.9405 190.584C37.9405 191.469 37.7592 192.259 37.3965 192.952C37.0338 193.645 36.5325 194.184 35.8925 194.568C35.2632 194.952 34.5592 195.144 33.7805 195.144C33.0338 195.144 32.3725 194.979 31.7965 194.648C31.2312 194.307 30.7992 193.885 30.5005 193.384V199.16H29.0445V186.232H30.5005V187.848ZM36.4525 190.584C36.4525 189.923 36.3192 189.347 36.0525 188.856C35.7858 188.365 35.4232 187.992 34.9645 187.736C34.5165 187.48 34.0205 187.352 33.4765 187.352C32.9432 187.352 32.4472 187.485 31.9885 187.752C31.5405 188.008 31.1778 188.387 30.9005 188.888C30.6338 189.379 30.5005 189.949 30.5005 190.6C30.5005 191.261 30.6338 191.843 30.9005 192.344C31.1778 192.835 31.5405 193.213 31.9885 193.48C32.4472 193.736 32.9432 193.864 33.4765 193.864C34.0205 193.864 34.5165 193.736 34.9645 193.48C35.4232 193.213 35.7858 192.835 36.0525 192.344C36.3192 191.843 36.4525 191.256 36.4525 190.584ZM41.313 187.848C41.601 187.347 42.0277 186.931 42.593 186.6C43.169 186.259 43.8357 186.088 44.593 186.088C45.3717 186.088 46.0757 186.275 46.705 186.648C47.345 187.021 47.8463 187.549 48.209 188.232C48.5717 188.904 48.753 189.688 48.753 190.584C48.753 191.469 48.5717 192.259 48.209 192.952C47.8463 193.645 47.345 194.184 46.705 194.568C46.0757 194.952 45.3717 195.144 44.593 195.144C43.8463 195.144 43.185 194.979 42.609 194.648C42.0437 194.307 41.6117 193.885 41.313 193.384V199.16H39.857V186.232H41.313V187.848ZM47.265 190.584C47.265 189.923 47.1317 189.347 46.865 188.856C46.5983 188.365 46.2357 187.992 45.777 187.736C45.329 187.48 44.833 187.352 44.289 187.352C43.7557 187.352 43.2597 187.485 42.801 187.752C42.353 188.008 41.9903 188.387 41.713 188.888C41.4463 189.379 41.313 189.949 41.313 190.6C41.313 191.261 41.4463 191.843 41.713 192.344C41.9903 192.835 42.353 193.213 42.801 193.48C43.2597 193.736 43.7557 193.864 44.289 193.864C44.833 193.864 45.329 193.736 45.777 193.48C46.2357 193.213 46.5983 192.835 46.865 192.344C47.1317 191.843 47.265 191.256 47.265 190.584ZM66.6151 186.232L63.8791 195H62.3751L60.2631 188.04L58.1511 195H56.6471L53.8951 186.232H55.3831L57.3991 193.592L59.5751 186.232H61.0631L63.1911 193.608L65.1751 186.232H66.6151ZM68.8121 184.808C68.5348 184.808 68.3001 184.712 68.1081 184.52C67.9161 184.328 67.8201 184.093 67.8201 183.816C67.8201 183.539 67.9161 183.304 68.1081 183.112C68.3001 182.92 68.5348 182.824 68.8121 182.824C69.0788 182.824 69.3028 182.92 69.4841 183.112C69.6761 183.304 69.7721 183.539 69.7721 183.816C69.7721 184.093 69.6761 184.328 69.4841 184.52C69.3028 184.712 69.0788 184.808 68.8121 184.808ZM69.5161 186.232V195H68.0601V186.232H69.5161ZM73.7736 187.432V192.6C73.7736 193.027 73.8643 193.331 74.0456 193.512C74.227 193.683 74.5416 193.768 74.9896 193.768H76.0616V195H74.7496C73.939 195 73.331 194.813 72.9256 194.44C72.5203 194.067 72.3176 193.453 72.3176 192.6V187.432H71.1816V186.232H72.3176V184.024H73.7736V186.232H76.0616V187.432H73.7736ZM82.1778 186.072C82.8391 186.072 83.4364 186.216 83.9698 186.504C84.5031 186.781 84.9191 187.203 85.2178 187.768C85.5271 188.333 85.6818 189.021 85.6818 189.832V195H84.2418V190.04C84.2418 189.165 84.0231 188.499 83.5858 188.04C83.1484 187.571 82.5511 187.336 81.7938 187.336C81.0258 187.336 80.4124 187.576 79.9538 188.056C79.5058 188.536 79.2818 189.235 79.2818 190.152V195H77.8258V183.16H79.2818V187.48C79.5698 187.032 79.9644 186.685 80.4658 186.44C80.9778 186.195 81.5484 186.072 82.1778 186.072ZM91.7818 190.584C91.7818 189.688 91.9631 188.904 92.3258 188.232C92.6884 187.549 93.1844 187.021 93.8138 186.648C94.4538 186.275 95.1631 186.088 95.9418 186.088C96.7098 186.088 97.3764 186.253 97.9418 186.584C98.5071 186.915 98.9284 187.331 99.2058 187.832V186.232H100.678V195H99.2058V193.368C98.9178 193.88 98.4858 194.307 97.9098 194.648C97.3444 194.979 96.6831 195.144 95.9258 195.144C95.1471 195.144 94.4431 194.952 93.8138 194.568C93.1844 194.184 92.6884 193.645 92.3258 192.952C91.9631 192.259 91.7818 191.469 91.7818 190.584ZM99.2058 190.6C99.2058 189.939 99.0724 189.363 98.8058 188.872C98.5391 188.381 98.1764 188.008 97.7178 187.752C97.2698 187.485 96.7738 187.352 96.2298 187.352C95.6858 187.352 95.1898 187.48 94.7418 187.736C94.2938 187.992 93.9364 188.365 93.6698 188.856C93.4031 189.347 93.2698 189.923 93.2698 190.584C93.2698 191.256 93.4031 191.843 93.6698 192.344C93.9364 192.835 94.2938 193.213 94.7418 193.48C95.1898 193.736 95.6858 193.864 96.2298 193.864C96.7738 193.864 97.2698 193.736 97.7178 193.48C98.1764 193.213 98.5391 192.835 98.8058 192.344C99.0724 191.843 99.2058 191.261 99.2058 190.6ZM107.41 186.072C108.477 186.072 109.341 186.397 110.002 187.048C110.664 187.688 110.994 188.616 110.994 189.832V195H109.554V190.04C109.554 189.165 109.336 188.499 108.898 188.04C108.461 187.571 107.864 187.336 107.106 187.336C106.338 187.336 105.725 187.576 105.266 188.056C104.818 188.536 104.594 189.235 104.594 190.152V195H103.138V186.232H104.594V187.48C104.882 187.032 105.272 186.685 105.762 186.44C106.264 186.195 106.813 186.072 107.41 186.072ZM118.39 184.808C118.113 184.808 117.878 184.712 117.686 184.52C117.494 184.328 117.398 184.093 117.398 183.816C117.398 183.539 117.494 183.304 117.686 183.112C117.878 182.92 118.113 182.824 118.39 182.824C118.657 182.824 118.881 182.92 119.062 183.112C119.254 183.304 119.35 183.539 119.35 183.816C119.35 184.093 119.254 184.328 119.062 184.52C118.881 184.712 118.657 184.808 118.39 184.808ZM119.094 186.232V195H117.638V186.232H119.094ZM125.848 186.072C126.914 186.072 127.778 186.397 128.44 187.048C129.101 187.688 129.432 188.616 129.432 189.832V195H127.992V190.04C127.992 189.165 127.773 188.499 127.336 188.04C126.898 187.571 126.301 187.336 125.544 187.336C124.776 187.336 124.162 187.576 123.704 188.056C123.256 188.536 123.032 189.235 123.032 190.152V195H121.576V186.232H123.032V187.48C123.32 187.032 123.709 186.685 124.2 186.44C124.701 186.195 125.25 186.072 125.848 186.072ZM133.586 187.432V192.6C133.586 193.027 133.677 193.331 133.858 193.512C134.039 193.683 134.354 193.768 134.802 193.768H135.874V195H134.562C133.751 195 133.143 194.813 132.738 194.44C132.333 194.067 132.13 193.453 132.13 192.6V187.432H130.994V186.232H132.13V184.024H133.586V186.232H135.874V187.432H133.586ZM145.414 186.232V195H143.958V193.704C143.681 194.152 143.292 194.504 142.79 194.76C142.3 195.005 141.756 195.128 141.158 195.128C140.476 195.128 139.862 194.989 139.318 194.712C138.774 194.424 138.342 193.997 138.022 193.432C137.713 192.867 137.558 192.179 137.558 191.368V186.232H138.998V191.176C138.998 192.04 139.217 192.707 139.654 193.176C140.092 193.635 140.689 193.864 141.446 193.864C142.225 193.864 142.838 193.624 143.286 193.144C143.734 192.664 143.958 191.965 143.958 191.048V186.232H145.414ZM148.625 184.808C148.347 184.808 148.113 184.712 147.921 184.52C147.729 184.328 147.633 184.093 147.633 183.816C147.633 183.539 147.729 183.304 147.921 183.112C148.113 182.92 148.347 182.824 148.625 182.824C148.891 182.824 149.115 182.92 149.297 183.112C149.489 183.304 149.585 183.539 149.585 183.816C149.585 184.093 149.489 184.328 149.297 184.52C149.115 184.712 148.891 184.808 148.625 184.808ZM149.329 186.232V195H147.873V186.232H149.329ZM153.586 187.432V192.6C153.586 193.027 153.677 193.331 153.858 193.512C154.039 193.683 154.354 193.768 154.802 193.768H155.874V195H154.562C153.751 195 153.143 194.813 152.738 194.44C152.333 194.067 152.13 193.453 152.13 192.6V187.432H150.994V186.232H152.13V184.024H153.586V186.232H155.874V187.432H153.586ZM158.39 184.808C158.113 184.808 157.878 184.712 157.686 184.52C157.494 184.328 157.398 184.093 157.398 183.816C157.398 183.539 157.494 183.304 157.686 183.112C157.878 182.92 158.113 182.824 158.39 182.824C158.657 182.824 158.881 182.92 159.062 183.112C159.254 183.304 159.35 183.539 159.35 183.816C159.35 184.093 159.254 184.328 159.062 184.52C158.881 184.712 158.657 184.808 158.39 184.808ZM159.094 186.232V195H157.638V186.232H159.094ZM164.84 193.656L167.56 186.232H169.112L165.672 195H163.976L160.536 186.232H162.104L164.84 193.656ZM178.545 190.28C178.545 190.557 178.529 190.851 178.497 191.16H171.489C171.542 192.024 171.835 192.701 172.369 193.192C172.913 193.672 173.569 193.912 174.337 193.912C174.966 193.912 175.489 193.768 175.905 193.48C176.331 193.181 176.63 192.787 176.801 192.296H178.369C178.134 193.139 177.665 193.827 176.961 194.36C176.257 194.883 175.382 195.144 174.337 195.144C173.505 195.144 172.758 194.957 172.097 194.584C171.446 194.211 170.934 193.683 170.561 193C170.187 192.307 170.001 191.507 170.001 190.6C170.001 189.693 170.182 188.899 170.545 188.216C170.907 187.533 171.414 187.011 172.065 186.648C172.726 186.275 173.483 186.088 174.337 186.088C175.169 186.088 175.905 186.269 176.545 186.632C177.185 186.995 177.675 187.496 178.017 188.136C178.369 188.765 178.545 189.48 178.545 190.28ZM177.041 189.976C177.041 189.421 176.918 188.947 176.673 188.552C176.427 188.147 176.091 187.843 175.665 187.64C175.249 187.427 174.785 187.32 174.273 187.32C173.537 187.32 172.907 187.555 172.385 188.024C171.873 188.493 171.579 189.144 171.505 189.976H177.041ZM185.484 184.808C185.207 184.808 184.972 184.712 184.78 184.52C184.588 184.328 184.492 184.093 184.492 183.816C184.492 183.539 184.588 183.304 184.78 183.112C184.972 182.92 185.207 182.824 185.484 182.824C185.751 182.824 185.975 182.92 186.156 183.112C186.348 183.304 186.444 183.539 186.444 183.816C186.444 184.093 186.348 184.328 186.156 184.52C185.975 184.712 185.751 184.808 185.484 184.808ZM186.188 186.232V195H184.732V186.232H186.188ZM192.942 186.072C194.008 186.072 194.872 186.397 195.534 187.048C196.195 187.688 196.526 188.616 196.526 189.832V195H195.086V190.04C195.086 189.165 194.867 188.499 194.43 188.04C193.992 187.571 193.395 187.336 192.638 187.336C191.87 187.336 191.256 187.576 190.798 188.056C190.35 188.536 190.126 189.235 190.126 190.152V195H188.67V186.232H190.126V187.48C190.414 187.032 190.803 186.685 191.294 186.44C191.795 186.195 192.344 186.072 192.942 186.072ZM200.68 187.432V192.6C200.68 193.027 200.771 193.331 200.952 193.512C201.133 193.683 201.448 193.768 201.896 193.768H202.968V195H201.656C200.845 195 200.237 194.813 199.832 194.44C199.427 194.067 199.224 193.453 199.224 192.6V187.432H198.088V186.232H199.224V184.024H200.68V186.232H202.968V187.432H200.68ZM212.732 190.28C212.732 190.557 212.716 190.851 212.684 191.16H205.676C205.729 192.024 206.023 192.701 206.556 193.192C207.1 193.672 207.756 193.912 208.524 193.912C209.153 193.912 209.676 193.768 210.092 193.48C210.519 193.181 210.817 192.787 210.988 192.296H212.556C212.321 193.139 211.852 193.827 211.148 194.36C210.444 194.883 209.569 195.144 208.524 195.144C207.692 195.144 206.945 194.957 206.284 194.584C205.633 194.211 205.121 193.683 204.748 193C204.375 192.307 204.188 191.507 204.188 190.6C204.188 189.693 204.369 188.899 204.732 188.216C205.095 187.533 205.601 187.011 206.252 186.648C206.913 186.275 207.671 186.088 208.524 186.088C209.356 186.088 210.092 186.269 210.732 186.632C211.372 186.995 211.863 187.496 212.204 188.136C212.556 188.765 212.732 189.48 212.732 190.28ZM211.228 189.976C211.228 189.421 211.105 188.947 210.86 188.552C210.615 188.147 210.279 187.843 209.852 187.64C209.436 187.427 208.972 187.32 208.46 187.32C207.724 187.32 207.095 187.555 206.572 188.024C206.06 188.493 205.767 189.144 205.692 189.976H211.228ZM216.11 187.656C216.366 187.155 216.729 186.765 217.198 186.488C217.678 186.211 218.259 186.072 218.942 186.072V187.576H218.558C216.926 187.576 216.11 188.461 216.11 190.232V195H214.654V186.232H216.11V187.656ZM224.191 187.432H222.351V195H220.895V187.432H219.759V186.232H220.895V185.608C220.895 184.627 221.145 183.912 221.647 183.464C222.159 183.005 222.975 182.776 224.095 182.776V183.992C223.455 183.992 223.001 184.12 222.735 184.376C222.479 184.621 222.351 185.032 222.351 185.608V186.232H224.191V187.432ZM225.344 190.584C225.344 189.688 225.526 188.904 225.888 188.232C226.251 187.549 226.747 187.021 227.376 186.648C228.016 186.275 228.726 186.088 229.504 186.088C230.272 186.088 230.939 186.253 231.504 186.584C232.07 186.915 232.491 187.331 232.768 187.832V186.232H234.24V195H232.768V193.368C232.48 193.88 232.048 194.307 231.472 194.648C230.907 194.979 230.246 195.144 229.488 195.144C228.71 195.144 228.006 194.952 227.376 194.568C226.747 194.184 226.251 193.645 225.888 192.952C225.526 192.259 225.344 191.469 225.344 190.584ZM232.768 190.6C232.768 189.939 232.635 189.363 232.368 188.872C232.102 188.381 231.739 188.008 231.28 187.752C230.832 187.485 230.336 187.352 229.792 187.352C229.248 187.352 228.752 187.48 228.304 187.736C227.856 187.992 227.499 188.365 227.232 188.856C226.966 189.347 226.832 189.923 226.832 190.584C226.832 191.256 226.966 191.843 227.232 192.344C227.499 192.835 227.856 193.213 228.304 193.48C228.752 193.736 229.248 193.864 229.792 193.864C230.336 193.864 230.832 193.736 231.28 193.48C231.739 193.213 232.102 192.835 232.368 192.344C232.635 191.843 232.768 191.261 232.768 190.6ZM236.157 190.6C236.157 189.693 236.338 188.904 236.701 188.232C237.063 187.549 237.565 187.021 238.205 186.648C238.855 186.275 239.597 186.088 240.429 186.088C241.506 186.088 242.391 186.349 243.085 186.872C243.789 187.395 244.253 188.12 244.477 189.048H242.909C242.759 188.515 242.466 188.093 242.029 187.784C241.602 187.475 241.069 187.32 240.429 187.32C239.597 187.32 238.925 187.608 238.413 188.184C237.901 188.749 237.645 189.555 237.645 190.6C237.645 191.656 237.901 192.472 238.413 193.048C238.925 193.624 239.597 193.912 240.429 193.912C241.069 193.912 241.602 193.763 242.029 193.464C242.455 193.165 242.749 192.739 242.909 192.184H244.477C244.242 193.08 243.773 193.8 243.069 194.344C242.365 194.877 241.485 195.144 240.429 195.144C239.597 195.144 238.855 194.957 238.205 194.584C237.565 194.211 237.063 193.683 236.701 193C236.338 192.317 236.157 191.517 236.157 190.6ZM254.42 190.28C254.42 190.557 254.404 190.851 254.372 191.16H247.364C247.417 192.024 247.71 192.701 248.244 193.192C248.788 193.672 249.444 193.912 250.212 193.912C250.841 193.912 251.364 193.768 251.78 193.48C252.206 193.181 252.505 192.787 252.676 192.296H254.244C254.009 193.139 253.54 193.827 252.836 194.36C252.132 194.883 251.257 195.144 250.212 195.144C249.38 195.144 248.633 194.957 247.972 194.584C247.321 194.211 246.809 193.683 246.436 193C246.062 192.307 245.876 191.507 245.876 190.6C245.876 189.693 246.057 188.899 246.42 188.216C246.782 187.533 247.289 187.011 247.94 186.648C248.601 186.275 249.358 186.088 250.212 186.088C251.044 186.088 251.78 186.269 252.42 186.632C253.06 186.995 253.55 187.496 253.892 188.136C254.244 188.765 254.42 189.48 254.42 190.28ZM252.916 189.976C252.916 189.421 252.793 188.947 252.548 188.552C252.302 188.147 251.966 187.843 251.54 187.64C251.124 187.427 250.66 187.32 250.148 187.32C249.412 187.32 248.782 187.555 248.26 188.024C247.748 188.493 247.454 189.144 247.38 189.976H252.916ZM256.805 195.096C256.528 195.096 256.293 195 256.101 194.808C255.909 194.616 255.813 194.381 255.813 194.104C255.813 193.827 255.909 193.592 256.101 193.4C256.293 193.208 256.528 193.112 256.805 193.112C257.072 193.112 257.296 193.208 257.477 193.4C257.669 193.592 257.765 193.827 257.765 194.104C257.765 194.381 257.669 194.616 257.477 194.808C257.296 195 257.072 195.096 256.805 195.096Z" fill="#1A0062"/>
<path d="M290.247 2.42919C290.125 6.09855 290.124 21.0341 291.102 51.4217L291.407 68.919L296.254 58.3328L301.424 66.2438L304.69 61.186L309.293 68.6068L311.956 61.0592L315.956 65.9902L314.839 1.99993L310.996 6.06761L308.132 2.117L303.731 6.19444L300.307 2.25358L295.347 6.34077L290.247 2.42919Z" fill="#E6CA3A" fill-opacity="0.66" stroke="#FEFEFD"/>
<g filter="url(#filter1_d_10_46)">
<circle cx="303.5" cy="18.5" r="7.5" fill="#050B43"/>
</g>
<path d="M60.2469 2.42919C60.1246 6.09855 60.1244 21.0341 61.102 51.4217L61.4075 68.919L66.2544 58.3328L71.4242 66.2438L74.6904 61.186L79.2926 68.6068L81.9562 61.0592L85.9559 65.9902L84.8389 1.99993L80.9963 6.06761L78.132 2.117L73.7305 6.19444L70.3072 2.25358L65.3468 6.34077L60.2469 2.42919Z" fill="#E6CA3A" fill-opacity="0.66" stroke="#FEFEFD"/>
<g filter="url(#filter2_d_10_46)">
<circle cx="73.5" cy="18.5" r="7.5" fill="#050B43"/>
</g>
<defs>
<filter id="filter0_d_10_46" x="0" y="35" width="383" height="228" filterUnits="userSpaceOnUse" color-interpolation-filters="sRGB">
<feFlood flood-opacity="0" result="BackgroundImageFix"/>
<feColorMatrix in="SourceAlpha" type="matrix" values="0 0 0 0 0 0 0 0 0 0 0 0 0 0 0 0 0 0 127 0" result="hardAlpha"/>
<feOffset dx="8" dy="12"/>
<feGaussianBlur stdDeviation="3"/>
<feComposite in2="hardAlpha" operator="out"/>
<feColorMatrix type="matrix" values="0 0 0 0 0.0152778 0 0 0 0 0.161583 0 0 0 0 0.333333 0 0 0 0.42 0"/>
<feBlend mode="normal" in2="BackgroundImageFix" result="effect1_dropShadow_10_46"/>
<feBlend mode="normal" in="SourceGraphic" in2="effect1_dropShadow_10_46" result="shape"/>
</filter>
<filter id="filter1_d_10_46" x="289" y="5" width="27" height="27" filterUnits="userSpaceOnUse" color-interpolation-filters="sRGB">
<feFlood flood-opacity="0" result="BackgroundImageFix"/>
<feColorMatrix in="SourceAlpha" type="matrix" values="0 0 0 0 0 0 0 0 0 0 0 0 0 0 0 0 0 0 127 0" result="hardAlpha"/>
<feOffset dx="-1"/>
<feGaussianBlur stdDeviation="3"/>
<feComposite in2="hardAlpha" operator="out"/>
<feColorMatrix type="matrix" values="0 0 0 0 0 0 0 0 0 0 0 0 0 0 0 0 0 0 0.54 0"/>
<feBlend mode="normal" in2="BackgroundImageFix" result="effect1_dropShadow_10_46"/>
<feBlend mode="normal" in="SourceGraphic" in2="effect1_dropShadow_10_46" result="shape"/>
</filter>
<filter id="filter2_d_10_46" x="59" y="5" width="27" height="27" filterUnits="userSpaceOnUse" color-interpolation-filters="sRGB">
<feFlood flood-opacity="0" result="BackgroundImageFix"/>
<feColorMatrix in="SourceAlpha" type="matrix" values="0 0 0 0 0 0 0 0 0 0 0 0 0 0 0 0 0 0 127 0" result="hardAlpha"/>
<feOffset dx="-1"/>
<feGaussianBlur stdDeviation="3"/>
<feComposite in2="hardAlpha" operator="out"/>
<feColorMatrix type="matrix" values="0 0 0 0 0 0 0 0 0 0 0 0 0 0 0 0 0 0 0.54 0"/>
<feBlend mode="normal" in2="BackgroundImageFix" result="effect1_dropShadow_10_46"/>
<feBlend mode="normal" in="SourceGraphic" in2="effect1_dropShadow_10_46" result="shape"/>
</filter>
</defs>
</svg>
