<svg width="516" height="201" viewBox="0 0 516 201" fill="none" xmlns="http://www.w3.org/2000/svg">
<g filter="url(#filter0_d_3_2)">
<rect x="31" y="25.9862" width="146.391" height="142.014" rx="32" fill="#7B52D2" fill-opacity="0.19" shape-rendering="crispEdges"/>
</g>
<path d="M189.084 63.61C187.964 58.78 187.404 54.965 187.404 52.165C187.404 49.365 187.509 46.81 187.719 44.5H248.724C249.004 47.86 249.144 50.135 249.144 51.325C249.144 54.335 248.584 58.43 247.464 63.61C245.434 64.17 242.109 64.45 237.489 64.45L235.074 53.845H226.149C226.079 56.505 225.764 74.53 225.204 107.92L232.764 108.865C232.764 112.085 231.959 115.13 230.349 118H204.834L203.889 112.225C208.719 110.405 211.764 109.39 213.024 109.18C213.024 108.9 212.604 90.49 211.764 53.95H201.369L199.059 64.24C194.929 64.24 191.604 64.03 189.084 63.61ZM269.823 119.26C263.873 119.26 259.253 118.035 255.963 115.585C252.743 113.135 251.133 109.005 251.133 103.195C251.133 97.665 253.058 93.15 256.908 89.65C259.148 87.62 262.263 86.43 266.253 86.08C270.243 85.73 275.738 85.555 282.738 85.555V83.875C282.738 79.605 282.038 76.49 280.638 74.53C279.308 72.5 276.928 71.485 273.498 71.485C271.748 71.485 270.173 71.835 268.773 72.535L266.253 81.67L258.483 81.46C256.733 78.8 255.788 74.565 255.648 68.755C257.048 68.055 260.338 67.005 265.518 65.605C270.698 64.135 274.023 63.4 275.493 63.4C283.053 63.4 288.548 64.975 291.978 68.125C295.408 71.205 297.123 76.14 297.123 82.93C297.123 89.65 296.808 98.54 296.178 109.6C300.168 109.95 303.248 110.545 305.418 111.385C305.488 112.225 305.523 113.24 305.523 114.43L305.418 116.74C300.378 118.42 295.303 119.26 290.193 119.26C288.863 119.26 287.883 119.225 287.253 119.155C286.203 117.055 285.573 114.535 285.363 111.595H284.838C283.508 112.855 281.163 114.465 277.803 116.425C274.513 118.315 271.853 119.26 269.823 119.26ZM264.573 103.825C264.573 106.135 265.273 107.85 266.673 108.97C268.143 110.02 269.788 110.545 271.608 110.545C273.428 110.545 275.598 109.74 278.118 108.13C280.638 106.45 282.668 104.945 284.208 103.615L283.683 93.955C278.153 94.235 273.988 94.76 271.188 95.53C266.778 96.44 264.573 99.205 264.573 103.825ZM345.324 67.915L345.429 71.17C345.429 76.63 345.009 80.2 344.169 81.88C341.859 82.72 338.639 83.14 334.509 83.14L331.149 72.535C330.239 72.185 328.979 72.01 327.369 72.01C325.759 72.01 324.429 72.5 323.379 73.48C322.399 74.46 321.909 75.615 321.909 76.945C321.909 78.275 322.434 79.5 323.484 80.62C324.534 81.67 325.619 82.51 326.739 83.14C327.859 83.77 329.469 84.61 331.569 85.66C333.739 86.64 335.349 87.41 336.399 87.97C337.519 88.53 338.919 89.37 340.599 90.49C342.349 91.61 343.679 92.66 344.589 93.64C346.829 96.3 347.949 99.205 347.949 102.355C347.949 107.745 345.884 111.91 341.754 114.85C337.694 117.79 332.689 119.26 326.739 119.26C323.589 119.26 320.124 118.7 316.344 117.58C312.634 116.46 309.484 114.955 306.894 113.065C306.894 108.025 307.384 103.335 308.364 98.995C311.164 98.645 313.439 98.47 315.189 98.47C316.939 98.47 318.129 98.505 318.759 98.575L320.019 108.76C321.769 109.39 323.869 109.705 326.319 109.705C328.769 109.705 330.694 109.215 332.094 108.235C333.564 107.255 334.299 105.89 334.299 104.14C334.299 102.32 333.494 100.815 331.884 99.625C330.274 98.435 328.069 97.21 325.269 95.95C322.469 94.62 320.299 93.535 318.759 92.695C317.219 91.785 315.574 90.63 313.824 89.23C310.254 86.5 308.469 83.14 308.469 79.15C308.469 74.18 310.184 70.33 313.614 67.6C317.114 64.8 321.804 63.4 327.684 63.4C333.564 63.4 339.444 64.905 345.324 67.915ZM375.16 99.835L375.055 107.92L383.245 108.865C383.245 111.735 382.44 114.78 380.83 118H354.685L353.74 112.225C358.08 110.615 361.23 109.565 363.19 109.075L361.195 50.8C357.905 50.45 355.14 49.925 352.9 49.225C352.9 46.635 353.145 44.115 353.635 41.665C357.765 40.545 364.835 39.985 374.845 39.985C376.175 39.985 377.015 40.02 377.365 40.09C377.365 43.73 376.91 46.915 376 49.645C375.58 66.445 375.37 78.905 375.37 87.025L387.865 74.635L381.355 73.795C381.355 70.925 382.16 67.88 383.77 64.66H409.915L410.86 70.435C406.52 72.045 403.37 73.095 401.41 73.585L389.86 85.135L404.56 107.92L412.75 108.865C412.75 111.735 411.945 114.78 410.335 118H396.895L381.355 93.64L375.16 99.835Z" fill="#3E3BC6" fill-opacity="0.71"/>
<path d="M444.126 108.97C446.506 108.97 451.336 107.325 458.616 104.035C460.156 106.275 461.311 108.865 462.081 111.805C458.231 114.185 454.451 116.04 450.741 117.37C447.101 118.63 444.511 119.26 442.971 119.26C434.501 119.26 428.061 116.915 423.651 112.225C419.311 107.535 417.141 100.885 417.141 92.275C417.141 83.595 419.311 76.63 423.651 71.38C427.991 66.06 434.431 63.4 442.971 63.4C449.761 63.4 454.941 65.605 458.511 70.015C462.081 74.425 463.866 80.165 463.866 87.235C463.866 88.705 463.026 90.385 461.346 92.275L431.106 91.75C431.246 97.35 432.296 101.62 434.256 104.56C436.216 107.5 439.506 108.97 444.126 108.97ZM442.026 72.115C439.366 72.115 436.881 72.64 434.571 73.69C432.961 77.05 431.946 80.165 431.526 83.035C436.986 82.825 443.181 82.685 450.111 82.615C449.761 75.615 447.066 72.115 442.026 72.115ZM500.901 74.74C500.761 74.39 500.061 74.215 498.801 74.215C497.541 74.215 495.371 75.16 492.291 77.05C492.011 90.77 491.836 101.06 491.766 107.92L499.956 108.97C499.956 111.98 499.151 114.99 497.541 118H471.396L470.451 112.225C474.791 110.615 477.941 109.565 479.901 109.075L478.746 75.055C475.106 74.775 472.061 74.25 469.611 73.48L470.346 65.92C472.236 65.08 479.061 64.52 490.821 64.24C491.451 64.87 491.766 66.095 491.766 67.915C497.926 64.905 501.811 63.4 503.421 63.4C505.101 63.4 507.131 63.82 509.511 64.66C511.961 65.43 513.816 66.27 515.076 67.18V68.965C515.076 74.705 514.376 80.025 512.976 84.925C511.786 85.415 510.211 85.66 508.251 85.66C506.291 85.66 504.471 85.555 502.791 85.345C502.581 84.435 501.951 80.9 500.901 74.74Z" fill="#860371"/>
<path fill-rule="evenodd" clip-rule="evenodd" d="M455.276 146.999L460.931 149.889L466.261 146.437C476.627 139.725 483.364 138.746 487.391 139.345C491.162 139.905 494.593 142.158 497.803 146.865C500.173 150.341 502.074 154.672 503.549 159.393H515C508.693 135.985 493.126 115.935 460.282 137.204C423.963 118.643 409.897 137.104 404.724 159.393H416.066C417.289 154.914 418.881 151.047 420.856 148.017C423.582 143.836 426.796 141.53 431.062 140.826C435.764 140.049 443.43 140.945 455.276 146.999Z" fill="#3E3BC6" fill-opacity="0.62"/>
<defs>
<filter id="filter0_d_3_2" x="-2" y="0.986206" width="204.391" height="200.014" filterUnits="userSpaceOnUse" color-interpolation-filters="sRGB">
<feFlood flood-opacity="0" result="BackgroundImageFix"/>
<feColorMatrix in="SourceAlpha" type="matrix" values="0 0 0 0 0 0 0 0 0 0 0 0 0 0 0 0 0 0 127 0" result="hardAlpha"/>
<feMorphology radius="5" operator="dilate" in="SourceAlpha" result="effect1_dropShadow_3_2"/>
<feOffset dx="-4" dy="4"/>
<feGaussianBlur stdDeviation="12"/>
<feComposite in2="hardAlpha" operator="out"/>
<feColorMatrix type="matrix" values="0 0 0 0 0 0 0 0 0 0 0 0 0 0 0 0 0 0 0.25 0"/>
<feBlend mode="normal" in2="BackgroundImageFix" result="effect1_dropShadow_3_2"/>
<feBlend mode="normal" in="SourceGraphic" in2="effect1_dropShadow_3_2" result="shape"/>
</filter>
</defs>
</svg>
